ZillaSlab-Light.ufo
<glyph name="quotedbl" format="1">
  <advance width="367"/>
  <unicode hex="0022"/>
  <outline>
    <contour>
      <point x="118" y="377" type="line"/>
      <point x="121" y="650" type="line"/>
      <point x="66" y="650" type="line"/>
      <point x="69" y="377" type="line"/>
    </contour>
    <contour>
      <point x="298" y="377" type="line"/>
      <point x="301" y="650" type="line"/>
      <point x="246" y="650" type="line"/>
      <point x="249" y="377" type="line"/>
    </contour>
  </outline>
</glyph>
<glyph name="numbersign" format="1">
  <advance width="595"/>
  <unicode hex="0023"/>
  <outline>
    <contour>
      <point x="489" y="521" type="line"/>
      <point x="465" y="398" type="line"/>
      <point x="552" y="398" type="line"/>
      <point x="552" y="352" type="line"/>
      <point x="456" y="352" type="line"/>
      <point x="423" y="177" type="line"/>
      <point x="522" y="177" type="line"/>
      <point x="522" y="131" type="line"/>
      <point x="414" y="131" type="line"/>
      <point x="389" y="0" type="line"/>
      <point x="338" y="0" type="line"/>
      <point x="363" y="131" type="line"/>
      <point x="175" y="131" type="line"/>
      <point x="150" y="0" type="line"/>
      <point x="99" y="0" type="line"/>
      <point x="124" y="131" type="line"/>
      <point x="40" y="131" type="line"/>
      <point x="40" y="177" type="line"/>
      <point x="133" y="177" type="line"/>
      <point x="166" y="352" type="line"/>
      <point x="70" y="352" type="line"/>
      <point x="70" y="398" type="line"/>
      <point x="175" y="398" type="line"/>
      <point x="199" y="521" type="line"/>
      <point x="250" y="521" type="line"/>
      <point x="226" y="398" type="line"/>
      <point x="414" y="398" type="line"/>
      <point x="438" y="521" type="line"/>
    </contour>
    <contour>
      <point x="184" y="177" type="line"/>
      <point x="372" y="177" type="line"/>
      <point x="405" y="352" type="line"/>
      <point x="217" y="352" type="line"/>
    </contour>
  </outline>
</glyph>
<glyph name="dollar" format="1">
  <advance width="465"/>
  <unicode hex="0024"/>
  <outline>
    <contour>
      <point x="416" y="144" type="curve" smooth="yes"/>
      <point x="416" y="253"/>
      <point x="324" y="279"/>
      <point x="253" y="295" type="curve"/>
      <point x="253" y="484" type="line"/>
      <point x="283" y="482"/>
      <point x="312" y="473"/>
      <point x="341" y="455" type="curve"/>
      <point x="352" y="367" type="line"/>
      <point x="398" y="370" type="line"/>
      <point x="393" y="482" type="line"/>
      <point x="359" y="505"/>
      <point x="314" y="523"/>
      <point x="253" y="528" type="curve"/>
      <point x="253" y="593" type="line"/>
      <point x="217" y="593" type="line"/>
      <point x="217" y="529" type="line"/>
      <point x="126" y="526"/>
      <point x="56" y="478"/>
      <point x="56" y="388" type="curve" smooth="yes"/>
      <point x="56" y="289"/>
      <point x="139" y="269"/>
      <point x="217" y="252" type="curve"/>
      <point x="217" y="38" type="line"/>
      <point x="179" y="41"/>
      <point x="138" y="54"/>
      <point x="106" y="69" type="curve"/>
      <point x="115" y="146" type="line"/>
      <point x="68" y="150" type="line"/>
      <point x="51" y="41" type="line"/>
      <point x="82" y="21"/>
      <point x="143" y="-3"/>
      <point x="217" y="-7" type="curve"/>
      <point x="217" y="-65" type="line"/>
      <point x="253" y="-65" type="line"/>
      <point x="253" y="-7" type="line"/>
      <point x="349" y="-3"/>
      <point x="416" y="51"/>
    </contour>
    <contour>
      <point x="358" y="139" type="curve" smooth="yes"/>
      <point x="358" y="73"/>
      <point x="313" y="44"/>
      <point x="253" y="39" type="curve"/>
      <point x="253" y="243" type="line"/>
      <point x="312" y="227"/>
      <point x="358" y="204"/>
    </contour>
    <contour>
      <point x="114" y="394" type="curve" smooth="yes"/>
      <point x="114" y="447"/>
      <point x="151" y="480"/>
      <point x="217" y="484" type="curve"/>
      <point x="217" y="303" type="line"/>
      <point x="160" y="316"/>
      <point x="114" y="333"/>
    </contour>
  </outline>
</glyph>
<glyph name="ampersand" format="1">
  <advance width="738"/>
  <unicode hex="0026"/>
  <outline>
    <contour>
      <point x="425" y="356" type="line"/>
      <point x="712" y="356" type="line"/>
      <point x="712" y="307" type="line"/>
      <point x="596" y="307" type="line"/>
      <point x="570" y="241"/>
      <point x="522" y="157"/>
      <point x="455" y="91" type="curve"/>
      <point x="504" y="62"/>
      <point x="554" y="44"/>
      <point x="604" y="44" type="curve" smooth="yes"/>
      <point x="636" y="44"/>
      <point x="664" y="52"/>
      <point x="689" y="67" type="curve"/>
      <point x="703" y="19" type="line"/>
      <point x="670" y="-1"/>
      <point x="636" y="-10"/>
      <point x="596" y="-10" type="curve" smooth="yes"/>
      <point x="534" y="-10"/>
      <point x="470" y="14"/>
      <point x="411" y="53" type="curve"/>
      <point x="361" y="15"/>
      <point x="303" y="-10"/>
      <point x="239" y="-10" type="curve" smooth="yes"/>
      <point x="141" y="-10"/>
      <point x="53" y="49"/>
      <point x="53" y="155" type="curve" smooth="yes"/>
      <point x="53" y="241"/>
      <point x="112" y="287"/>
      <point x="182" y="327" type="curve"/>
      <point x="159" y="380"/>
      <point x="145" y="433"/>
      <point x="145" y="480" type="curve" smooth="yes"/>
      <point x="145" y="587"/>
      <point x="216" y="660"/>
      <point x="321" y="660" type="curve" smooth="yes"/>
      <point x="411" y="660"/>
      <point x="475" y="606"/>
      <point x="475" y="529" type="curve" smooth="yes"/>
      <point x="475" y="424"/>
      <point x="354" y="373"/>
      <point x="248" y="320" type="curve"/>
      <point x="288" y="243"/>
      <point x="350" y="168"/>
      <point x="420" y="115" type="curve"/>
      <point x="475" y="169"/>
      <point x="515" y="242"/>
      <point x="536" y="307" type="curve"/>
      <point x="425" y="307" type="line"/>
    </contour>
    <contour>
      <point x="418" y="526" type="curve" smooth="yes"/>
      <point x="418" y="571"/>
      <point x="384" y="613"/>
      <point x="319" y="613" type="curve" smooth="yes"/>
      <point x="249" y="613"/>
      <point x="202" y="564"/>
      <point x="202" y="485" type="curve" smooth="yes"/>
      <point x="202" y="444"/>
      <point x="213" y="399"/>
      <point x="233" y="353" type="curve"/>
      <point x="321" y="397"/>
      <point x="418" y="447"/>
    </contour>
    <contour>
      <point x="198" y="293" type="curve"/>
      <point x="147" y="263"/>
      <point x="110" y="224"/>
      <point x="110" y="162" type="curve" smooth="yes"/>
      <point x="110" y="78"/>
      <point x="177" y="40"/>
      <point x="252" y="40" type="curve" smooth="yes"/>
      <point x="297" y="40"/>
      <point x="339" y="54"/>
      <point x="375" y="79" type="curve"/>
      <point x="303" y="135"/>
      <point x="240" y="213"/>
    </contour>
  </outline>
</glyph>
<glyph name="parenleft" format="1">
  <advance width="270"/>
  <unicode hex="0028"/>
  <outline>
    <contour>
      <point x="204" y="718" type="curve"/>
      <point x="259" y="718" type="line"/>
      <point x="149" y="578"/>
      <point x="93" y="427"/>
      <point x="93" y="270" type="curve" smooth="yes"/>
      <point x="93" y="115"/>
      <point x="148" y="-45"/>
      <point x="259" y="-183" type="curve"/>
      <point x="202" y="-183" type="line"/>
      <point x="91" y="-36"/>
      <point x="43" y="118"/>
      <point x="43" y="270" type="curve" smooth="yes"/>
      <point x="43" y="424"/>
      <point x="94" y="576"/>
    </contour>
  </outline>
</glyph>
<glyph name="comma" format="1">
  <advance width="195"/>
  <unicode hex="002C"/>
  <outline>
    <contour>
      <point x="29" y="-107" type="line"/>
      <point x="83" y="-107" type="line"/>
      <point x="134" y="105" type="line"/>
      <point x="80" y="105" type="line"/>
    </contour>
  </outline>
</glyph>
<glyph name="slash" format="1">
  <advance width="329"/>
  <unicode hex="002F"/>
  <outline>
    <contour>
      <point x="304" y="688" type="line"/>
      <point x="84" y="0" type="line"/>
      <point x="30" y="0" type="line"/>
      <point x="250" y="688" type="line"/>
    </contour>
  </outline>
</glyph>
<glyph name="two" format="1">
  <advance width="509"/>
  <unicode hex="0032"/>
  <outline>
    <contour>
      <point x="77" y="486" type="curve"/>
      <point x="61" y="387" type="line"/>
      <point x="107" y="381" type="line"/>
      <point x="124" y="456" type="line"/>
      <point x="161" y="472"/>
      <point x="207" y="481"/>
      <point x="236" y="481" type="curve" smooth="yes"/>
      <point x="320" y="481"/>
      <point x="364" y="438"/>
      <point x="364" y="371" type="curve" smooth="yes"/>
      <point x="364" y="267"/>
      <point x="250" y="180"/>
      <point x="52" y="44" type="curve"/>
      <point x="58" y="0" type="line"/>
      <point x="451" y="0" type="line"/>
      <point x="461" y="133" type="line"/>
      <point x="413" y="136" type="line"/>
      <point x="403" y="51" type="line"/>
      <point x="130" y="51" type="line"/>
      <point x="232" y="115"/>
      <point x="424" y="235"/>
      <point x="424" y="375" type="curve" smooth="yes"/>
      <point x="424" y="447"/>
      <point x="376" y="531"/>
      <point x="252" y="531" type="curve" smooth="yes"/>
      <point x="189" y="531"/>
      <point x="117" y="512"/>
    </contour>
  </outline>
</glyph>
<glyph name="three" format="1">
  <advance width="477"/>
  <unicode hex="0033"/>
  <outline>
    <contour>
      <point x="65" y="476" type="curve"/>
      <point x="49" y="377" type="line"/>
      <point x="95" y="371" type="line"/>
      <point x="113" y="454" type="line"/>
      <point x="146" y="471"/>
      <point x="184" y="481"/>
      <point x="213" y="481" type="curve" smooth="yes"/>
      <point x="293" y="481"/>
      <point x="341" y="438"/>
      <point x="341" y="368" type="curve" smooth="yes"/>
      <point x="341" y="304"/>
      <point x="299" y="239"/>
      <point x="170" y="231" type="curve"/>
      <point x="170" y="187" type="line"/>
      <point x="322" y="182"/>
      <point x="369" y="132"/>
      <point x="369" y="50" type="curve" smooth="yes"/>
      <point x="369" y="-21"/>
      <point x="341" y="-92"/>
      <point x="227" y="-92" type="curve" smooth="yes"/>
      <point x="141" y="-92"/>
      <point x="101" y="-49"/>
      <point x="76" y="6" type="curve"/>
      <point x="33" y="-10" type="line"/>
      <point x="53" y="-81"/>
      <point x="111" y="-141"/>
      <point x="229" y="-141" type="curve" smooth="yes"/>
      <point x="358" y="-141"/>
      <point x="429" y="-63"/>
      <point x="429" y="49" type="curve" smooth="yes"/>
      <point x="429" y="123"/>
      <point x="397" y="194"/>
      <point x="271" y="214" type="curve"/>
      <point x="271" y="218" type="line"/>
      <point x="369" y="245"/>
      <point x="400" y="307"/>
      <point x="400" y="372" type="curve" smooth="yes"/>
      <point x="400" y="474"/>
      <point x="326" y="531"/>
      <point x="225" y="531" type="curve" smooth="yes"/>
      <point x="152" y="531"/>
      <point x="91" y="499"/>
    </contour>
  </outline>
</glyph>
<glyph name="four" format="1">
  <advance width="531"/>
  <unicode hex="0034"/>
  <outline>
    <contour>
      <point x="397" y="-131" type="line"/>
      <point x="397" y="35" type="line"/>
      <point x="496" y="35" type="line"/>
      <point x="504" y="84" type="line"/>
      <point x="397" y="84" type="line"/>
      <point x="397" y="521" type="line"/>
      <point x="263" y="521" type="line"/>
      <point x="20" y="84" type="line"/>
      <point x="27" y="35" type="line"/>
      <point x="341" y="35" type="line"/>
      <point x="341" y="-131" type="line"/>
    </contour>
    <contour>
      <point x="341" y="84" type="line"/>
      <point x="76" y="84" type="line"/>
      <point x="289" y="471" type="line"/>
      <point x="341" y="471" type="line"/>
    </contour>
  </outline>
</glyph>
<glyph name="seven" format="1">
  <advance width="464"/>
  <unicode hex="0037"/>
  <outline>
    <contour>
      <point x="446" y="484" type="line"/>
      <point x="437" y="521" type="line"/>
      <point x="37" y="521" type="line"/>
      <point x="37" y="360" type="line"/>
      <point x="89" y="360" type="line"/>
      <point x="89" y="471" type="line"/>
      <point x="386" y="471" type="line"/>
      <point x="137" y="-130" type="line"/>
      <point x="194" y="-130" type="line"/>
    </contour>
  </outline>
</glyph>
<glyph name="less" format="1">
  <advance width="410"/>
  <unicode hex="003C"/>
  <outline>
    <contour>
      <point x="350" y="14" type="line"/>
      <point x="350" y="69" type="line"/>
      <point x="94" y="280" type="line"/>
      <point x="349" y="494" type="line"/>
      <point x="349" y="549" type="line"/>
      <point x="31" y="286" type="line"/>
      <point x="31" y="272" type="line"/>
    </contour>
  </outline>
</glyph>
<glyph name="equal" format="1">
  <advance width="587"/>
  <unicode hex="003D"/>
  <outline>
    <contour>
      <point x="65" y="369" type="line"/>
      <point x="522" y="369" type="line"/>
      <point x="522" y="413" type="line"/>
      <point x="65" y="413" type="line"/>
    </contour>
    <contour>
      <point x="65" y="149" type="line"/>
      <point x="522" y="149" type="line"/>
      <point x="522" y="192" type="line"/>
      <point x="65" y="192" type="line"/>
    </contour>
  </outline>
</glyph>
<glyph name="question" format="1">
  <advance width="437"/>
  <unicode hex="003F"/>
  <outline>
    <contour>
      <point x="98" y="461" type="line"/>
      <point x="111" y="564" type="line"/>
      <point x="143" y="593"/>
      <point x="179" y="609"/>
      <point x="226" y="609" type="curve" smooth="yes"/>
      <point x="306" y="609"/>
      <point x="346" y="569"/>
      <point x="346" y="521" type="curve" smooth="yes"/>
      <point x="346" y="409"/>
      <point x="141" y="375"/>
      <point x="141" y="258" type="curve" smooth="yes"/>
      <point x="141" y="213"/>
      <point x="171" y="172"/>
      <point x="255" y="175" type="curve"/>
      <point x="255" y="217" type="line"/>
      <point x="217" y="217"/>
      <point x="199" y="233"/>
      <point x="199" y="261" type="curve" smooth="yes"/>
      <point x="199" y="355"/>
      <point x="406" y="394"/>
      <point x="406" y="528" type="curve" smooth="yes"/>
      <point x="406" y="610"/>
      <point x="325" y="660"/>
      <point x="227" y="660" type="curve" smooth="yes"/>
      <point x="154" y="660"/>
      <point x="87" y="619"/>
      <point x="57" y="576" type="curve"/>
      <point x="52" y="464" type="line"/>
    </contour>
    <contour>
      <point x="171" y="0" type="line"/>
      <point x="244" y="0" type="line"/>
      <point x="244" y="84" type="line"/>
      <point x="171" y="84" type="line"/>
    </contour>
  </outline>
</glyph>
<glyph name="A" format="1">
  <advance width="638"/>
  <unicode hex="0041"/>
  <outline>
    <contour>
      <point x="646" y="0" type="line"/>
      <point x="646" y="51" type="line"/>
      <point x="580" y="51" type="line"/>
      <point x="347" y="650" type="line"/>
      <point x="172" y="650" type="line"/>
      <point x="172" y="599" type="line"/>
      <point x="279" y="599" type="line"/>
      <point x="59" y="51" type="line"/>
      <point x="-2" y="51" type="line"/>
      <point x="-2" y="0" type="line"/>
      <point x="220" y="0" type="line"/>
      <point x="220" y="51" type="line"/>
      <point x="117" y="51" type="line"/>
      <point x="173" y="192" type="line"/>
      <point x="466" y="192" type="line"/>
      <point x="519" y="51" type="line"/>
      <point x="423" y="51" type="line"/>
      <point x="423" y="0" type="line"/>
    </contour>
    <contour>
      <point x="449" y="238" type="line"/>
      <point x="191" y="238" type="line"/>
      <point x="320" y="566" type="line"/>
      <point x="325" y="566" type="line"/>
    </contour>
  </outline>
</glyph>
<glyph name="D" format="1">
  <advance width="707"/>
  <unicode hex="0044"/>
  <outline>
    <contour>
      <point x="663" y="325" type="curve" smooth="yes"/>
      <point x="663" y="512"/>
      <point x="541" y="650"/>
      <point x="332" y="650" type="curve" smooth="yes"/>
      <point x="43" y="650" type="line"/>
      <point x="43" y="600" type="line"/>
      <point x="128" y="600" type="line"/>
      <point x="128" y="50" type="line"/>
      <point x="43" y="50" type="line"/>
      <point x="43" y="0" type="line"/>
      <point x="334" y="0" type="line" smooth="yes"/>
      <point x="539" y="0"/>
      <point x="663" y="136"/>
    </contour>
    <contour>
      <point x="602" y="325" type="curve" smooth="yes"/>
      <point x="602" y="161"/>
      <point x="507" y="50"/>
      <point x="331" y="50" type="curve" smooth="yes"/>
      <point x="185" y="50" type="line"/>
      <point x="185" y="600" type="line"/>
      <point x="331" y="600" type="line" smooth="yes"/>
      <point x="507" y="600"/>
      <point x="602" y="486"/>
    </contour>
  </outline>
</glyph>
<glyph name="F" format="1">
  <advance width="556"/>
  <unicode hex="0046"/>
  <outline>
    <contour>
      <point x="532" y="466" type="line"/>
      <point x="511" y="650" type="line"/>
      <point x="43" y="650" type="line"/>
      <point x="43" y="599" type="line"/>
      <point x="128" y="599" type="line"/>
      <point x="128" y="51" type="line"/>
      <point x="43" y="51" type="line"/>
      <point x="43" y="0" type="line"/>
      <point x="302" y="0" type="line"/>
      <point x="302" y="51" type="line"/>
      <point x="185" y="51" type="line"/>
      <point x="185" y="277" type="line"/>
      <point x="491" y="277" type="line"/>
      <point x="491" y="328" type="line"/>
      <point x="185" y="328" type="line"/>
      <point x="185" y="599" type="line"/>
      <point x="459" y="599" type="line"/>
      <point x="479" y="460" type="line"/>
    </contour>
  </outline>
</glyph>
<glyph name="H" format="1">
  <advance width="754"/>
  <unicode hex="0048"/>
  <outline>
    <contour>
      <point x="710" y="0" type="line"/>
      <point x="710" y="51" type="line"/>
      <point x="626" y="51" type="line"/>
      <point x="626" y="599" type="line"/>
      <point x="710" y="599" type="line"/>
      <point x="710" y="650" type="line"/>
      <point x="483" y="650" type="line"/>
      <point x="483" y="599" type="line"/>
      <point x="568" y="599" type="line"/>
      <point x="568" y="356" type="line"/>
      <point x="185" y="356" type="line"/>
      <point x="185" y="599" type="line"/>
      <point x="270" y="599" type="line"/>
      <point x="270" y="650" type="line"/>
      <point x="43" y="650" type="line"/>
      <point x="43" y="599" type="line"/>
      <point x="128" y="599" type="line"/>
      <point x="128" y="51" type="line"/>
      <point x="43" y="51" type="line"/>
      <point x="43" y="0" type="line"/>
      <point x="270" y="0" type="line"/>
      <point x="270" y="51" type="line"/>
      <point x="185" y="51" type="line"/>
      <point x="185" y="307" type="line"/>
      <point x="568" y="307" type="line"/>
      <point x="568" y="51" type="line"/>
      <point x="483" y="51" type="line"/>
      <point x="483" y="0" type="line"/>
    </contour>
  </outline>
</glyph>
<glyph name="I" format="1">
  <advance width="314"/>
  <unicode hex="0049"/>
  <outline>
    <contour>
      <point x="270" y="0" type="line"/>
      <point x="270" y="51" type="line"/>
      <point x="186" y="51" type="line"/>
      <point x="186" y="599" type="line"/>
      <point x="270" y="599" type="line"/>
      <point x="270" y="650" type="line"/>
      <point x="43" y="650" type="line"/>
      <point x="43" y="599" type="line"/>
      <point x="128" y="599" type="line"/>
      <point x="128" y="51" type="line"/>
      <point x="43" y="51" type="line"/>
      <point x="43" y="0" type="line"/>
    </contour>
  </outline>
</glyph>
<glyph name="K" format="1">
  <advance width="633"/>
  <unicode hex="004B"/>
  <outline>
    <contour>
      <point x="627" y="0" type="line"/>
      <point x="627" y="51" type="line"/>
      <point x="553" y="51" type="line"/>
      <point x="345" y="337" type="line"/>
      <point x="540" y="600" type="line"/>
      <point x="615" y="600" type="line"/>
      <point x="615" y="651" type="line"/>
      <point x="397" y="651" type="line"/>
      <point x="397" y="600" type="line"/>
      <point x="479" y="600" type="line"/>
      <point x="299" y="356" type="line"/>
      <point x="186" y="356" type="line"/>
      <point x="186" y="599" type="line"/>
      <point x="267" y="599" type="line"/>
      <point x="267" y="650" type="line"/>
      <point x="43" y="650" type="line"/>
      <point x="43" y="599" type="line"/>
      <point x="128" y="599" type="line"/>
      <point x="128" y="51" type="line"/>
      <point x="43" y="51" type="line"/>
      <point x="43" y="0" type="line"/>
      <point x="266" y="0" type="line"/>
      <point x="266" y="51" type="line"/>
      <point x="186" y="51" type="line"/>
      <point x="186" y="306" type="line"/>
      <point x="301" y="306" type="line"/>
      <point x="487" y="51" type="line"/>
      <point x="406" y="51" type="line"/>
      <point x="406" y="0" type="line"/>
    </contour>
  </outline>
</glyph>
<glyph name="M" format="1">
  <advance width="877"/>
  <unicode hex="004D"/>
  <outline>
    <contour>
      <point x="835" y="599" type="line"/>
      <point x="835" y="650" type="line"/>
      <point x="697" y="650" type="line"/>
      <point x="443" y="113" type="line"/>
      <point x="439" y="113" type="line"/>
      <point x="180" y="650" type="line"/>
      <point x="42" y="650" type="line"/>
      <point x="42" y="599" type="line"/>
      <point x="129" y="599" type="line"/>
      <point x="129" y="51" type="line"/>
      <point x="44" y="51" type="line"/>
      <point x="44" y="0" type="line"/>
      <point x="266" y="0" type="line"/>
      <point x="266" y="51" type="line"/>
      <point x="184" y="51" type="line"/>
      <point x="184" y="510" type="line"/>
      <point x="188" y="510" type="line"/>
      <point x="421" y="28" type="line"/>
      <point x="456" y="28" type="line"/>
      <point x="687" y="509" type="line"/>
      <point x="691" y="509" type="line"/>
      <point x="691" y="51" type="line"/>
      <point x="610" y="51" type="line"/>
      <point x="610" y="0" type="line"/>
      <point x="833" y="0" type="line"/>
      <point x="833" y="51" type="line"/>
      <point x="748" y="51" type="line"/>
      <point x="748" y="599" type="line"/>
    </contour>
  </outline>
</glyph>
<glyph name="Q" format="1">
  <advance width="741"/>
  <unicode hex="0051"/>
  <outline>
    <contour>
      <point x="690" y="325" type="curve" smooth="yes"/>
      <point x="690" y="510"/>
      <point x="558" y="660"/>
      <point x="366" y="660" type="curve" smooth="yes"/>
      <point x="177" y="660"/>
      <point x="43" y="511"/>
      <point x="43" y="325" type="curve" smooth="yes"/>
      <point x="43" y="141"/>
      <point x="173" y="-10"/>
      <point x="365" y="-10" type="curve" smooth="yes"/>
      <point x="440" y="-10"/>
      <point x="506" y="13"/>
      <point x="558" y="52" type="curve"/>
      <point x="639" y="-29" type="line"/>
      <point x="675" y="7" type="line"/>
      <point x="597" y="86" type="line"/>
      <point x="655" y="147"/>
      <point x="690" y="231"/>
    </contour>
    <contour>
      <point x="629" y="324" type="curve" smooth="yes"/>
      <point x="629" y="246"/>
      <point x="604" y="175"/>
      <point x="559" y="124" type="curve"/>
      <point x="431" y="254" type="line"/>
      <point x="394" y="218" type="line"/>
      <point x="521" y="90" type="line"/>
      <point x="479" y="59"/>
      <point x="427" y="42"/>
      <point x="367" y="42" type="curve" smooth="yes"/>
      <point x="204" y="42"/>
      <point x="104" y="171"/>
      <point x="104" y="326" type="curve" smooth="yes"/>
      <point x="104" y="482"/>
      <point x="205" y="608"/>
      <point x="366" y="608" type="curve" smooth="yes"/>
      <point x="525" y="608"/>
      <point x="629" y="485"/>
    </contour>
  </outline>
</glyph>
<glyph name="U" format="1">
  <advance width="718"/>
  <unicode hex="0055"/>
  <outline>
    <contour>
      <point x="677" y="599" type="line"/>
      <point x="677" y="650" type="line"/>
      <point x="461" y="650" type="line"/>
      <point x="461" y="599" type="line"/>
      <point x="558" y="599" type="line"/>
      <point x="558" y="266" type="line" smooth="yes"/>
      <point x="558" y="116"/>
      <point x="486" y="42"/>
      <point x="360" y="42" type="curve" smooth="yes"/>
      <point x="230" y="42"/>
      <point x="165" y="119"/>
      <point x="165" y="257" type="curve" smooth="yes"/>
      <point x="165" y="599" type="line"/>
      <point x="259" y="599" type="line"/>
      <point x="259" y="650" type="line"/>
      <point x="38" y="650" type="line"/>
      <point x="38" y="599" type="line"/>
      <point x="108" y="599" type="line"/>
      <point x="108" y="255" type="line" smooth="yes"/>
      <point x="108" y="115"/>
      <point x="165" y="-10"/>
      <point x="357" y="-10" type="curve" smooth="yes"/>
      <point x="555" y="-10"/>
      <point x="613" y="128"/>
      <point x="613" y="266" type="curve" smooth="yes"/>
      <point x="613" y="599" type="line"/>
    </contour>
  </outline>
</glyph>
<glyph name="V" format="1">
  <advance width="638"/>
  <unicode hex="0056"/>
  <outline>
    <contour>
      <point x="641" y="599" type="line"/>
      <point x="641" y="650" type="line"/>
      <point x="420" y="650" type="line"/>
      <point x="420" y="599" type="line"/>
      <point x="521" y="599" type="line"/>
      <point x="325" y="82" type="line"/>
      <point x="320" y="82" type="line"/>
      <point x="120" y="599" type="line"/>
      <point x="219" y="599" type="line"/>
      <point x="219" y="650" type="line"/>
      <point x="-6" y="650" type="line"/>
      <point x="-6" y="599" type="line"/>
      <point x="58" y="599" type="line"/>
      <point x="295" y="0" type="line"/>
      <point x="344" y="0" type="line"/>
      <point x="580" y="599" type="line"/>
    </contour>
  </outline>
</glyph>
<glyph name="X" format="1">
  <advance width="623"/>
  <unicode hex="0058"/>
  <outline>
    <contour>
      <point x="616" y="0" type="line"/>
      <point x="616" y="51" type="line"/>
      <point x="553" y="51" type="line"/>
      <point x="340" y="338" type="line"/>
      <point x="532" y="599" type="line"/>
      <point x="608" y="599" type="line"/>
      <point x="608" y="650" type="line"/>
      <point x="397" y="650" type="line"/>
      <point x="397" y="599" type="line"/>
      <point x="468" y="599" type="line"/>
      <point x="311" y="377" type="line"/>
      <point x="147" y="599" type="line"/>
      <point x="227" y="599" type="line"/>
      <point x="227" y="650" type="line"/>
      <point x="16" y="650" type="line"/>
      <point x="16" y="599" type="line"/>
      <point x="82" y="599" type="line"/>
      <point x="279" y="337" type="line"/>
      <point x="72" y="51" type="line"/>
      <point x="6" y="51" type="line"/>
      <point x="6" y="0" type="line"/>
      <point x="217" y="0" type="line"/>
      <point x="217" y="51" type="line"/>
      <point x="134" y="51" type="line"/>
      <point x="308" y="297" type="line"/>
      <point x="489" y="51" type="line"/>
      <point x="399" y="51" type="line"/>
      <point x="399" y="0" type="line"/>
    </contour>
  </outline>
</glyph>
<glyph name="b" format="1">
  <advance width="529"/>
  <unicode hex="0062"/>
  <outline>
    <contour>
      <point x="487" y="233" type="curve" smooth="yes"/>
      <point x="487" y="374"/>
      <point x="407" y="453"/>
      <point x="297" y="453" type="curve" smooth="yes"/>
      <point x="211" y="453"/>
      <point x="164" y="405"/>
      <point x="136" y="350" type="curve"/>
      <point x="136" y="688" type="line"/>
      <point x="0" y="688" type="line"/>
      <point x="0" y="642" type="line"/>
      <point x="81" y="642" type="line"/>
      <point x="81" y="127" type="line" smooth="yes"/>
      <point x="81" y="84"/>
      <point x="73" y="37"/>
      <point x="68" y="0" type="curve"/>
      <point x="123" y="0" type="line"/>
      <point x="132" y="76" type="line"/>
      <point x="161" y="20"/>
      <point x="222" y="-10"/>
      <point x="291" y="-10" type="curve" smooth="yes"/>
      <point x="434" y="-10"/>
      <point x="487" y="120"/>
    </contour>
    <contour>
      <point x="429" y="228" type="curve" smooth="yes"/>
      <point x="429" y="136"/>
      <point x="389" y="39"/>
      <point x="281" y="39" type="curve" smooth="yes"/>
      <point x="202" y="39"/>
      <point x="136" y="99"/>
      <point x="136" y="174" type="curve" smooth="yes"/>
      <point x="136" y="256" type="line"/>
      <point x="139" y="322"/>
      <point x="197" y="404"/>
      <point x="286" y="404" type="curve" smooth="yes"/>
      <point x="365" y="404"/>
      <point x="429" y="345"/>
    </contour>
    <contour>
      <point x="262" y="566" type="move" name="top"/>
    </contour>
  </outline>
</glyph>
<glyph name="h" format="1">
  <advance width="555"/>
  <unicode hex="0068"/>
  <outline>
    <contour>
      <point x="547" y="0" type="line"/>
      <point x="547" y="46" type="line"/>
      <point x="465" y="46" type="line"/>
      <point x="465" y="280" type="line" smooth="yes"/>
      <point x="465" y="401"/>
      <point x="401" y="453"/>
      <point x="313" y="453" type="curve" smooth="yes"/>
      <point x="240" y="453"/>
      <point x="185" y="417"/>
      <point x="154" y="360" type="curve"/>
      <point x="154" y="688" type="line"/>
      <point x="17" y="688" type="line"/>
      <point x="17" y="642" type="line"/>
      <point x="99" y="642" type="line"/>
      <point x="99" y="46" type="line"/>
      <point x="17" y="46" type="line"/>
      <point x="17" y="0" type="line"/>
      <point x="236" y="0" type="line"/>
      <point x="236" y="46" type="line"/>
      <point x="154" y="46" type="line"/>
      <point x="154" y="268" type="line"/>
      <point x="157" y="335"/>
      <point x="215" y="404"/>
      <point x="297" y="404" type="curve" smooth="yes"/>
      <point x="362" y="404"/>
      <point x="410" y="368"/>
      <point x="410" y="267" type="curve" smooth="yes"/>
      <point x="410" y="46" type="line"/>
      <point x="327" y="46" type="line"/>
      <point x="327" y="0" type="line"/>
    </contour>
    <contour>
      <point x="276" y="566" type="move" name="top"/>
    </contour>
  </outline>
</glyph>
<glyph name="i" format="1">
  <advance width="275"/>
  <unicode hex="0069"/>
  <outline>
    <contour>
      <point x="254" y="0" type="line"/>
      <point x="254" y="46" type="line"/>
      <point x="172" y="46" type="line"/>
      <point x="172" y="444" type="line"/>
      <point x="33" y="444" type="line"/>
      <point x="33" y="397" type="line"/>
      <point x="117" y="397" type="line"/>
      <point x="117" y="46" type="line"/>
      <point x="34" y="46" type="line"/>
      <point x="34" y="0" type="line"/>
    </contour>
    <contour>
      <point x="110" y="568" type="line"/>
      <point x="172" y="568" type="line"/>
      <point x="172" y="647" type="line"/>
      <point x="110" y="647" type="line"/>
    </contour>
    <contour>
      <point x="299" y="566" type="move" name="top"/>
    </contour>
  </outline>
</glyph>
<glyph name="p" format="1">
  <advance width="544"/>
  <unicode hex="0070"/>
  <outline>
    <contour>
      <point x="502" y="235" type="curve" smooth="yes"/>
      <point x="502" y="372"/>
      <point x="424" y="453"/>
      <point x="310" y="453" type="curve" smooth="yes"/>
      <point x="228" y="453"/>
      <point x="179" y="403"/>
      <point x="151" y="349" type="curve"/>
      <point x="151" y="444" type="line"/>
      <point x="12" y="444" type="line"/>
      <point x="12" y="397" type="line"/>
      <point x="96" y="397" type="line"/>
      <point x="96" y="-167" type="line"/>
      <point x="13" y="-167" type="line"/>
      <point x="13" y="-213" type="line"/>
      <point x="260" y="-213" type="line"/>
      <point x="260" y="-167" type="line"/>
      <point x="151" y="-167" type="line"/>
      <point x="151" y="67" type="line"/>
      <point x="181" y="16"/>
      <point x="238" y="-10"/>
      <point x="300" y="-10" type="curve" smooth="yes"/>
      <point x="447" y="-10"/>
      <point x="502" y="119"/>
    </contour>
    <contour>
      <point x="444" y="230" type="curve" smooth="yes"/>
      <point x="444" y="134"/>
      <point x="402" y="39"/>
      <point x="291" y="39" type="curve" smooth="yes"/>
      <point x="214" y="39"/>
      <point x="151" y="99"/>
      <point x="151" y="174" type="curve" smooth="yes"/>
      <point x="151" y="253" type="line"/>
      <point x="154" y="319"/>
      <point x="217" y="404"/>
      <point x="300" y="404" type="curve" smooth="yes"/>
      <point x="382" y="404"/>
      <point x="444" y="343"/>
    </contour>
    <contour>
      <point x="283" y="566" type="move" name="top"/>
    </contour>
  </outline>
</glyph>
<glyph name="q" format="1">
  <advance width="530"/>
  <unicode hex="0071"/>
  <outline>
    <contour>
      <point x="520" y="-213" type="line"/>
      <point x="520" y="-167" type="line"/>
      <point x="449" y="-167" type="line"/>
      <point x="449" y="311" type="line" smooth="yes"/>
      <point x="449" y="355"/>
      <point x="455" y="399"/>
      <point x="463" y="444" type="curve"/>
      <point x="408" y="444" type="line"/>
      <point x="403" y="417"/>
      <point x="401" y="391"/>
      <point x="399" y="365" type="curve"/>
      <point x="370" y="422"/>
      <point x="307" y="453"/>
      <point x="238" y="453" type="curve" smooth="yes"/>
      <point x="96" y="453"/>
      <point x="42" y="322"/>
      <point x="42" y="209" type="curve" smooth="yes"/>
      <point x="42" y="68"/>
      <point x="124" y="-10"/>
      <point x="233" y="-10" type="curve" smooth="yes"/>
      <point x="318" y="-10"/>
      <point x="366" y="38"/>
      <point x="394" y="93" type="curve"/>
      <point x="394" y="-167" type="line"/>
      <point x="284" y="-167" type="line"/>
      <point x="284" y="-213" type="line"/>
    </contour>
    <contour>
      <point x="394" y="189" type="line"/>
      <point x="391" y="122"/>
      <point x="331" y="39"/>
      <point x="243" y="39" type="curve" smooth="yes"/>
      <point x="164" y="39"/>
      <point x="101" y="97"/>
      <point x="101" y="215" type="curve" smooth="yes"/>
      <point x="101" y="307"/>
      <point x="140" y="404"/>
      <point x="248" y="404" type="curve" smooth="yes"/>
      <point x="327" y="404"/>
      <point x="394" y="346"/>
      <point x="394" y="271" type="curve" smooth="yes"/>
    </contour>
  </outline>
</glyph>
<glyph name="r" format="1">
  <advance width="414"/>
  <unicode hex="0072"/>
  <outline>
    <contour>
      <point x="276" y="452" type="curve" smooth="yes"/>
      <point x="228" y="452"/>
      <point x="183" y="415"/>
      <point x="165" y="365" type="curve"/>
      <point x="165" y="444" type="line"/>
      <point x="29" y="444" type="line"/>
      <point x="29" y="397" type="line"/>
      <point x="113" y="397" type="line"/>
      <point x="113" y="46" type="line"/>
      <point x="30" y="46" type="line"/>
      <point x="30" y="0" type="line"/>
      <point x="277" y="0" type="line"/>
      <point x="277" y="46" type="line"/>
      <point x="168" y="46" type="line"/>
      <point x="168" y="273" type="line" smooth="yes"/>
      <point x="168" y="349"/>
      <point x="210" y="404"/>
      <point x="268" y="404" type="curve" smooth="yes"/>
      <point x="280" y="404"/>
      <point x="291" y="403"/>
      <point x="302" y="400" type="curve"/>
      <point x="319" y="324" type="line"/>
      <point x="365" y="330" type="line"/>
      <point x="349" y="429" type="line"/>
      <point x="329" y="447"/>
      <point x="308" y="452"/>
    </contour>
    <contour>
      <point x="300" y="566" type="move" name="top"/>
    </contour>
  </outline>
</glyph>
<glyph name="v" format="1">
  <advance width="504"/>
  <unicode hex="0076"/>
  <outline>
    <contour>
      <point x="495" y="397" type="line"/>
      <point x="495" y="444" type="line"/>
      <point x="302" y="444" type="line"/>
      <point x="302" y="397" type="line"/>
      <point x="383" y="397" type="line"/>
      <point x="260" y="77" type="line"/>
      <point x="254" y="77" type="line"/>
      <point x="121" y="397" type="line"/>
      <point x="207" y="397" type="line"/>
      <point x="207" y="444" type="line"/>
      <point x="8" y="444" type="line"/>
      <point x="8" y="397" type="line"/>
      <point x="62" y="397" type="line"/>
      <point x="232" y="0" type="line"/>
      <point x="275" y="0" type="line"/>
      <point x="438" y="397" type="line"/>
    </contour>
  </outline>
</glyph>
<glyph name="braceright" format="1">
  <advance width="275"/>
  <unicode hex="007D"/>
  <outline>
    <contour>
      <point x="167" y="271" type="curve"/>
      <point x="100" y="260"/>
      <point x="76" y="226"/>
      <point x="76" y="190" type="curve" smooth="yes"/>
      <point x="76" y="124"/>
      <point x="162" y="-7"/>
      <point x="162" y="-96" type="curve" smooth="yes"/>
      <point x="162" y="-140"/>
      <point x="141" y="-160"/>
      <point x="99" y="-160" type="curve" smooth="yes"/>
      <point x="35" y="-160" type="line"/>
      <point x="35" y="-203" type="line"/>
      <point x="99" y="-203" type="line" smooth="yes"/>
      <point x="167" y="-203"/>
      <point x="209" y="-165"/>
      <point x="209" y="-95" type="curve" smooth="yes"/>
      <point x="209" y="2"/>
      <point x="124" y="130"/>
      <point x="124" y="191" type="curve" smooth="yes"/>
      <point x="124" y="244"/>
      <point x="192" y="254"/>
      <point x="222" y="254" type="curve" smooth="yes"/>
      <point x="241" y="254" type="line"/>
      <point x="241" y="289" type="line"/>
      <point x="222" y="289" type="line" smooth="yes"/>
      <point x="191" y="289"/>
      <point x="124" y="299"/>
      <point x="124" y="352" type="curve" smooth="yes"/>
      <point x="124" y="413"/>
      <point x="209" y="536"/>
      <point x="209" y="633" type="curve" smooth="yes"/>
      <point x="209" y="701"/>
      <point x="168" y="741"/>
      <point x="99" y="741" type="curve" smooth="yes"/>
      <point x="35" y="741" type="line"/>
      <point x="35" y="698" type="line"/>
      <point x="99" y="698" type="line" smooth="yes"/>
      <point x="141" y="698"/>
      <point x="162" y="678"/>
      <point x="162" y="634" type="curve" smooth="yes"/>
      <point x="162" y="546"/>
      <point x="76" y="419"/>
      <point x="76" y="352" type="curve" smooth="yes"/>
      <point x="76" y="316"/>
      <point x="101" y="283"/>
    </contour>
  </outline>
</glyph>
<glyph name="cent" format="1">
  <advance width="470"/>
  <unicode hex="00A2"/>
  <outline>
    <contour>
      <point x="421" y="145" type="curve"/>
      <point x="374" y="156" type="line"/>
      <point x="360" y="88"/>
      <point x="326" y="47"/>
      <point x="264" y="40" type="curve"/>
      <point x="264" y="403" type="line"/>
      <point x="296" y="400"/>
      <point x="322" y="391"/>
      <point x="345" y="375" type="curve"/>
      <point x="362" y="300" type="line"/>
      <point x="408" y="306" type="line"/>
      <point x="392" y="405" type="line"/>
      <point x="355" y="436"/>
      <point x="314" y="449"/>
      <point x="264" y="452" type="curve"/>
      <point x="264" y="529" type="line"/>
      <point x="224" y="529" type="line"/>
      <point x="224" y="452" type="line"/>
      <point x="97" y="441"/>
      <point x="42" y="323"/>
      <point x="42" y="215" type="curve" smooth="yes"/>
      <point x="42" y="81"/>
      <point x="111" y="-3"/>
      <point x="224" y="-9" type="curve"/>
      <point x="224" y="-84" type="line"/>
      <point x="264" y="-84" type="line"/>
      <point x="264" y="-8" type="line"/>
      <point x="362" y="2"/>
      <point x="409" y="74"/>
    </contour>
    <contour>
      <point x="101" y="219" type="curve" smooth="yes"/>
      <point x="101" y="309"/>
      <point x="132" y="393"/>
      <point x="224" y="403" type="curve"/>
      <point x="224" y="40" type="line"/>
      <point x="144" y="49"/>
      <point x="101" y="115"/>
    </contour>
  </outline>
</glyph>
<glyph name="sterling" format="1">
  <advance width="513"/>
  <unicode hex="00A3"/>
  <outline>
    <contour>
      <point x="459" y="83" type="curve"/>
      <point x="428" y="109" type="line"/>
      <point x="407" y="77"/>
      <point x="378" y="45"/>
      <point x="318" y="45" type="curve" smooth="yes"/>
      <point x="110" y="45" type="line"/>
      <point x="165" y="79"/>
      <point x="177" y="144"/>
      <point x="177" y="241" type="curve"/>
      <point x="366" y="241" type="line"/>
      <point x="366" y="279" type="line"/>
      <point x="177" y="279" type="line"/>
      <point x="177" y="335" type="line" smooth="yes"/>
      <point x="177" y="448"/>
      <point x="226" y="484"/>
      <point x="288" y="484" type="curve" smooth="yes"/>
      <point x="322" y="484"/>
      <point x="346" y="479"/>
      <point x="370" y="465" type="curve"/>
      <point x="389" y="370" type="line"/>
      <point x="437" y="376" type="line"/>
      <point x="419" y="493" type="line"/>
      <point x="384" y="514"/>
      <point x="355" y="529"/>
      <point x="279" y="529" type="curve" smooth="yes"/>
      <point x="200" y="529"/>
      <point x="122" y="476"/>
      <point x="122" y="334" type="curve" smooth="yes"/>
      <point x="122" y="279" type="line"/>
      <point x="52" y="279" type="line"/>
      <point x="52" y="241" type="line"/>
      <point x="122" y="241" type="line"/>
      <point x="122" y="131"/>
      <point x="108" y="72"/>
      <point x="43" y="43" type="curve"/>
      <point x="43" y="0" type="line"/>
      <point x="330" y="0" type="line" smooth="yes"/>
      <point x="402" y="0"/>
      <point x="445" y="57"/>
    </contour>
  </outline>
</glyph>
<glyph name="currency" format="1">
  <advance width="524"/>
  <unicode hex="00A4"/>
  <outline>
    <contour>
      <point x="111" y="271" type="curve" smooth="yes"/>
      <point x="111" y="237"/>
      <point x="122" y="206"/>
      <point x="141" y="180" type="curve"/>
      <point x="43" y="82" type="line"/>
      <point x="68" y="56" type="line"/>
      <point x="167" y="154" type="line"/>
      <point x="193" y="133"/>
      <point x="226" y="120"/>
      <point x="262" y="120" type="curve" smooth="yes"/>
      <point x="297" y="120"/>
      <point x="330" y="132"/>
      <point x="356" y="153" type="curve"/>
      <point x="454" y="56" type="line"/>
      <point x="480" y="82" type="line"/>
      <point x="382" y="180" type="line"/>
      <point x="401" y="205"/>
      <point x="413" y="237"/>
      <point x="413" y="271" type="curve" smooth="yes"/>
      <point x="413" y="305"/>
      <point x="401" y="336"/>
      <point x="382" y="361" type="curve"/>
      <point x="480" y="459" type="line"/>
      <point x="454" y="485" type="line"/>
      <point x="356" y="388" type="line"/>
      <point x="330" y="409"/>
      <point x="297" y="422"/>
      <point x="262" y="422" type="curve" smooth="yes"/>
      <point x="226" y="422"/>
      <point x="192" y="409"/>
      <point x="166" y="387" type="curve"/>
      <point x="68" y="485" type="line"/>
      <point x="43" y="459" type="line"/>
      <point x="141" y="361" type="line"/>
      <point x="122" y="336"/>
      <point x="111" y="304"/>
    </contour>
    <contour>
      <point x="159" y="271" type="curve" smooth="yes"/>
      <point x="159" y="336"/>
      <point x="207" y="377"/>
      <point x="263" y="377" type="curve" smooth="yes"/>
      <point x="319" y="377"/>
      <point x="364" y="335"/>
      <point x="364" y="271" type="curve" smooth="yes"/>
      <point x="364" y="207"/>
      <point x="319" y="166"/>
      <point x="263" y="166" type="curve" smooth="yes"/>
      <point x="206" y="166"/>
      <point x="159" y="207"/>
    </contour>
  </outline>
</glyph>
<glyph name="yen" format="1">
  <advance width="585"/>
  <unicode hex="00A5"/>
  <outline>
    <contour>
      <point x="230" y="476" type="line"/>
      <point x="151" y="476" type="line"/>
      <point x="296" y="246" type="line"/>
      <point x="301" y="246" type="line"/>
      <point x="440" y="476" type="line"/>
      <point x="361" y="476" type="line"/>
      <point x="361" y="521" type="line"/>
      <point x="549" y="521" type="line"/>
      <point x="549" y="476" type="line"/>
      <point x="495" y="476" type="line"/>
      <point x="349" y="239" type="line"/>
      <point x="460" y="239" type="line"/>
      <point x="460" y="203" type="line"/>
      <point x="327" y="203" type="line"/>
      <point x="323" y="196" type="line"/>
      <point x="323" y="142" type="line"/>
      <point x="460" y="142" type="line"/>
      <point x="460" y="107" type="line"/>
      <point x="323" y="107" type="line"/>
      <point x="323" y="45" type="line"/>
      <point x="421" y="45" type="line"/>
      <point x="421" y="0" type="line"/>
      <point x="173" y="0" type="line"/>
      <point x="173" y="45" type="line"/>
      <point x="268" y="45" type="line"/>
      <point x="268" y="107" type="line"/>
      <point x="130" y="107" type="line"/>
      <point x="130" y="142" type="line"/>
      <point x="268" y="142" type="line"/>
      <point x="268" y="200" type="line"/>
      <point x="266" y="203" type="line"/>
      <point x="130" y="203" type="line"/>
      <point x="130" y="239" type="line"/>
      <point x="243" y="239" type="line"/>
      <point x="90" y="476" type="line"/>
      <point x="35" y="476" type="line"/>
      <point x="35" y="521" type="line"/>
      <point x="230" y="521" type="line"/>
    </contour>
  </outline>
</glyph>
<glyph name="brokenbar" format="1">
  <advance width="225"/>
  <unicode hex="00A6"/>
  <outline>
    <contour>
      <point x="138" y="730" type="line"/>
      <point x="138" y="426" type="line"/>
      <point x="87" y="426" type="line"/>
      <point x="87" y="730" type="line"/>
    </contour>
    <contour>
      <point x="138" y="224" type="line"/>
      <point x="138" y="-80" type="line"/>
      <point x="87" y="-80" type="line"/>
      <point x="87" y="224" type="line"/>
    </contour>
  </outline>
</glyph>
<glyph name="section" format="1">
  <advance width="578"/>
  <unicode hex="00A7"/>
  <outline>
    <contour>
      <point x="495" y="133" type="curve" smooth="yes"/>
      <point x="495" y="165"/>
      <point x="485" y="189"/>
      <point x="467" y="207" type="curve"/>
      <point x="513" y="229"/>
      <point x="540" y="262"/>
      <point x="540" y="304" type="curve" smooth="yes"/>
      <point x="540" y="396"/>
      <point x="408" y="414"/>
      <point x="287" y="435" type="curve" smooth="yes"/>
      <point x="205" y="449"/>
      <point x="139" y="466"/>
      <point x="139" y="529" type="curve" smooth="yes"/>
      <point x="139" y="588"/>
      <point x="197" y="616"/>
      <point x="277" y="616" type="curve" smooth="yes"/>
      <point x="320" y="616"/>
      <point x="368" y="609"/>
      <point x="415" y="588" type="curve"/>
      <point x="426" y="489" type="line"/>
      <point x="473" y="494" type="line"/>
      <point x="467" y="620" type="line"/>
      <point x="412" y="647"/>
      <point x="352" y="660"/>
      <point x="272" y="660" type="curve" smooth="yes"/>
      <point x="168" y="660"/>
      <point x="83" y="614"/>
      <point x="83" y="526" type="curve" smooth="yes"/>
      <point x="83" y="489"/>
      <point x="98" y="463"/>
      <point x="121" y="444" type="curve"/>
      <point x="72" y="425"/>
      <point x="41" y="394"/>
      <point x="41" y="350" type="curve" smooth="yes"/>
      <point x="41" y="264"/>
      <point x="160" y="242"/>
      <point x="266" y="227" type="curve"/>
      <point x="375" y="210"/>
      <point x="439" y="198"/>
      <point x="439" y="129" type="curve" smooth="yes"/>
      <point x="439" y="58"/>
      <point x="370" y="34"/>
      <point x="299" y="34" type="curve" smooth="yes"/>
      <point x="240" y="34"/>
      <point x="184" y="44"/>
      <point x="133" y="70" type="curve"/>
      <point x="137" y="149" type="line"/>
      <point x="90" y="154" type="line"/>
      <point x="79" y="51" type="line"/>
      <point x="132" y="13"/>
      <point x="217" y="-10"/>
      <point x="296" y="-10" type="curve" smooth="yes"/>
      <point x="417" y="-10"/>
      <point x="495" y="41"/>
    </contour>
    <contour>
      <point x="486" y="296" type="curve" smooth="yes"/>
      <point x="486" y="270"/>
      <point x="467" y="251"/>
      <point x="428" y="235" type="curve"/>
      <point x="390" y="252"/>
      <point x="341" y="261"/>
      <point x="287" y="270" type="curve" smooth="yes"/>
      <point x="164" y="291"/>
      <point x="95" y="304"/>
      <point x="95" y="355" type="curve" smooth="yes"/>
      <point x="95" y="385"/>
      <point x="119" y="408"/>
      <point x="157" y="421" type="curve"/>
      <point x="190" y="407"/>
      <point x="229" y="399"/>
      <point x="266" y="393" type="curve" smooth="yes"/>
      <point x="366" y="375"/>
      <point x="486" y="361"/>
    </contour>
  </outline>
</glyph>
<glyph name="copyright" format="1">
  <advance width="632"/>
  <unicode hex="00A9"/>
  <outline>
    <contour>
      <point x="584" y="260" type="curve" smooth="yes"/>
      <point x="584" y="409"/>
      <point x="467" y="529"/>
      <point x="317" y="529" type="curve" smooth="yes"/>
      <point x="166" y="529"/>
      <point x="48" y="409"/>
      <point x="48" y="260" type="curve" smooth="yes"/>
      <point x="48" y="110"/>
      <point x="168" y="-7"/>
      <point x="316" y="-7" type="curve" smooth="yes"/>
      <point x="464" y="-7"/>
      <point x="584" y="111"/>
    </contour>
    <contour>
      <point x="548" y="260" type="curve" smooth="yes"/>
      <point x="548" y="131"/>
      <point x="446" y="27"/>
      <point x="316" y="27" type="curve" smooth="yes"/>
      <point x="184" y="27"/>
      <point x="84" y="130"/>
      <point x="84" y="260" type="curve" smooth="yes"/>
      <point x="84" y="390"/>
      <point x="182" y="494"/>
      <point x="317" y="494" type="curve" smooth="yes"/>
      <point x="451" y="494"/>
      <point x="548" y="390"/>
    </contour>
    <contour>
      <point x="434" y="113" type="curve"/>
      <point x="444" y="176" type="line"/>
      <point x="412" y="179" type="line"/>
      <point x="402" y="127" type="line"/>
      <point x="377" y="115"/>
      <point x="360" y="114"/>
      <point x="328" y="114" type="curve" smooth="yes"/>
      <point x="239" y="114"/>
      <point x="191" y="174"/>
      <point x="191" y="262" type="curve" smooth="yes"/>
      <point x="191" y="349"/>
      <point x="240" y="411"/>
      <point x="320" y="411" type="curve" smooth="yes"/>
      <point x="363" y="411"/>
      <point x="381" y="403"/>
      <point x="405" y="387" type="curve"/>
      <point x="415" y="335" type="line"/>
      <point x="447" y="338" type="line"/>
      <point x="438" y="401" type="line"/>
      <point x="408" y="426"/>
      <point x="372" y="441"/>
      <point x="315" y="441" type="curve" smooth="yes"/>
      <point x="222" y="441"/>
      <point x="153" y="361"/>
      <point x="153" y="261" type="curve" smooth="yes"/>
      <point x="153" y="161"/>
      <point x="221" y="84"/>
      <point x="322" y="84" type="curve" smooth="yes"/>
      <point x="371" y="84"/>
      <point x="406" y="92"/>
    </contour>
  </outline>
</glyph>
<glyph name="logicalnot" format="1">
  <advance width="615"/>
  <unicode hex="00AC"/>
  <outline>
    <contour>
      <point x="506" y="105" type="line"/>
      <point x="549" y="105" type="line"/>
      <point x="549" y="304" type="line"/>
      <point x="68" y="304" type="line"/>
      <point x="68" y="261" type="line"/>
      <point x="506" y="261" type="line"/>
    </contour>
  </outline>
</glyph>
<glyph name="registered" format="1">
  <advance width="599"/>
  <unicode hex="00AE"/>
  <outline>
    <contour>
      <point x="300" y="159" type="curve" smooth="yes"/>
      <point x="439" y="159"/>
      <point x="551" y="270"/>
      <point x="551" y="409" type="curve" smooth="yes"/>
      <point x="551" y="548"/>
      <point x="441" y="660"/>
      <point x="301" y="660" type="curve" smooth="yes"/>
      <point x="161" y="660"/>
      <point x="50" y="548"/>
      <point x="50" y="409" type="curve" smooth="yes"/>
      <point x="50" y="269"/>
      <point x="162" y="159"/>
    </contour>
    <contour>
      <point x="301" y="193" type="curve" smooth="yes"/>
      <point x="178" y="193"/>
      <point x="85" y="289"/>
      <point x="85" y="409" type="curve" smooth="yes"/>
      <point x="85" y="529"/>
      <point x="177" y="626"/>
      <point x="301" y="626" type="curve" smooth="yes"/>
      <point x="424" y="626"/>
      <point x="515" y="529"/>
      <point x="515" y="409" type="curve" smooth="yes"/>
      <point x="515" y="290"/>
      <point x="422" y="193"/>
    </contour>
    <contour>
      <point x="180" y="301" type="line"/>
      <point x="218" y="301" type="line"/>
      <point x="218" y="537" type="line"/>
      <point x="180" y="537" type="line"/>
      <point x="180" y="564" type="line"/>
      <point x="311" y="564" type="line" smooth="yes"/>
      <point x="385" y="564"/>
      <point x="414" y="528"/>
      <point x="414" y="483" type="curve" smooth="yes"/>
      <point x="414" y="444"/>
      <point x="392" y="412"/>
      <point x="348" y="401" type="curve"/>
      <point x="402" y="301" type="line"/>
      <point x="441" y="301" type="line"/>
      <point x="441" y="274" type="line"/>
      <point x="380" y="274" type="line"/>
      <point x="316" y="396" type="line"/>
      <point x="251" y="396" type="line"/>
      <point x="251" y="301" type="line"/>
      <point x="292" y="301" type="line"/>
      <point x="292" y="274" type="line"/>
      <point x="180" y="274" type="line"/>
    </contour>
    <contour>
      <point x="305" y="422" type="line" smooth="yes"/>
      <point x="358" y="422"/>
      <point x="378" y="444"/>
      <point x="378" y="482" type="curve" smooth="yes"/>
      <point x="378" y="519"/>
      <point x="356" y="537"/>
      <point x="305" y="537" type="curve" smooth="yes"/>
      <point x="251" y="537" type="line"/>
      <point x="251" y="422" type="line"/>
    </contour>
  </outline>
</glyph>
<glyph name="macron" format="1">
  <advance width="335"/>
  <unicode hex="00AF"/>
  <outline>
    <contour>
      <point x="280" y="572" type="line"/>
      <point x="280" y="618" type="line"/>
      <point x="42" y="618" type="line"/>
      <point x="42" y="572" type="line"/>
    </contour>
  </outline>
</glyph>
<glyph name="degree" format="1">
  <advance width="405"/>
  <unicode hex="00B0"/>
  <outline>
    <contour>
      <point x="202" y="342" type="curve" smooth="yes"/>
      <point x="299" y="342"/>
      <point x="362" y="412"/>
      <point x="362" y="501" type="curve" smooth="yes"/>
      <point x="362" y="589"/>
      <point x="301" y="660"/>
      <point x="204" y="660" type="curve" smooth="yes"/>
      <point x="109" y="660"/>
      <point x="43" y="590"/>
      <point x="43" y="500" type="curve" smooth="yes"/>
      <point x="43" y="410"/>
      <point x="107" y="342"/>
    </contour>
    <contour>
      <point x="203" y="385" type="curve"/>
      <point x="138" y="385"/>
      <point x="90" y="430"/>
      <point x="90" y="501" type="curve" smooth="yes"/>
      <point x="90" y="573"/>
      <point x="138" y="617"/>
      <point x="203" y="617" type="curve" smooth="yes"/>
      <point x="268" y="617"/>
      <point x="315" y="573"/>
      <point x="315" y="500" type="curve" smooth="yes"/>
      <point x="315" y="429"/>
      <point x="268" y="385"/>
    </contour>
  </outline>
</glyph>
<glyph name="plusminus" format="1">
  <advance width="460"/>
  <unicode hex="00B1"/>
  <outline>
    <contour>
      <point x="57" y="262" type="line"/>
      <point x="211" y="262" type="line"/>
      <point x="211" y="111" type="line"/>
      <point x="255" y="111" type="line"/>
      <point x="255" y="262" type="line"/>
      <point x="404" y="262" type="line"/>
      <point x="404" y="306" type="line"/>
      <point x="255" y="306" type="line"/>
      <point x="255" y="458" type="line"/>
      <point x="211" y="458" type="line"/>
      <point x="211" y="306" type="line"/>
      <point x="57" y="306" type="line"/>
    </contour>
    <contour>
      <point x="57" y="0" type="line"/>
      <point x="404" y="0" type="line"/>
      <point x="404" y="44" type="line"/>
      <point x="57" y="44" type="line"/>
    </contour>
  </outline>
</glyph>
<glyph name="twosuperior" format="1">
  <advance width="342"/>
  <unicode hex="00B2"/>
  <outline>
    <contour>
      <point x="81" y="670" type="line"/>
      <point x="95" y="730" type="line"/>
      <point x="113" y="743"/>
      <point x="130" y="748"/>
      <point x="155" y="748" type="curve" smooth="yes"/>
      <point x="211" y="748"/>
      <point x="231" y="720"/>
      <point x="231" y="685" type="curve" smooth="yes"/>
      <point x="231" y="603"/>
      <point x="120" y="520"/>
      <point x="36" y="448" type="curve"/>
      <point x="40" y="415" type="line"/>
      <point x="304" y="415" type="line"/>
      <point x="314" y="502" type="line"/>
      <point x="276" y="506" type="line"/>
      <point x="267" y="452" type="line"/>
      <point x="97" y="452" type="line"/>
      <point x="147" y="495"/>
      <point x="283" y="589"/>
      <point x="283" y="688" type="curve" smooth="yes"/>
      <point x="283" y="738"/>
      <point x="249" y="785"/>
      <point x="169" y="785" type="curve" smooth="yes"/>
      <point x="128" y="785"/>
      <point x="82" y="773"/>
      <point x="54" y="745" type="curve"/>
      <point x="44" y="675" type="line"/>
    </contour>
  </outline>
</glyph>
<glyph name="mu" format="1">
  <advance width="567"/>
  <unicode hex="00B5"/>
  <outline>
    <contour>
      <point x="101" y="-213" type="line"/>
      <point x="101" y="397" type="line"/>
      <point x="19" y="397" type="line"/>
      <point x="19" y="444" type="line"/>
      <point x="156" y="444" type="line"/>
      <point x="156" y="176" type="line" smooth="yes"/>
      <point x="156" y="75"/>
      <point x="204" y="36"/>
      <point x="270" y="36" type="curve" smooth="yes"/>
      <point x="351" y="36"/>
      <point x="408" y="108"/>
      <point x="411" y="171" type="curve"/>
      <point x="411" y="397" type="line"/>
      <point x="314" y="397" type="line"/>
      <point x="314" y="444" type="line"/>
      <point x="466" y="444" type="line"/>
      <point x="466" y="46" type="line"/>
      <point x="550" y="46" type="line"/>
      <point x="550" y="0" type="line"/>
      <point x="411" y="0" type="line"/>
      <point x="411" y="86" type="line"/>
      <point x="382" y="29"/>
      <point x="326" y="-10"/>
      <point x="254" y="-10" type="curve" smooth="yes"/>
      <point x="216" y="-10"/>
      <point x="182" y="0"/>
      <point x="156" y="20" type="curve"/>
      <point x="156" y="-213" type="line"/>
    </contour>
  </outline>
</glyph>
<glyph name="paragraph" format="1">
  <advance width="607"/>
  <unicode hex="00B6"/>
  <outline>
    <contour>
      <point x="257" y="650" type="curve"/>
      <point x="567" y="650" type="line"/>
      <point x="567" y="600" type="line"/>
      <point x="488" y="600" type="line"/>
      <point x="488" y="0" type="line"/>
      <point x="435" y="0" type="line"/>
      <point x="435" y="600" type="line"/>
      <point x="365" y="600" type="line"/>
      <point x="365" y="0" type="line"/>
      <point x="312" y="0" type="line"/>
      <point x="312" y="310" type="line"/>
      <point x="251" y="310" type="line" smooth="yes"/>
      <point x="126" y="310"/>
      <point x="31" y="357"/>
      <point x="31" y="484" type="curve" smooth="yes"/>
      <point x="31" y="575"/>
      <point x="103" y="650"/>
    </contour>
  </outline>
</glyph>
<glyph name="periodcentered" format="1">
  <advance width="216"/>
  <unicode hex="00B7"/>
  <outline>
    <contour>
      <point x="65" y="257" type="line"/>
      <point x="147" y="257" type="line"/>
      <point x="147" y="343" type="line"/>
      <point x="65" y="343" type="line"/>
    </contour>
  </outline>
</glyph>
<glyph name="onehalf" format="1">
  <advance width="736"/>
  <unicode hex="00BD"/>
  <outline>
    <contour>
      <point x="479" y="255" type="line"/>
      <point x="493" y="315" type="line"/>
      <point x="511" y="328"/>
      <point x="528" y="333"/>
      <point x="553" y="333" type="curve" smooth="yes"/>
      <point x="609" y="333"/>
      <point x="629" y="305"/>
      <point x="629" y="270" type="curve" smooth="yes"/>
      <point x="629" y="188"/>
      <point x="518" y="105"/>
      <point x="434" y="33" type="curve"/>
      <point x="438" y="0" type="line"/>
      <point x="702" y="0" type="line"/>
      <point x="712" y="87" type="line"/>
      <point x="674" y="91" type="line"/>
      <point x="665" y="37" type="line"/>
      <point x="495" y="37" type="line"/>
      <point x="545" y="80"/>
      <point x="681" y="174"/>
      <point x="681" y="273" type="curve" smooth="yes"/>
      <point x="681" y="323"/>
      <point x="647" y="370"/>
      <point x="567" y="370" type="curve" smooth="yes"/>
      <point x="526" y="370"/>
      <point x="480" y="358"/>
      <point x="452" y="330" type="curve"/>
      <point x="442" y="260" type="line"/>
    </contour>
    <contour>
      <point x="553" y="650" type="line"/>
      <point x="364" y="325" type="line"/>
      <point x="181" y="0" type="line"/>
      <point x="137" y="0" type="line"/>
      <point x="334" y="337" type="line"/>
      <point x="509" y="650" type="line"/>
    </contour>
    <contour>
      <point x="42" y="323" type="line"/>
      <point x="118" y="323" type="line"/>
      <point x="118" y="613" type="line"/>
      <point x="42" y="613" type="line"/>
      <point x="42" y="650" type="line"/>
      <point x="165" y="650" type="line"/>
      <point x="165" y="323" type="line"/>
      <point x="238" y="323" type="line"/>
      <point x="238" y="286" type="line"/>
      <point x="42" y="286" type="line"/>
    </contour>
  </outline>
</glyph>
<glyph name="threequarters" format="1">
  <advance width="723"/>
  <unicode hex="00BE"/>
  <outline>
    <contour>
      <point x="581" y="-1" type="line"/>
      <point x="627" y="-1" type="line"/>
      <point x="627" y="95" type="line"/>
      <point x="686" y="95" type="line"/>
      <point x="690" y="130" type="line"/>
      <point x="627" y="130" type="line"/>
      <point x="627" y="364" type="line"/>
      <point x="529" y="364" type="line"/>
      <point x="392" y="131" type="line"/>
      <point x="397" y="95" type="line"/>
      <point x="581" y="95" type="line"/>
    </contour>
    <contour>
      <point x="92" y="553" type="line"/>
      <point x="104" y="605" type="line"/>
      <point x="124" y="617"/>
      <point x="143" y="623"/>
      <point x="168" y="623" type="curve" smooth="yes"/>
      <point x="212" y="623"/>
      <point x="238" y="601"/>
      <point x="238" y="566" type="curve" smooth="yes"/>
      <point x="238" y="528"/>
      <point x="209" y="500"/>
      <point x="142" y="496" type="curve"/>
      <point x="142" y="464" type="line"/>
      <point x="229" y="462"/>
      <point x="253" y="434"/>
      <point x="253" y="396" type="curve" smooth="yes"/>
      <point x="253" y="352"/>
      <point x="221" y="321"/>
      <point x="167" y="321" type="curve" smooth="yes"/>
      <point x="110" y="321"/>
      <point x="84" y="356"/>
      <point x="77" y="389" type="curve"/>
      <point x="43" y="381" type="line"/>
      <point x="50" y="324"/>
      <point x="96" y="284"/>
      <point x="164" y="284" type="curve" smooth="yes"/>
      <point x="238" y="284"/>
      <point x="304" y="319"/>
      <point x="304" y="392" type="curve" smooth="yes"/>
      <point x="304" y="433"/>
      <point x="282" y="473"/>
      <point x="210" y="483" type="curve"/>
      <point x="210" y="485" type="line"/>
      <point x="267" y="500"/>
      <point x="287" y="535"/>
      <point x="287" y="572" type="curve" smooth="yes"/>
      <point x="287" y="627"/>
      <point x="244" y="660"/>
      <point x="181" y="660" type="curve" smooth="yes"/>
      <point x="143" y="660"/>
      <point x="92" y="648"/>
      <point x="64" y="620" type="curve"/>
      <point x="55" y="558" type="line"/>
    </contour>
    <contour>
      <point x="588" y="650" type="line"/>
      <point x="399" y="325" type="line"/>
      <point x="216" y="0" type="line"/>
      <point x="172" y="0" type="line"/>
      <point x="369" y="337" type="line"/>
      <point x="544" y="650" type="line"/>
    </contour>
    <contour>
      <point x="551" y="327" type="line"/>
      <point x="581" y="327" type="line"/>
      <point x="581" y="130" type="line"/>
      <point x="436" y="130" type="line"/>
    </contour>
  </outline>
</glyph>
<glyph name="questiondown" format="1">
  <advance width="431"/>
  <unicode hex="00BF"/>
  <outline>
    <contour>
      <point x="337" y="-17" type="line"/>
      <point x="324" y="-120" type="line"/>
      <point x="292" y="-149"/>
      <point x="256" y="-165"/>
      <point x="209" y="-165" type="curve" smooth="yes"/>
      <point x="129" y="-165"/>
      <point x="89" y="-125"/>
      <point x="89" y="-77" type="curve" smooth="yes"/>
      <point x="89" y="35"/>
      <point x="294" y="69"/>
      <point x="294" y="186" type="curve" smooth="yes"/>
      <point x="294" y="231"/>
      <point x="264" y="272"/>
      <point x="180" y="269" type="curve"/>
      <point x="180" y="227" type="line"/>
      <point x="218" y="227"/>
      <point x="236" y="211"/>
      <point x="236" y="183" type="curve" smooth="yes"/>
      <point x="236" y="89"/>
      <point x="29" y="50"/>
      <point x="29" y="-84" type="curve" smooth="yes"/>
      <point x="29" y="-166"/>
      <point x="110" y="-216"/>
      <point x="208" y="-216" type="curve" smooth="yes"/>
      <point x="281" y="-216"/>
      <point x="348" y="-175"/>
      <point x="378" y="-132" type="curve"/>
      <point x="383" y="-20" type="line"/>
    </contour>
    <contour>
      <point x="264" y="444" type="line"/>
      <point x="191" y="444" type="line"/>
      <point x="191" y="360" type="line"/>
      <point x="264" y="360" type="line"/>
    </contour>
  </outline>
</glyph>
<glyph name="Atilde" format="1">
  <advance width="638"/>
  <unicode hex="00C3"/>
  <outline>
    <contour>
      <point x="646" y="0" type="line"/>
      <point x="646" y="51" type="line"/>
      <point x="580" y="51" type="line"/>
      <point x="347" y="650" type="line"/>
      <point x="172" y="650" type="line"/>
      <point x="172" y="599" type="line"/>
      <point x="279" y="599" type="line"/>
      <point x="59" y="51" type="line"/>
      <point x="-2" y="51" type="line"/>
      <point x="-2" y="0" type="line"/>
      <point x="220" y="0" type="line"/>
      <point x="220" y="51" type="line"/>
      <point x="117" y="51" type="line"/>
      <point x="173" y="192" type="line"/>
      <point x="466" y="192" type="line"/>
      <point x="519" y="51" type="line"/>
      <point x="423" y="51" type="line"/>
      <point x="423" y="0" type="line"/>
    </contour>
    <contour>
      <point x="449" y="238" type="line"/>
      <point x="191" y="238" type="line"/>
      <point x="320" y="566" type="line"/>
      <point x="325" y="566" type="line"/>
    </contour>
    <contour>
      <point x="448" y="792" type="curve"/>
      <point x="417" y="800" type="line"/>
      <point x="405" y="762"/>
      <point x="388" y="757"/>
      <point x="370" y="757" type="curve" smooth="yes"/>
      <point x="319" y="757"/>
      <point x="294" y="793"/>
      <point x="250" y="793" type="curve" smooth="yes"/>
      <point x="203" y="793"/>
      <point x="176" y="752"/>
      <point x="169" y="719" type="curve"/>
      <point x="198" y="707" type="line"/>
      <point x="209" y="740"/>
      <point x="231" y="748"/>
      <point x="250" y="748" type="curve" smooth="yes"/>
      <point x="287" y="748"/>
      <point x="321" y="712"/>
      <point x="372" y="712" type="curve" smooth="yes"/>
      <point x="414" y="712"/>
      <point x="436" y="739"/>
    </contour>
  </outline>
</glyph>
<glyph name="Aring" format="1">
  <advance width="638"/>
  <unicode hex="00C5"/>
  <outline>
    <contour>
      <point x="646" y="0" type="line"/>
      <point x="646" y="51" type="line"/>
      <point x="580" y="51" type="line"/>
      <point x="347" y="650" type="line"/>
      <point x="172" y="650" type="line"/>
      <point x="172" y="599" type="line"/>
      <point x="279" y="599" type="line"/>
      <point x="59" y="51" type="line"/>
      <point x="-2" y="51" type="line"/>
      <point x="-2" y="0" type="line"/>
      <point x="220" y="0" type="line"/>
      <point x="220" y="51" type="line"/>
      <point x="117" y="51" type="line"/>
      <point x="173" y="192" type="line"/>
      <point x="466" y="192" type="line"/>
      <point x="519" y="51" type="line"/>
      <point x="423" y="51" type="line"/>
      <point x="423" y="0" type="line"/>
    </contour>
    <contour>
      <point x="449" y="238" type="line"/>
      <point x="191" y="238" type="line"/>
      <point x="320" y="566" type="line"/>
      <point x="325" y="566" type="line"/>
    </contour>
    <contour>
      <point x="415" y="784" type="curve" smooth="yes"/>
      <point x="415" y="836"/>
      <point x="384" y="874"/>
      <point x="318" y="874" type="curve" smooth="yes"/>
      <point x="257" y="874"/>
      <point x="220" y="837"/>
      <point x="220" y="783" type="curve" smooth="yes"/>
      <point x="220" y="725"/>
      <point x="253" y="690"/>
      <point x="317" y="690" type="curve" smooth="yes"/>
      <point x="381" y="690"/>
      <point x="415" y="729"/>
    </contour>
    <contour>
      <point x="374" y="784" type="curve" smooth="yes"/>
      <point x="374" y="751"/>
      <point x="356" y="725"/>
      <point x="317" y="725" type="curve" smooth="yes"/>
      <point x="279" y="725"/>
      <point x="261" y="748"/>
      <point x="261" y="783" type="curve" smooth="yes"/>
      <point x="261" y="815"/>
      <point x="280" y="840"/>
      <point x="317" y="840" type="curve" smooth="yes"/>
      <point x="358" y="840"/>
      <point x="374" y="814"/>
    </contour>
  </outline>
</glyph>
<glyph name="Eacute" format="1">
  <advance width="588"/>
  <unicode hex="00C9"/>
  <outline>
    <contour>
      <point x="461" y="753" type="line"/>
      <point x="447" y="808" type="line"/>
      <point x="259" y="739" type="line"/>
      <point x="268" y="707" type="line"/>
    </contour>
    <contour>
      <point x="522" y="0" type="line"/>
      <point x="541" y="183" type="line"/>
      <point x="491" y="188" type="line"/>
      <point x="471" y="51" type="line"/>
      <point x="185" y="51" type="line"/>
      <point x="185" y="305" type="line"/>
      <point x="500" y="305" type="line"/>
      <point x="500" y="356" type="line"/>
      <point x="185" y="356" type="line"/>
      <point x="185" y="599" type="line"/>
      <point x="461" y="599" type="line"/>
      <point x="481" y="462" type="line"/>
      <point x="532" y="468" type="line"/>
      <point x="512" y="650" type="line"/>
      <point x="43" y="650" type="line"/>
      <point x="43" y="599" type="line"/>
      <point x="128" y="599" type="line"/>
      <point x="128" y="51" type="line"/>
      <point x="43" y="51" type="line"/>
      <point x="43" y="0" type="line"/>
    </contour>
  </outline>
</glyph>
<glyph name="Igrave" format="1">
  <advance width="314"/>
  <unicode hex="00CC"/>
  <outline>
    <contour>
      <point x="270" y="0" type="line"/>
      <point x="270" y="51" type="line"/>
      <point x="186" y="51" type="line"/>
      <point x="186" y="599" type="line"/>
      <point x="270" y="599" type="line"/>
      <point x="270" y="650" type="line"/>
      <point x="43" y="650" type="line"/>
      <point x="43" y="599" type="line"/>
      <point x="128" y="599" type="line"/>
      <point x="128" y="51" type="line"/>
      <point x="43" y="51" type="line"/>
      <point x="43" y="0" type="line"/>
    </contour>
    <contour>
      <point x="239" y="739" type="line"/>
      <point x="52" y="808" type="line"/>
      <point x="38" y="753" type="line"/>
      <point x="231" y="707" type="line"/>
    </contour>
  </outline>
</glyph>
<glyph name="Iacute" format="1">
  <advance width="314"/>
  <unicode hex="00CD"/>
  <outline>
    <contour>
      <point x="270" y="0" type="line"/>
      <point x="270" y="51" type="line"/>
      <point x="186" y="51" type="line"/>
      <point x="186" y="599" type="line"/>
      <point x="270" y="599" type="line"/>
      <point x="270" y="650" type="line"/>
      <point x="43" y="650" type="line"/>
      <point x="43" y="599" type="line"/>
      <point x="128" y="599" type="line"/>
      <point x="128" y="51" type="line"/>
      <point x="43" y="51" type="line"/>
      <point x="43" y="0" type="line"/>
    </contour>
    <contour>
      <point x="278" y="753" type="line"/>
      <point x="264" y="808" type="line"/>
      <point x="76" y="739" type="line"/>
      <point x="85" y="707" type="line"/>
    </contour>
  </outline>
</glyph>
<glyph name="Icircumflex" format="1">
  <advance width="314"/>
  <unicode hex="00CE"/>
  <outline>
    <contour>
      <point x="270" y="0" type="line"/>
      <point x="270" y="51" type="line"/>
      <point x="186" y="51" type="line"/>
      <point x="186" y="599" type="line"/>
      <point x="270" y="599" type="line"/>
      <point x="270" y="650" type="line"/>
      <point x="43" y="650" type="line"/>
      <point x="43" y="599" type="line"/>
      <point x="128" y="599" type="line"/>
      <point x="128" y="51" type="line"/>
      <point x="43" y="51" type="line"/>
      <point x="43" y="0" type="line"/>
    </contour>
    <contour>
      <point x="290" y="737" type="line"/>
      <point x="167" y="822" type="line"/>
      <point x="152" y="822" type="line"/>
      <point x="27" y="733" type="line"/>
      <point x="44" y="705" type="line"/>
      <point x="157" y="769" type="line"/>
      <point x="273" y="706" type="line"/>
    </contour>
  </outline>
</glyph>
<glyph name="Idieresis" format="1">
  <advance width="314"/>
  <unicode hex="00CF"/>
  <outline>
    <contour>
      <point x="270" y="0" type="line"/>
      <point x="270" y="51" type="line"/>
      <point x="186" y="51" type="line"/>
      <point x="186" y="599" type="line"/>
      <point x="270" y="599" type="line"/>
      <point x="270" y="650" type="line"/>
      <point x="43" y="650" type="line"/>
      <point x="43" y="599" type="line"/>
      <point x="128" y="599" type="line"/>
      <point x="128" y="51" type="line"/>
      <point x="43" y="51" type="line"/>
      <point x="43" y="0" type="line"/>
    </contour>
    <contour>
      <point x="42" y="722" type="line"/>
      <point x="110" y="722" type="line"/>
      <point x="110" y="793" type="line"/>
      <point x="42" y="793" type="line"/>
    </contour>
    <contour>
      <point x="210" y="722" type="line"/>
      <point x="278" y="722" type="line"/>
      <point x="278" y="793" type="line"/>
      <point x="210" y="793" type="line"/>
    </contour>
  </outline>
</glyph>
<glyph name="Ocircumflex" format="1">
  <advance width="733"/>
  <unicode hex="00D4"/>
  <outline>
    <contour>
      <point x="690" y="325" type="curve" smooth="yes"/>
      <point x="690" y="510"/>
      <point x="558" y="660"/>
      <point x="366" y="660" type="curve" smooth="yes"/>
      <point x="177" y="660"/>
      <point x="43" y="511"/>
      <point x="43" y="325" type="curve" smooth="yes"/>
      <point x="43" y="141"/>
      <point x="173" y="-10"/>
      <point x="365" y="-10" type="curve" smooth="yes"/>
      <point x="557" y="-10"/>
      <point x="690" y="141"/>
    </contour>
    <contour>
      <point x="629" y="324" type="curve" smooth="yes"/>
      <point x="629" y="167"/>
      <point x="528" y="42"/>
      <point x="367" y="42" type="curve" smooth="yes"/>
      <point x="204" y="42"/>
      <point x="104" y="171"/>
      <point x="104" y="326" type="curve" smooth="yes"/>
      <point x="104" y="482"/>
      <point x="205" y="608"/>
      <point x="366" y="608" type="curve" smooth="yes"/>
      <point x="525" y="608"/>
      <point x="629" y="485"/>
    </contour>
    <contour>
      <point x="500" y="737" type="line"/>
      <point x="377" y="822" type="line"/>
      <point x="362" y="822" type="line"/>
      <point x="237" y="733" type="line"/>
      <point x="254" y="705" type="line"/>
      <point x="367" y="769" type="line"/>
      <point x="483" y="706" type="line"/>
    </contour>
  </outline>
</glyph>
<glyph name="Otilde" format="1">
  <advance width="733"/>
  <unicode hex="00D5"/>
  <outline>
    <contour>
      <point x="510" y="792" type="curve"/>
      <point x="479" y="800" type="line"/>
      <point x="467" y="762"/>
      <point x="450" y="757"/>
      <point x="432" y="757" type="curve" smooth="yes"/>
      <point x="381" y="757"/>
      <point x="356" y="793"/>
      <point x="312" y="793" type="curve" smooth="yes"/>
      <point x="265" y="793"/>
      <point x="238" y="752"/>
      <point x="231" y="719" type="curve"/>
      <point x="260" y="707" type="line"/>
      <point x="271" y="740"/>
      <point x="293" y="748"/>
      <point x="312" y="748" type="curve" smooth="yes"/>
      <point x="349" y="748"/>
      <point x="383" y="712"/>
      <point x="434" y="712" type="curve" smooth="yes"/>
      <point x="476" y="712"/>
      <point x="498" y="739"/>
    </contour>
    <contour>
      <point x="690" y="325" type="curve" smooth="yes"/>
      <point x="690" y="510"/>
      <point x="558" y="660"/>
      <point x="366" y="660" type="curve" smooth="yes"/>
      <point x="177" y="660"/>
      <point x="43" y="511"/>
      <point x="43" y="325" type="curve" smooth="yes"/>
      <point x="43" y="141"/>
      <point x="173" y="-10"/>
      <point x="365" y="-10" type="curve" smooth="yes"/>
      <point x="557" y="-10"/>
      <point x="690" y="141"/>
    </contour>
    <contour>
      <point x="629" y="324" type="curve" smooth="yes"/>
      <point x="629" y="167"/>
      <point x="528" y="42"/>
      <point x="367" y="42" type="curve" smooth="yes"/>
      <point x="204" y="42"/>
      <point x="104" y="171"/>
      <point x="104" y="326" type="curve" smooth="yes"/>
      <point x="104" y="482"/>
      <point x="205" y="608"/>
      <point x="366" y="608" type="curve" smooth="yes"/>
      <point x="525" y="608"/>
      <point x="629" y="485"/>
    </contour>
  </outline>
</glyph>
<glyph name="Oslash" format="1">
  <advance width="741"/>
  <unicode hex="00D8"/>
  <outline>
    <contour>
      <point x="694" y="325" type="curve" smooth="yes"/>
      <point x="694" y="414"/>
      <point x="663" y="495"/>
      <point x="610" y="555" type="curve"/>
      <point x="695" y="650" type="line"/>
      <point x="629" y="650" type="line"/>
      <point x="574" y="589" type="line"/>
      <point x="520" y="633"/>
      <point x="450" y="660"/>
      <point x="370" y="660" type="curve" smooth="yes"/>
      <point x="181" y="660"/>
      <point x="47" y="511"/>
      <point x="47" y="325" type="curve" smooth="yes"/>
      <point x="47" y="235"/>
      <point x="77" y="154"/>
      <point x="131" y="94" type="curve"/>
      <point x="47" y="0" type="line"/>
      <point x="109" y="0" type="line"/>
      <point x="164" y="61" type="line"/>
      <point x="218" y="17"/>
      <point x="288" y="-10"/>
      <point x="369" y="-10" type="curve" smooth="yes"/>
      <point x="561" y="-10"/>
      <point x="694" y="141"/>
    </contour>
    <contour>
      <point x="633" y="324" type="curve" smooth="yes"/>
      <point x="633" y="167"/>
      <point x="532" y="42"/>
      <point x="371" y="42" type="curve" smooth="yes"/>
      <point x="302" y="42"/>
      <point x="245" y="64"/>
      <point x="201" y="102" type="curve"/>
      <point x="572" y="513" type="line"/>
      <point x="611" y="464"/>
      <point x="633" y="398"/>
    </contour>
    <contour>
      <point x="108" y="326" type="curve" smooth="yes"/>
      <point x="108" y="482"/>
      <point x="209" y="608"/>
      <point x="370" y="608" type="curve" smooth="yes"/>
      <point x="437" y="608"/>
      <point x="494" y="586"/>
      <point x="538" y="548" type="curve"/>
      <point x="169" y="137" type="line"/>
      <point x="130" y="187"/>
      <point x="108" y="254"/>
    </contour>
  </outline>
</glyph>
<glyph name="Ucircumflex" format="1">
  <advance width="717"/>
  <unicode hex="00DB"/>
  <outline>
    <contour>
      <point x="677" y="599" type="line"/>
      <point x="677" y="650" type="line"/>
      <point x="461" y="650" type="line"/>
      <point x="461" y="599" type="line"/>
      <point x="558" y="599" type="line"/>
      <point x="558" y="266" type="line" smooth="yes"/>
      <point x="558" y="116"/>
      <point x="486" y="42"/>
      <point x="360" y="42" type="curve" smooth="yes"/>
      <point x="230" y="42"/>
      <point x="165" y="119"/>
      <point x="165" y="257" type="curve" smooth="yes"/>
      <point x="165" y="599" type="line"/>
      <point x="259" y="599" type="line"/>
      <point x="259" y="650" type="line"/>
      <point x="38" y="650" type="line"/>
      <point x="38" y="599" type="line"/>
      <point x="108" y="599" type="line"/>
      <point x="108" y="255" type="line" smooth="yes"/>
      <point x="108" y="115"/>
      <point x="165" y="-10"/>
      <point x="357" y="-10" type="curve" smooth="yes"/>
      <point x="555" y="-10"/>
      <point x="613" y="128"/>
      <point x="613" y="266" type="curve" smooth="yes"/>
      <point x="613" y="599" type="line"/>
    </contour>
    <contour>
      <point x="492" y="737" type="line"/>
      <point x="369" y="822" type="line"/>
      <point x="354" y="822" type="line"/>
      <point x="229" y="733" type="line"/>
      <point x="246" y="705" type="line"/>
      <point x="359" y="769" type="line"/>
      <point x="475" y="706" type="line"/>
    </contour>
  </outline>
</glyph>
<glyph name="Yacute" format="1">
  <advance width="604"/>
  <unicode hex="00DD"/>
  <outline>
    <contour>
      <point x="603" y="599" type="line"/>
      <point x="603" y="650" type="line"/>
      <point x="383" y="650" type="line"/>
      <point x="383" y="599" type="line"/>
      <point x="480" y="599" type="line"/>
      <point x="308" y="301" type="line"/>
      <point x="303" y="301" type="line"/>
      <point x="124" y="599" type="line"/>
      <point x="222" y="599" type="line"/>
      <point x="222" y="650" type="line"/>
      <point x="-6" y="650" type="line"/>
      <point x="-6" y="599" type="line"/>
      <point x="60" y="599" type="line"/>
      <point x="275" y="247" type="line"/>
      <point x="275" y="51" type="line"/>
      <point x="160" y="51" type="line"/>
      <point x="160" y="0" type="line"/>
      <point x="448" y="0" type="line"/>
      <point x="448" y="51" type="line"/>
      <point x="331" y="51" type="line"/>
      <point x="331" y="247" type="line"/>
      <point x="537" y="599" type="line"/>
    </contour>
    <contour>
      <point x="431" y="753" type="line"/>
      <point x="417" y="808" type="line"/>
      <point x="229" y="739" type="line"/>
      <point x="238" y="707" type="line"/>
    </contour>
  </outline>
</glyph>
<glyph name="Thorn" format="1">
  <advance width="564"/>
  <unicode hex="00DE"/>
  <outline>
    <contour>
      <point x="270" y="0" type="line"/>
      <point x="270" y="51" type="line"/>
      <point x="186" y="51" type="line"/>
      <point x="186" y="138" type="line"/>
      <point x="322" y="138" type="line" smooth="yes"/>
      <point x="450" y="138"/>
      <point x="537" y="212"/>
      <point x="537" y="341" type="curve" smooth="yes"/>
      <point x="537" y="441"/>
      <point x="477" y="528"/>
      <point x="316" y="528" type="curve" smooth="yes"/>
      <point x="186" y="528" type="line"/>
      <point x="186" y="599" type="line"/>
      <point x="270" y="599" type="line"/>
      <point x="270" y="650" type="line"/>
      <point x="43" y="650" type="line"/>
      <point x="43" y="599" type="line"/>
      <point x="128" y="599" type="line"/>
      <point x="128" y="51" type="line"/>
      <point x="43" y="51" type="line"/>
      <point x="43" y="0" type="line"/>
    </contour>
    <contour>
      <point x="313" y="481" type="line" smooth="yes"/>
      <point x="424" y="481"/>
      <point x="476" y="428"/>
      <point x="476" y="339" type="curve" smooth="yes"/>
      <point x="476" y="240"/>
      <point x="417" y="185"/>
      <point x="316" y="185" type="curve" smooth="yes"/>
      <point x="186" y="185" type="line"/>
      <point x="186" y="481" type="line"/>
    </contour>
  </outline>
</glyph>
<glyph name="germandbls" format="1">
  <advance width="643"/>
  <unicode hex="00DF"/>
  <outline>
    <contour>
      <point x="620" y="125" type="curve" smooth="yes"/>
      <point x="620" y="303"/>
      <point x="341" y="216"/>
      <point x="341" y="328" type="curve" smooth="yes"/>
      <point x="341" y="435"/>
      <point x="559" y="423"/>
      <point x="559" y="558" type="curve" smooth="yes"/>
      <point x="559" y="640"/>
      <point x="479" y="698"/>
      <point x="348" y="698" type="curve" smooth="yes"/>
      <point x="188" y="698"/>
      <point x="107" y="610"/>
      <point x="107" y="490" type="curve" smooth="yes"/>
      <point x="107" y="444" type="line"/>
      <point x="41" y="444" type="line"/>
      <point x="41" y="397" type="line"/>
      <point x="107" y="397" type="line"/>
      <point x="107" y="46" type="line"/>
      <point x="25" y="46" type="line"/>
      <point x="25" y="0" type="line"/>
      <point x="162" y="0" type="line"/>
      <point x="162" y="487" type="line" smooth="yes"/>
      <point x="162" y="574"/>
      <point x="203" y="649"/>
      <point x="343" y="649" type="curve" smooth="yes"/>
      <point x="441" y="649"/>
      <point x="504" y="614"/>
      <point x="504" y="555" type="curve" smooth="yes"/>
      <point x="504" y="443"/>
      <point x="282" y="463"/>
      <point x="282" y="321" type="curve" smooth="yes"/>
      <point x="282" y="161"/>
      <point x="564" y="254"/>
      <point x="564" y="120" type="curve" smooth="yes"/>
      <point x="564" y="64"/>
      <point x="509" y="38"/>
      <point x="447" y="38" type="curve" smooth="yes"/>
      <point x="402" y="38"/>
      <point x="359" y="44"/>
      <point x="329" y="67" type="curve"/>
      <point x="333" y="124" type="line"/>
      <point x="288" y="128" type="line"/>
      <point x="276" y="34" type="line"/>
      <point x="309" y="7"/>
      <point x="387" y="-10"/>
      <point x="451" y="-10" type="curve" smooth="yes"/>
      <point x="543" y="-10"/>
      <point x="620" y="42"/>
    </contour>
  </outline>
</glyph>
<glyph name="aring" format="1">
  <advance width="477"/>
  <unicode hex="00E5"/>
  <outline>
    <contour>
      <point x="85" y="409" type="curve"/>
      <point x="69" y="310" type="line"/>
      <point x="115" y="304" type="line"/>
      <point x="133" y="384" type="line"/>
      <point x="161" y="398"/>
      <point x="192" y="404"/>
      <point x="223" y="404" type="curve" smooth="yes"/>
      <point x="305" y="404"/>
      <point x="331" y="362"/>
      <point x="331" y="294" type="curve" smooth="yes"/>
      <point x="331" y="247" type="line"/>
      <point x="307" y="249"/>
      <point x="279" y="251"/>
      <point x="251" y="251" type="curve" smooth="yes"/>
      <point x="152" y="251"/>
      <point x="43" y="226"/>
      <point x="43" y="114" type="curve" smooth="yes"/>
      <point x="43" y="19"/>
      <point x="120" y="-10"/>
      <point x="178" y="-10" type="curve" smooth="yes"/>
      <point x="249" y="-10"/>
      <point x="303" y="34"/>
      <point x="331" y="82" type="curve"/>
      <point x="331" y="80" type="line" smooth="yes"/>
      <point x="331" y="25"/>
      <point x="358" y="-10"/>
      <point x="407" y="-10" type="curve" smooth="yes"/>
      <point x="426" y="-10"/>
      <point x="445" y="-5"/>
      <point x="459" y="4" type="curve"/>
      <point x="458" y="44" type="line"/>
      <point x="449" y="39"/>
      <point x="435" y="37"/>
      <point x="425" y="37" type="curve" smooth="yes"/>
      <point x="398" y="37"/>
      <point x="386" y="53"/>
      <point x="386" y="88" type="curve" smooth="yes"/>
      <point x="386" y="304" type="line" smooth="yes"/>
      <point x="386" y="404"/>
      <point x="337" y="453"/>
      <point x="232" y="453" type="curve" smooth="yes"/>
      <point x="178" y="453"/>
      <point x="122" y="440"/>
    </contour>
    <contour>
      <point x="331" y="163" type="line"/>
      <point x="327" y="89"/>
      <point x="258" y="39"/>
      <point x="192" y="39" type="curve" smooth="yes"/>
      <point x="153" y="39"/>
      <point x="101" y="56"/>
      <point x="101" y="120" type="curve" smooth="yes"/>
      <point x="101" y="194"/>
      <point x="172" y="209"/>
      <point x="244" y="209" type="curve" smooth="yes"/>
      <point x="276" y="209"/>
      <point x="305" y="206"/>
      <point x="331" y="204" type="curve"/>
    </contour>
    <contour>
      <point x="328" y="607" type="curve" smooth="yes"/>
      <point x="328" y="660"/>
      <point x="297" y="698"/>
      <point x="231" y="698" type="curve" smooth="yes"/>
      <point x="170" y="698"/>
      <point x="133" y="660"/>
      <point x="133" y="606" type="curve" smooth="yes"/>
      <point x="133" y="549"/>
      <point x="166" y="514"/>
      <point x="230" y="514" type="curve" smooth="yes"/>
      <point x="294" y="514"/>
      <point x="328" y="553"/>
    </contour>
    <contour>
      <point x="287" y="608" type="curve" smooth="yes"/>
      <point x="287" y="575"/>
      <point x="269" y="549"/>
      <point x="230" y="549" type="curve" smooth="yes"/>
      <point x="192" y="549"/>
      <point x="174" y="571"/>
      <point x="174" y="606" type="curve" smooth="yes"/>
      <point x="174" y="638"/>
      <point x="193" y="663"/>
      <point x="230" y="663" type="curve" smooth="yes"/>
      <point x="271" y="663"/>
      <point x="287" y="638"/>
    </contour>
  </outline>
</glyph>
<glyph name="ae" format="1">
  <advance width="755"/>
  <unicode hex="00E6"/>
  <outline>
    <contour>
      <point x="716" y="124" type="curve"/>
      <point x="670" y="135" type="line"/>
      <point x="654" y="73"/>
      <point x="610" y="39"/>
      <point x="540" y="39" type="curve" smooth="yes"/>
      <point x="446" y="39"/>
      <point x="392" y="101"/>
      <point x="389" y="208" type="curve"/>
      <point x="707" y="208" type="line"/>
      <point x="710" y="225"/>
      <point x="712" y="242"/>
      <point x="712" y="258" type="curve" smooth="yes"/>
      <point x="712" y="360"/>
      <point x="651" y="453"/>
      <point x="530" y="453" type="curve" smooth="yes"/>
      <point x="463" y="453"/>
      <point x="410" y="423"/>
      <point x="375" y="374" type="curve"/>
      <point x="356" y="425"/>
      <point x="311" y="453"/>
      <point x="243" y="453" type="curve" smooth="yes"/>
      <point x="174" y="453"/>
      <point x="126" y="441"/>
      <point x="86" y="409" type="curve"/>
      <point x="70" y="310" type="line"/>
      <point x="116" y="304" type="line"/>
      <point x="134" y="384" type="line"/>
      <point x="162" y="398"/>
      <point x="191" y="404"/>
      <point x="229" y="404" type="curve" smooth="yes"/>
      <point x="306" y="404"/>
      <point x="332" y="359"/>
      <point x="332" y="294" type="curve" smooth="yes"/>
      <point x="332" y="247" type="line"/>
      <point x="308" y="249"/>
      <point x="279" y="251"/>
      <point x="253" y="251" type="curve" smooth="yes"/>
      <point x="153" y="251"/>
      <point x="44" y="226"/>
      <point x="44" y="114" type="curve" smooth="yes"/>
      <point x="44" y="19"/>
      <point x="121" y="-10"/>
      <point x="179" y="-10" type="curve" smooth="yes"/>
      <point x="272" y="-10"/>
      <point x="325" y="48"/>
      <point x="355" y="99" type="curve"/>
      <point x="387" y="29"/>
      <point x="452" y="-10"/>
      <point x="536" y="-10" type="curve" smooth="yes"/>
      <point x="640" y="-10"/>
      <point x="703" y="49"/>
    </contour>
    <contour>
      <point x="654" y="254" type="curve"/>
      <point x="390" y="254" type="line"/>
      <point x="399" y="334"/>
      <point x="438" y="404"/>
      <point x="527" y="404" type="curve" smooth="yes"/>
      <point x="621" y="404"/>
      <point x="661" y="325"/>
    </contour>
    <contour>
      <point x="102" y="120" type="curve" smooth="yes"/>
      <point x="102" y="194"/>
      <point x="173" y="209"/>
      <point x="247" y="209" type="curve" smooth="yes"/>
      <point x="276" y="209"/>
      <point x="306" y="206"/>
      <point x="332" y="204" type="curve"/>
      <point x="332" y="163" type="line"/>
      <point x="328" y="89"/>
      <point x="259" y="39"/>
      <point x="193" y="39" type="curve" smooth="yes"/>
      <point x="154" y="39"/>
      <point x="102" y="56"/>
    </contour>
  </outline>
</glyph>
<glyph name="iacute" format="1">
  <advance width="275"/>
  <unicode hex="00ED"/>
  <outline>
    <contour>
      <point x="34" y="46" type="line"/>
      <point x="117" y="46" type="line"/>
      <point x="117" y="397" type="line"/>
      <point x="33" y="397" type="line"/>
      <point x="33" y="444" type="line"/>
      <point x="172" y="444" type="line"/>
      <point x="172" y="46" type="line"/>
      <point x="254" y="46" type="line"/>
      <point x="254" y="0" type="line"/>
      <point x="34" y="0" type="line"/>
    </contour>
    <contour>
      <point x="230" y="631" type="line"/>
      <point x="197" y="678" type="line"/>
      <point x="45" y="550" type="line"/>
      <point x="63" y="523" type="line"/>
    </contour>
  </outline>
</glyph>
<glyph name="ntilde" format="1">
  <advance width="568"/>
  <unicode hex="00F1"/>
  <outline>
    <contour>
      <point x="560" y="0" type="line"/>
      <point x="560" y="46" type="line"/>
      <point x="478" y="46" type="line"/>
      <point x="478" y="280" type="line" smooth="yes"/>
      <point x="478" y="401"/>
      <point x="414" y="453"/>
      <point x="326" y="453" type="curve" smooth="yes"/>
      <point x="254" y="453"/>
      <point x="198" y="418"/>
      <point x="168" y="362" type="curve"/>
      <point x="168" y="444" type="line"/>
      <point x="29" y="444" type="line"/>
      <point x="29" y="397" type="line"/>
      <point x="113" y="397" type="line"/>
      <point x="113" y="46" type="line"/>
      <point x="30" y="46" type="line"/>
      <point x="30" y="0" type="line"/>
      <point x="250" y="0" type="line"/>
      <point x="250" y="46" type="line"/>
      <point x="168" y="46" type="line"/>
      <point x="168" y="267" type="line"/>
      <point x="171" y="336"/>
      <point x="227" y="404"/>
      <point x="313" y="404" type="curve" smooth="yes"/>
      <point x="375" y="404"/>
      <point x="423" y="368"/>
      <point x="423" y="267" type="curve" smooth="yes"/>
      <point x="423" y="46" type="line"/>
      <point x="341" y="46" type="line"/>
      <point x="341" y="0" type="line"/>
    </contour>
    <contour>
      <point x="429" y="646" type="curve"/>
      <point x="398" y="654" type="line"/>
      <point x="387" y="616"/>
      <point x="369" y="611"/>
      <point x="351" y="611" type="curve" smooth="yes"/>
      <point x="300" y="611"/>
      <point x="275" y="648"/>
      <point x="231" y="648" type="curve" smooth="yes"/>
      <point x="184" y="648"/>
      <point x="157" y="603"/>
      <point x="150" y="569" type="curve"/>
      <point x="179" y="558" type="line"/>
      <point x="190" y="591"/>
      <point x="213" y="601"/>
      <point x="232" y="601" type="curve" smooth="yes"/>
      <point x="268" y="601"/>
      <point x="302" y="563"/>
      <point x="354" y="563" type="curve" smooth="yes"/>
      <point x="395" y="563"/>
      <point x="418" y="593"/>
    </contour>
  </outline>
</glyph>
<glyph name="ocircumflex" format="1">
  <advance width="510"/>
  <unicode hex="00F4"/>
  <outline>
    <contour>
      <point x="381" y="552" type="line"/>
      <point x="264" y="667" type="line"/>
      <point x="249" y="667" type="line"/>
      <point x="131" y="549" type="line"/>
      <point x="154" y="522" type="line"/>
      <point x="252" y="611" type="line"/>
      <point x="357" y="522" type="line"/>
    </contour>
    <contour>
      <point x="469" y="222" type="curve" smooth="yes"/>
      <point x="469" y="348"/>
      <point x="396" y="453"/>
      <point x="256" y="453" type="curve" smooth="yes"/>
      <point x="116" y="453"/>
      <point x="41" y="348"/>
      <point x="41" y="219" type="curve" smooth="yes"/>
      <point x="41" y="88"/>
      <point x="118" y="-10"/>
      <point x="252" y="-10" type="curve" smooth="yes"/>
      <point x="387" y="-10"/>
      <point x="469" y="89"/>
    </contour>
    <contour>
      <point x="410" y="223" type="curve" smooth="yes"/>
      <point x="410" y="119"/>
      <point x="356" y="39"/>
      <point x="254" y="39" type="curve" smooth="yes"/>
      <point x="152" y="39"/>
      <point x="99" y="120"/>
      <point x="99" y="222" type="curve" smooth="yes"/>
      <point x="99" y="325"/>
      <point x="153" y="404"/>
      <point x="254" y="404" type="curve" smooth="yes"/>
      <point x="355" y="404"/>
      <point x="410" y="327"/>
    </contour>
  </outline>
</glyph>
<glyph name="yacute" format="1">
  <advance width="506"/>
  <unicode hex="00FD"/>
  <outline>
    <contour>
      <point x="497" y="397" type="line"/>
      <point x="497" y="444" type="line"/>
      <point x="303" y="444" type="line"/>
      <point x="303" y="397" type="line"/>
      <point x="384" y="397" type="line"/>
      <point x="262" y="74" type="line"/>
      <point x="256" y="74" type="line"/>
      <point x="122" y="397" type="line"/>
      <point x="209" y="397" type="line"/>
      <point x="209" y="444" type="line"/>
      <point x="9" y="444" type="line"/>
      <point x="9" y="397" type="line"/>
      <point x="64" y="397" type="line"/>
      <point x="227" y="3" type="line"/>
      <point x="163" y="-167" type="line"/>
      <point x="77" y="-167" type="line"/>
      <point x="77" y="-213" type="line"/>
      <point x="297" y="-213" type="line"/>
      <point x="297" y="-167" type="line"/>
      <point x="216" y="-167" type="line"/>
      <point x="281" y="0" type="line"/>
      <point x="441" y="397" type="line"/>
    </contour>
    <contour>
      <point x="398" y="631" type="line"/>
      <point x="365" y="678" type="line"/>
      <point x="213" y="550" type="line"/>
      <point x="231" y="523" type="line"/>
    </contour>
  </outline>
</glyph>
<glyph name="thorn" format="1">
  <advance width="519"/>
  <unicode hex="00FE"/>
  <outline>
    <contour>
      <point x="-11" y="-167" type="line"/>
      <point x="71" y="-167" type="line"/>
      <point x="71" y="642" type="line"/>
      <point x="-13" y="642" type="line"/>
      <point x="-13" y="688" type="line"/>
      <point x="126" y="688" type="line"/>
      <point x="126" y="349" type="line"/>
      <point x="154" y="404"/>
      <point x="204" y="453"/>
      <point x="288" y="453" type="curve" smooth="yes"/>
      <point x="399" y="453"/>
      <point x="477" y="372"/>
      <point x="477" y="235" type="curve" smooth="yes"/>
      <point x="477" y="119"/>
      <point x="422" y="-10"/>
      <point x="276" y="-10" type="curve" smooth="yes"/>
      <point x="214" y="-10"/>
      <point x="156" y="16"/>
      <point x="126" y="67" type="curve"/>
      <point x="126" y="-167" type="line"/>
      <point x="236" y="-167" type="line"/>
      <point x="236" y="-213" type="line"/>
      <point x="-11" y="-213" type="line"/>
    </contour>
    <contour>
      <point x="270" y="39" type="curve" smooth="yes"/>
      <point x="375" y="39"/>
      <point x="419" y="134"/>
      <point x="419" y="230" type="curve" smooth="yes"/>
      <point x="419" y="343"/>
      <point x="357" y="404"/>
      <point x="279" y="404" type="curve" smooth="yes"/>
      <point x="190" y="404"/>
      <point x="129" y="317"/>
      <point x="126" y="251" type="curve"/>
      <point x="126" y="176" type="line" smooth="yes"/>
      <point x="126" y="101"/>
      <point x="188" y="39"/>
    </contour>
  </outline>
</glyph>
<glyph name="Ccircumflex" format="1">
  <advance width="647"/>
  <unicode hex="0108"/>
  <outline>
    <contour>
      <point x="570" y="45" type="curve"/>
      <point x="588" y="162" type="line"/>
      <point x="538" y="168" type="line"/>
      <point x="518" y="72" type="line"/>
      <point x="472" y="49"/>
      <point x="430" y="42"/>
      <point x="370" y="42" type="curve" smooth="yes"/>
      <point x="204" y="42"/>
      <point x="104" y="160"/>
      <point x="104" y="324" type="curve" smooth="yes"/>
      <point x="104" y="486"/>
      <point x="206" y="608"/>
      <point x="356" y="608" type="curve" smooth="yes"/>
      <point x="437" y="608"/>
      <point x="480" y="588"/>
      <point x="524" y="559" type="curve"/>
      <point x="544" y="461" type="line"/>
      <point x="594" y="467" type="line"/>
      <point x="576" y="584" type="line"/>
      <point x="520" y="631"/>
      <point x="454" y="660"/>
      <point x="347" y="660" type="curve" smooth="yes"/>
      <point x="173" y="660"/>
      <point x="44" y="510"/>
      <point x="44" y="323" type="curve" smooth="yes"/>
      <point x="44" y="135"/>
      <point x="170" y="-10"/>
      <point x="360" y="-10" type="curve" smooth="yes"/>
      <point x="451" y="-10"/>
      <point x="516" y="6"/>
    </contour>
    <contour>
      <point x="491" y="737" type="line"/>
      <point x="368" y="822" type="line"/>
      <point x="353" y="822" type="line"/>
      <point x="228" y="733" type="line"/>
      <point x="245" y="705" type="line"/>
      <point x="358" y="769" type="line"/>
      <point x="474" y="706" type="line"/>
    </contour>
  </outline>
</glyph>
<glyph name="ccaron" format="1">
  <advance width="459"/>
  <unicode hex="010D"/>
  <outline>
    <contour>
      <point x="367" y="639" type="line"/>
      <point x="344" y="667" type="line"/>
      <point x="245" y="578" type="line"/>
      <point x="141" y="667" type="line"/>
      <point x="117" y="637" type="line"/>
      <point x="234" y="522" type="line"/>
      <point x="250" y="522" type="line"/>
    </contour>
    <contour>
      <point x="421" y="145" type="curve"/>
      <point x="374" y="156" type="line"/>
      <point x="359" y="81"/>
      <point x="319" y="39"/>
      <point x="245" y="39" type="curve" smooth="yes"/>
      <point x="152" y="39"/>
      <point x="101" y="106"/>
      <point x="101" y="219" type="curve" smooth="yes"/>
      <point x="101" y="315"/>
      <point x="137" y="404"/>
      <point x="243" y="404" type="curve" smooth="yes"/>
      <point x="285" y="404"/>
      <point x="317" y="395"/>
      <point x="345" y="375" type="curve"/>
      <point x="362" y="300" type="line"/>
      <point x="408" y="306" type="line"/>
      <point x="392" y="405" type="line"/>
      <point x="350" y="440"/>
      <point x="304" y="453"/>
      <point x="243" y="453" type="curve" smooth="yes"/>
      <point x="103" y="453"/>
      <point x="42" y="329"/>
      <point x="42" y="215" type="curve" smooth="yes"/>
      <point x="42" y="75"/>
      <point x="117" y="-10"/>
      <point x="239" y="-10" type="curve" smooth="yes"/>
      <point x="355" y="-10"/>
      <point x="408" y="68"/>
    </contour>
  </outline>
</glyph>
<glyph name="Dcaron" format="1">
  <advance width="707"/>
  <unicode hex="010E"/>
  <outline>
    <contour>
      <point x="437" y="792" type="line"/>
      <point x="420" y="822" type="line"/>
      <point x="308" y="757" type="line"/>
      <point x="192" y="819" type="line"/>
      <point x="174" y="789" type="line"/>
      <point x="297" y="705" type="line"/>
      <point x="313" y="705" type="line"/>
    </contour>
    <contour>
      <point x="663" y="325" type="curve" smooth="yes"/>
      <point x="663" y="512"/>
      <point x="541" y="650"/>
      <point x="332" y="650" type="curve" smooth="yes"/>
      <point x="43" y="650" type="line"/>
      <point x="43" y="600" type="line"/>
      <point x="128" y="600" type="line"/>
      <point x="128" y="50" type="line"/>
      <point x="43" y="50" type="line"/>
      <point x="43" y="0" type="line"/>
      <point x="334" y="0" type="line" smooth="yes"/>
      <point x="539" y="0"/>
      <point x="663" y="136"/>
    </contour>
    <contour>
      <point x="602" y="325" type="curve" smooth="yes"/>
      <point x="602" y="161"/>
      <point x="507" y="50"/>
      <point x="331" y="50" type="curve" smooth="yes"/>
      <point x="185" y="50" type="line"/>
      <point x="185" y="600" type="line"/>
      <point x="331" y="600" type="line" smooth="yes"/>
      <point x="507" y="600"/>
      <point x="602" y="486"/>
    </contour>
  </outline>
</glyph>
<glyph name="dcaron" format="1">
  <advance width="554"/>
  <unicode hex="010F"/>
  <outline>
    <contour>
      <point x="585" y="681" type="line"/>
      <point x="533" y="681" type="line"/>
      <point x="520" y="457" type="line"/>
      <point x="566" y="457" type="line"/>
    </contour>
    <contour>
      <point x="530" y="0" type="line"/>
      <point x="530" y="46" type="line"/>
      <point x="448" y="46" type="line"/>
      <point x="448" y="688" type="line"/>
      <point x="281" y="688" type="line"/>
      <point x="281" y="642" type="line"/>
      <point x="393" y="642" type="line"/>
      <point x="393" y="371" type="line"/>
      <point x="363" y="424"/>
      <point x="306" y="453"/>
      <point x="243" y="453" type="curve" smooth="yes"/>
      <point x="95" y="453"/>
      <point x="42" y="325"/>
      <point x="42" y="209" type="curve" smooth="yes"/>
      <point x="42" y="71"/>
      <point x="119" y="-10"/>
      <point x="233" y="-10" type="curve" smooth="yes"/>
      <point x="314" y="-10"/>
      <point x="364" y="38"/>
      <point x="393" y="92" type="curve"/>
      <point x="393" y="0" type="line"/>
    </contour>
    <contour>
      <point x="393" y="189" type="line"/>
      <point x="390" y="122"/>
      <point x="327" y="39"/>
      <point x="244" y="39" type="curve" smooth="yes"/>
      <point x="161" y="39"/>
      <point x="100" y="99"/>
      <point x="100" y="213" type="curve" smooth="yes"/>
      <point x="100" y="308"/>
      <point x="142" y="404"/>
      <point x="252" y="404" type="curve" smooth="yes"/>
      <point x="327" y="404"/>
      <point x="390" y="349"/>
      <point x="393" y="276" type="curve"/>
    </contour>
  </outline>
</glyph>
<glyph name="Ebreve" format="1">
  <advance width="588"/>
  <unicode hex="0114"/>
  <outline>
    <contour>
      <point x="443" y="812" type="curve"/>
      <point x="396" y="812" type="line"/>
      <point x="396" y="756"/>
      <point x="375" y="740"/>
      <point x="325" y="740" type="curve" smooth="yes"/>
      <point x="280" y="740"/>
      <point x="255" y="754"/>
      <point x="255" y="812" type="curve"/>
      <point x="208" y="812" type="line"/>
      <point x="208" y="733"/>
      <point x="246" y="700"/>
      <point x="326" y="700" type="curve" smooth="yes"/>
      <point x="405" y="700"/>
      <point x="443" y="732"/>
    </contour>
    <contour>
      <point x="522" y="0" type="line"/>
      <point x="541" y="183" type="line"/>
      <point x="491" y="188" type="line"/>
      <point x="471" y="51" type="line"/>
      <point x="185" y="51" type="line"/>
      <point x="185" y="305" type="line"/>
      <point x="500" y="305" type="line"/>
      <point x="500" y="356" type="line"/>
      <point x="185" y="356" type="line"/>
      <point x="185" y="599" type="line"/>
      <point x="461" y="599" type="line"/>
      <point x="481" y="462" type="line"/>
      <point x="532" y="468" type="line"/>
      <point x="512" y="650" type="line"/>
      <point x="43" y="650" type="line"/>
      <point x="43" y="599" type="line"/>
      <point x="128" y="599" type="line"/>
      <point x="128" y="51" type="line"/>
      <point x="43" y="51" type="line"/>
      <point x="43" y="0" type="line"/>
    </contour>
  </outline>
</glyph>
<glyph name="Eogonek" format="1">
  <advance width="587"/>
  <unicode hex="0118"/>
  <outline>
    <contour>
      <point x="522" y="0" type="line"/>
      <point x="541" y="183" type="line"/>
      <point x="491" y="188" type="line"/>
      <point x="471" y="51" type="line"/>
      <point x="185" y="51" type="line"/>
      <point x="185" y="305" type="line"/>
      <point x="500" y="305" type="line"/>
      <point x="500" y="356" type="line"/>
      <point x="185" y="356" type="line"/>
      <point x="185" y="599" type="line"/>
      <point x="461" y="599" type="line"/>
      <point x="481" y="462" type="line"/>
      <point x="532" y="468" type="line"/>
      <point x="512" y="650" type="line"/>
      <point x="43" y="650" type="line"/>
      <point x="43" y="599" type="line"/>
      <point x="128" y="599" type="line"/>
      <point x="128" y="51" type="line"/>
      <point x="43" y="51" type="line"/>
      <point x="43" y="0" type="line"/>
      <point x="433" y="0" type="line"/>
      <point x="392" y="-25"/>
      <point x="361" y="-67"/>
      <point x="361" y="-118" type="curve" smooth="yes"/>
      <point x="361" y="-174"/>
      <point x="400" y="-209"/>
      <point x="462" y="-209" type="curve" smooth="yes"/>
      <point x="491" y="-209"/>
      <point x="516" y="-201"/>
      <point x="538" y="-189" type="curve"/>
      <point x="529" y="-149" type="line"/>
      <point x="510" y="-161"/>
      <point x="492" y="-165"/>
      <point x="473" y="-165" type="curve" smooth="yes"/>
      <point x="436" y="-165"/>
      <point x="411" y="-149"/>
      <point x="411" y="-106" type="curve" smooth="yes"/>
      <point x="411" y="-69"/>
      <point x="429" y="-31"/>
      <point x="481" y="0" type="curve"/>
    </contour>
  </outline>
</glyph>
<glyph name="Ecaron" format="1">
  <advance width="588"/>
  <unicode hex="011A"/>
  <outline>
    <contour>
      <point x="447" y="792" type="line"/>
      <point x="430" y="822" type="line"/>
      <point x="318" y="757" type="line"/>
      <point x="202" y="819" type="line"/>
      <point x="184" y="789" type="line"/>
      <point x="307" y="705" type="line"/>
      <point x="323" y="705" type="line"/>
    </contour>
    <contour>
      <point x="522" y="0" type="line"/>
      <point x="541" y="183" type="line"/>
      <point x="491" y="188" type="line"/>
      <point x="471" y="51" type="line"/>
      <point x="185" y="51" type="line"/>
      <point x="185" y="305" type="line"/>
      <point x="500" y="305" type="line"/>
      <point x="500" y="356" type="line"/>
      <point x="185" y="356" type="line"/>
      <point x="185" y="599" type="line"/>
      <point x="461" y="599" type="line"/>
      <point x="481" y="462" type="line"/>
      <point x="532" y="468" type="line"/>
      <point x="512" y="650" type="line"/>
      <point x="43" y="650" type="line"/>
      <point x="43" y="599" type="line"/>
      <point x="128" y="599" type="line"/>
      <point x="128" y="51" type="line"/>
      <point x="43" y="51" type="line"/>
      <point x="43" y="0" type="line"/>
    </contour>
  </outline>
</glyph>
<glyph name="Hcircumflex" format="1">
  <advance width="754"/>
  <unicode hex="0124"/>
  <outline>
    <contour>
      <point x="710" y="0" type="line"/>
      <point x="710" y="51" type="line"/>
      <point x="626" y="51" type="line"/>
      <point x="626" y="599" type="line"/>
      <point x="710" y="599" type="line"/>
      <point x="710" y="650" type="line"/>
      <point x="483" y="650" type="line"/>
      <point x="483" y="599" type="line"/>
      <point x="568" y="599" type="line"/>
      <point x="568" y="356" type="line"/>
      <point x="185" y="356" type="line"/>
      <point x="185" y="599" type="line"/>
      <point x="270" y="599" type="line"/>
      <point x="270" y="650" type="line"/>
      <point x="43" y="650" type="line"/>
      <point x="43" y="599" type="line"/>
      <point x="128" y="599" type="line"/>
      <point x="128" y="51" type="line"/>
      <point x="43" y="51" type="line"/>
      <point x="43" y="0" type="line"/>
      <point x="270" y="0" type="line"/>
      <point x="270" y="51" type="line"/>
      <point x="185" y="51" type="line"/>
      <point x="185" y="307" type="line"/>
      <point x="568" y="307" type="line"/>
      <point x="568" y="51" type="line"/>
      <point x="483" y="51" type="line"/>
      <point x="483" y="0" type="line"/>
    </contour>
    <contour>
      <point x="512" y="737" type="line"/>
      <point x="389" y="822" type="line"/>
      <point x="374" y="822" type="line"/>
      <point x="249" y="733" type="line"/>
      <point x="266" y="705" type="line"/>
      <point x="379" y="769" type="line"/>
      <point x="495" y="706" type="line"/>
    </contour>
  </outline>
</glyph>
<glyph name="Hbar" format="1">
  <advance width="755"/>
  <unicode hex="0126"/>
  <outline>
    <contour>
      <point x="52" y="472" type="line"/>
      <point x="128" y="472" type="line"/>
      <point x="128" y="51" type="line"/>
      <point x="43" y="51" type="line"/>
      <point x="43" y="0" type="line"/>
      <point x="270" y="0" type="line"/>
      <point x="270" y="51" type="line"/>
      <point x="185" y="51" type="line"/>
      <point x="185" y="307" type="line"/>
      <point x="568" y="307" type="line"/>
      <point x="568" y="51" type="line"/>
      <point x="483" y="51" type="line"/>
      <point x="483" y="0" type="line"/>
      <point x="710" y="0" type="line"/>
      <point x="710" y="51" type="line"/>
      <point x="626" y="51" type="line"/>
      <point x="626" y="472" type="line"/>
      <point x="702" y="472" type="line"/>
      <point x="702" y="519" type="line"/>
      <point x="626" y="519" type="line"/>
      <point x="626" y="599" type="line"/>
      <point x="710" y="599" type="line"/>
      <point x="710" y="650" type="line"/>
      <point x="483" y="650" type="line"/>
      <point x="483" y="599" type="line"/>
      <point x="568" y="599" type="line"/>
      <point x="568" y="519" type="line"/>
      <point x="185" y="519" type="line"/>
      <point x="185" y="599" type="line"/>
      <point x="270" y="599" type="line"/>
      <point x="270" y="650" type="line"/>
      <point x="43" y="650" type="line"/>
      <point x="43" y="599" type="line"/>
      <point x="128" y="599" type="line"/>
      <point x="128" y="519" type="line"/>
      <point x="52" y="519" type="line"/>
    </contour>
    <contour>
      <point x="185" y="356" type="line"/>
      <point x="185" y="472" type="line"/>
      <point x="568" y="472" type="line"/>
      <point x="568" y="356" type="line"/>
    </contour>
  </outline>
</glyph>
<glyph name="Itilde" format="1">
  <advance width="314"/>
  <unicode hex="0128"/>
  <outline>
    <contour>
      <point x="270" y="0" type="line"/>
      <point x="270" y="51" type="line"/>
      <point x="186" y="51" type="line"/>
      <point x="186" y="599" type="line"/>
      <point x="270" y="599" type="line"/>
      <point x="270" y="650" type="line"/>
      <point x="43" y="650" type="line"/>
      <point x="43" y="599" type="line"/>
      <point x="128" y="599" type="line"/>
      <point x="128" y="51" type="line"/>
      <point x="43" y="51" type="line"/>
      <point x="43" y="0" type="line"/>
    </contour>
    <contour>
      <point x="302" y="792" type="curve"/>
      <point x="271" y="800" type="line"/>
      <point x="259" y="762"/>
      <point x="242" y="757"/>
      <point x="224" y="757" type="curve" smooth="yes"/>
      <point x="173" y="757"/>
      <point x="148" y="793"/>
      <point x="104" y="793" type="curve" smooth="yes"/>
      <point x="57" y="793"/>
      <point x="30" y="752"/>
      <point x="23" y="719" type="curve"/>
      <point x="52" y="707" type="line"/>
      <point x="63" y="740"/>
      <point x="85" y="748"/>
      <point x="104" y="748" type="curve" smooth="yes"/>
      <point x="141" y="748"/>
      <point x="175" y="712"/>
      <point x="226" y="712" type="curve" smooth="yes"/>
      <point x="268" y="712"/>
      <point x="290" y="739"/>
    </contour>
  </outline>
</glyph>
<glyph name="itilde" format="1">
  <advance width="274"/>
  <unicode hex="0129"/>
  <outline>
    <contour>
      <point x="34" y="46" type="line"/>
      <point x="117" y="46" type="line"/>
      <point x="117" y="397" type="line"/>
      <point x="33" y="397" type="line"/>
      <point x="33" y="444" type="line"/>
      <point x="172" y="444" type="line"/>
      <point x="172" y="46" type="line"/>
      <point x="254" y="46" type="line"/>
      <point x="254" y="0" type="line"/>
      <point x="34" y="0" type="line"/>
    </contour>
    <contour>
      <point x="270" y="646" type="curve"/>
      <point x="239" y="654" type="line"/>
      <point x="228" y="616"/>
      <point x="210" y="611"/>
      <point x="192" y="611" type="curve" smooth="yes"/>
      <point x="141" y="611"/>
      <point x="116" y="648"/>
      <point x="72" y="648" type="curve" smooth="yes"/>
      <point x="25" y="648"/>
      <point x="-2" y="603"/>
      <point x="-9" y="569" type="curve"/>
      <point x="20" y="558" type="line"/>
      <point x="31" y="591"/>
      <point x="54" y="601"/>
      <point x="73" y="601" type="curve" smooth="yes"/>
      <point x="109" y="601"/>
      <point x="143" y="563"/>
      <point x="195" y="563" type="curve" smooth="yes"/>
      <point x="236" y="563"/>
      <point x="259" y="593"/>
    </contour>
  </outline>
</glyph>
<glyph name="ibreve" format="1">
  <advance width="274"/>
  <unicode hex="012D"/>
  <outline>
    <contour>
      <point x="34" y="46" type="line"/>
      <point x="117" y="46" type="line"/>
      <point x="117" y="397" type="line"/>
      <point x="33" y="397" type="line"/>
      <point x="33" y="444" type="line"/>
      <point x="172" y="444" type="line"/>
      <point x="172" y="46" type="line"/>
      <point x="254" y="46" type="line"/>
      <point x="254" y="0" type="line"/>
      <point x="34" y="0" type="line"/>
    </contour>
    <contour>
      <point x="259" y="655" type="curve"/>
      <point x="212" y="655" type="line"/>
      <point x="212" y="600"/>
      <point x="190" y="577"/>
      <point x="142" y="577" type="curve" smooth="yes"/>
      <point x="97" y="577"/>
      <point x="71" y="597"/>
      <point x="71" y="655" type="curve"/>
      <point x="24" y="655" type="line"/>
      <point x="24" y="577"/>
      <point x="62" y="537"/>
      <point x="141" y="537" type="curve" smooth="yes"/>
      <point x="220" y="537"/>
      <point x="259" y="576"/>
    </contour>
  </outline>
</glyph>
<glyph name="iogonek" format="1">
  <advance width="274"/>
  <unicode hex="012F"/>
  <outline>
    <contour>
      <point x="222" y="-149" type="line"/>
      <point x="203" y="-161"/>
      <point x="185" y="-165"/>
      <point x="166" y="-165" type="curve" smooth="yes"/>
      <point x="129" y="-165"/>
      <point x="104" y="-149"/>
      <point x="104" y="-106" type="curve" smooth="yes"/>
      <point x="104" y="-69"/>
      <point x="122" y="-31"/>
      <point x="174" y="0" type="curve"/>
      <point x="254" y="0" type="line"/>
      <point x="254" y="46" type="line"/>
      <point x="172" y="46" type="line"/>
      <point x="172" y="444" type="line"/>
      <point x="33" y="444" type="line"/>
      <point x="33" y="397" type="line"/>
      <point x="117" y="397" type="line"/>
      <point x="117" y="46" type="line"/>
      <point x="34" y="46" type="line"/>
      <point x="34" y="0" type="line"/>
      <point x="126" y="0" type="line"/>
      <point x="85" y="-25"/>
      <point x="54" y="-67"/>
      <point x="54" y="-118" type="curve" smooth="yes"/>
      <point x="54" y="-174"/>
      <point x="93" y="-209"/>
      <point x="155" y="-209" type="curve" smooth="yes"/>
      <point x="184" y="-209"/>
      <point x="209" y="-201"/>
      <point x="231" y="-189" type="curve"/>
    </contour>
    <contour>
      <point x="110" y="568" type="line"/>
      <point x="172" y="568" type="line"/>
      <point x="172" y="647" type="line"/>
      <point x="110" y="647" type="line"/>
    </contour>
  </outline>
</glyph>
<glyph name="Idotaccent" format="1">
  <advance width="314"/>
  <unicode hex="0130"/>
  <outline>
    <contour>
      <point x="270" y="0" type="line"/>
      <point x="270" y="51" type="line"/>
      <point x="186" y="51" type="line"/>
      <point x="186" y="599" type="line"/>
      <point x="270" y="599" type="line"/>
      <point x="270" y="650" type="line"/>
      <point x="43" y="650" type="line"/>
      <point x="43" y="599" type="line"/>
      <point x="128" y="599" type="line"/>
      <point x="128" y="51" type="line"/>
      <point x="43" y="51" type="line"/>
      <point x="43" y="0" type="line"/>
    </contour>
    <contour>
      <point x="122" y="722" type="line"/>
      <point x="190" y="722" type="line"/>
      <point x="190" y="793" type="line"/>
      <point x="122" y="793" type="line"/>
    </contour>
  </outline>
</glyph>
<glyph name="IJ" format="1">
  <advance width="761"/>
  <unicode hex="0132"/>
  <outline>
    <contour>
      <point x="270" y="0" type="line"/>
      <point x="270" y="51" type="line"/>
      <point x="186" y="51" type="line"/>
      <point x="186" y="599" type="line"/>
      <point x="270" y="599" type="line"/>
      <point x="270" y="650" type="line"/>
      <point x="43" y="650" type="line"/>
      <point x="43" y="599" type="line"/>
      <point x="128" y="599" type="line"/>
      <point x="128" y="51" type="line"/>
      <point x="43" y="51" type="line"/>
      <point x="43" y="0" type="line"/>
    </contour>
    <contour>
      <point x="721" y="599" type="line"/>
      <point x="721" y="650" type="line"/>
      <point x="456" y="650" type="line"/>
      <point x="456" y="599" type="line"/>
      <point x="589" y="599" type="line"/>
      <point x="589" y="161" type="line" smooth="yes"/>
      <point x="589" y="90"/>
      <point x="558" y="44"/>
      <point x="482" y="44" type="curve" smooth="yes"/>
      <point x="435" y="44"/>
      <point x="404" y="62"/>
      <point x="375" y="114" type="curve"/>
      <point x="333" y="82" type="line"/>
      <point x="361" y="26"/>
      <point x="408" y="-10"/>
      <point x="487" y="-10" type="curve" smooth="yes"/>
      <point x="588" y="-10"/>
      <point x="646" y="47"/>
      <point x="646" y="161" type="curve" smooth="yes"/>
      <point x="646" y="599" type="line"/>
    </contour>
  </outline>
</glyph>
<glyph name="ij" format="1">
  <advance width="523"/>
  <unicode hex="0133"/>
  <outline>
    <contour>
      <point x="254" y="0" type="line"/>
      <point x="254" y="46" type="line"/>
      <point x="172" y="46" type="line"/>
      <point x="172" y="444" type="line"/>
      <point x="33" y="444" type="line"/>
      <point x="33" y="397" type="line"/>
      <point x="117" y="397" type="line"/>
      <point x="117" y="46" type="line"/>
      <point x="34" y="46" type="line"/>
      <point x="34" y="0" type="line"/>
    </contour>
    <contour>
      <point x="110" y="568" type="line"/>
      <point x="172" y="568" type="line"/>
      <point x="172" y="647" type="line"/>
      <point x="110" y="647" type="line"/>
    </contour>
    <contour>
      <point x="442" y="-21" type="curve" smooth="yes"/>
      <point x="442" y="444" type="line"/>
      <point x="280" y="444" type="line"/>
      <point x="280" y="397" type="line"/>
      <point x="387" y="397" type="line"/>
      <point x="387" y="-21" type="line" smooth="yes"/>
      <point x="387" y="-165"/>
      <point x="313" y="-179"/>
      <point x="258" y="-179" type="curve"/>
      <point x="260" y="-224" type="line"/>
      <point x="353" y="-231"/>
      <point x="442" y="-191"/>
    </contour>
    <contour>
      <point x="380" y="568" type="line"/>
      <point x="442" y="568" type="line"/>
      <point x="442" y="647" type="line"/>
      <point x="380" y="647" type="line"/>
    </contour>
  </outline>
</glyph>
<glyph name="jcircumflex" format="1">
  <advance width="248"/>
  <unicode hex="0135"/>
  <outline>
    <contour>
      <point x="6" y="444" type="line"/>
      <point x="168" y="444" type="line"/>
      <point x="168" y="-21" type="line" smooth="yes"/>
      <point x="168" y="-191"/>
      <point x="79" y="-231"/>
      <point x="-14" y="-224" type="curve"/>
      <point x="-16" y="-182" type="line"/>
      <point x="39" y="-182"/>
      <point x="113" y="-165"/>
      <point x="113" y="-21" type="curve" smooth="yes"/>
      <point x="113" y="397" type="line"/>
      <point x="6" y="397" type="line"/>
    </contour>
    <contour>
      <point x="237" y="552" type="line"/>
      <point x="120" y="667" type="line"/>
      <point x="105" y="667" type="line"/>
      <point x="-13" y="549" type="line"/>
      <point x="10" y="522" type="line"/>
      <point x="108" y="611" type="line"/>
      <point x="213" y="522" type="line"/>
    </contour>
  </outline>
</glyph>
<glyph name="Kcommaaccent" format="1">
  <advance width="632"/>
  <unicode hex="0136"/>
  <outline>
    <contour>
      <point x="367" y="-66" type="line"/>
      <point x="315" y="-66" type="line"/>
      <point x="305" y="-219" type="line"/>
      <point x="351" y="-219" type="line"/>
    </contour>
    <contour>
      <point x="627" y="0" type="line"/>
      <point x="627" y="51" type="line"/>
      <point x="553" y="51" type="line"/>
      <point x="345" y="337" type="line"/>
      <point x="540" y="600" type="line"/>
      <point x="615" y="600" type="line"/>
      <point x="615" y="651" type="line"/>
      <point x="397" y="651" type="line"/>
      <point x="397" y="600" type="line"/>
      <point x="479" y="600" type="line"/>
      <point x="299" y="356" type="line"/>
      <point x="186" y="356" type="line"/>
      <point x="186" y="599" type="line"/>
      <point x="267" y="599" type="line"/>
      <point x="267" y="650" type="line"/>
      <point x="43" y="650" type="line"/>
      <point x="43" y="599" type="line"/>
      <point x="128" y="599" type="line"/>
      <point x="128" y="51" type="line"/>
      <point x="43" y="51" type="line"/>
      <point x="43" y="0" type="line"/>
      <point x="266" y="0" type="line"/>
      <point x="266" y="51" type="line"/>
      <point x="186" y="51" type="line"/>
      <point x="186" y="306" type="line"/>
      <point x="301" y="306" type="line"/>
      <point x="487" y="51" type="line"/>
      <point x="406" y="51" type="line"/>
      <point x="406" y="0" type="line"/>
    </contour>
  </outline>
</glyph>
<glyph name="Lacute" format="1">
  <advance width="541"/>
  <unicode hex="0139"/>
  <outline>
    <contour>
      <point x="294" y="753" type="line"/>
      <point x="280" y="808" type="line"/>
      <point x="92" y="739" type="line"/>
      <point x="101" y="707" type="line"/>
    </contour>
    <contour>
      <point x="507" y="0" type="line"/>
      <point x="527" y="202" type="line"/>
      <point x="475" y="206" type="line"/>
      <point x="455" y="51" type="line"/>
      <point x="185" y="51" type="line"/>
      <point x="185" y="599" type="line"/>
      <point x="298" y="599" type="line"/>
      <point x="298" y="650" type="line"/>
      <point x="43" y="650" type="line"/>
      <point x="43" y="599" type="line"/>
      <point x="128" y="599" type="line"/>
      <point x="128" y="51" type="line"/>
      <point x="43" y="51" type="line"/>
      <point x="43" y="0" type="line"/>
    </contour>
  </outline>
</glyph>
<glyph name="Lcommaaccent" format="1">
  <advance width="541"/>
  <unicode hex="013B"/>
  <outline>
    <contour>
      <point x="334" y="-66" type="line"/>
      <point x="282" y="-66" type="line"/>
      <point x="272" y="-219" type="line"/>
      <point x="318" y="-219" type="line"/>
    </contour>
    <contour>
      <point x="507" y="0" type="line"/>
      <point x="527" y="202" type="line"/>
      <point x="475" y="206" type="line"/>
      <point x="455" y="51" type="line"/>
      <point x="185" y="51" type="line"/>
      <point x="185" y="599" type="line"/>
      <point x="298" y="599" type="line"/>
      <point x="298" y="650" type="line"/>
      <point x="43" y="650" type="line"/>
      <point x="43" y="599" type="line"/>
      <point x="128" y="599" type="line"/>
      <point x="128" y="51" type="line"/>
      <point x="43" y="51" type="line"/>
      <point x="43" y="0" type="line"/>
    </contour>
  </outline>
</glyph>
<glyph name="lcommaaccent" format="1">
  <advance width="262"/>
  <unicode hex="013C"/>
  <outline>
    <contour>
      <point x="161" y="-66" type="line"/>
      <point x="109" y="-66" type="line"/>
      <point x="99" y="-219" type="line"/>
      <point x="145" y="-219" type="line"/>
    </contour>
    <contour>
      <point x="240" y="0" type="line"/>
      <point x="240" y="46" type="line"/>
      <point x="158" y="46" type="line"/>
      <point x="158" y="688" type="line"/>
      <point x="20" y="688" type="line"/>
      <point x="20" y="642" type="line"/>
      <point x="103" y="642" type="line"/>
      <point x="103" y="46" type="line"/>
      <point x="21" y="46" type="line"/>
      <point x="21" y="0" type="line"/>
    </contour>
  </outline>
</glyph>
<glyph name="Lcaron" format="1">
  <advance width="541"/>
  <unicode hex="013D"/>
  <outline>
    <contour>
      <point x="416" y="682" type="line"/>
      <point x="364" y="682" type="line"/>
      <point x="351" y="458" type="line"/>
      <point x="397" y="458" type="line"/>
    </contour>
    <contour>
      <point x="507" y="0" type="line"/>
      <point x="527" y="202" type="line"/>
      <point x="475" y="206" type="line"/>
      <point x="455" y="51" type="line"/>
      <point x="185" y="51" type="line"/>
      <point x="185" y="599" type="line"/>
      <point x="298" y="599" type="line"/>
      <point x="298" y="650" type="line"/>
      <point x="43" y="650" type="line"/>
      <point x="43" y="599" type="line"/>
      <point x="128" y="599" type="line"/>
      <point x="128" y="51" type="line"/>
      <point x="43" y="51" type="line"/>
      <point x="43" y="0" type="line"/>
    </contour>
  </outline>
</glyph>
<glyph name="lcaron" format="1">
  <advance width="271"/>
  <unicode hex="013E"/>
  <outline>
    <contour>
      <point x="297" y="681" type="line"/>
      <point x="245" y="681" type="line"/>
      <point x="232" y="457" type="line"/>
      <point x="278" y="457" type="line"/>
    </contour>
    <contour>
      <point x="240" y="0" type="line"/>
      <point x="240" y="46" type="line"/>
      <point x="158" y="46" type="line"/>
      <point x="158" y="688" type="line"/>
      <point x="20" y="688" type="line"/>
      <point x="20" y="642" type="line"/>
      <point x="103" y="642" type="line"/>
      <point x="103" y="46" type="line"/>
      <point x="21" y="46" type="line"/>
      <point x="21" y="0" type="line"/>
    </contour>
  </outline>
</glyph>
<glyph name="Ldot" format="1">
  <advance width="541"/>
  <unicode hex="013F"/>
  <outline>
    <contour>
      <point x="507" y="0" type="line"/>
      <point x="527" y="202" type="line"/>
      <point x="475" y="206" type="line"/>
      <point x="455" y="51" type="line"/>
      <point x="185" y="51" type="line"/>
      <point x="185" y="599" type="line"/>
      <point x="298" y="599" type="line"/>
      <point x="298" y="650" type="line"/>
      <point x="43" y="650" type="line"/>
      <point x="43" y="599" type="line"/>
      <point x="128" y="599" type="line"/>
      <point x="128" y="51" type="line"/>
      <point x="43" y="51" type="line"/>
      <point x="43" y="0" type="line"/>
    </contour>
    <contour>
      <point x="339" y="299" type="line"/>
      <point x="401" y="299" type="line"/>
      <point x="401" y="378" type="line"/>
      <point x="339" y="378" type="line"/>
    </contour>
  </outline>
</glyph>
<glyph name="nacute" format="1">
  <advance width="568"/>
  <unicode hex="0144"/>
  <outline>
    <contour>
      <point x="441" y="631" type="line"/>
      <point x="408" y="678" type="line"/>
      <point x="256" y="550" type="line"/>
      <point x="274" y="523" type="line"/>
    </contour>
    <contour>
      <point x="560" y="0" type="line"/>
      <point x="560" y="46" type="line"/>
      <point x="478" y="46" type="line"/>
      <point x="478" y="280" type="line" smooth="yes"/>
      <point x="478" y="401"/>
      <point x="414" y="453"/>
      <point x="326" y="453" type="curve" smooth="yes"/>
      <point x="254" y="453"/>
      <point x="198" y="418"/>
      <point x="168" y="362" type="curve"/>
      <point x="168" y="444" type="line"/>
      <point x="29" y="444" type="line"/>
      <point x="29" y="397" type="line"/>
      <point x="113" y="397" type="line"/>
      <point x="113" y="46" type="line"/>
      <point x="30" y="46" type="line"/>
      <point x="30" y="0" type="line"/>
      <point x="250" y="0" type="line"/>
      <point x="250" y="46" type="line"/>
      <point x="168" y="46" type="line"/>
      <point x="168" y="267" type="line"/>
      <point x="171" y="336"/>
      <point x="227" y="404"/>
      <point x="313" y="404" type="curve" smooth="yes"/>
      <point x="375" y="404"/>
      <point x="423" y="368"/>
      <point x="423" y="267" type="curve" smooth="yes"/>
      <point x="423" y="46" type="line"/>
      <point x="341" y="46" type="line"/>
      <point x="341" y="0" type="line"/>
    </contour>
  </outline>
</glyph>
<glyph name="Ncaron" format="1">
  <advance width="732"/>
  <unicode hex="0147"/>
  <outline>
    <contour>
      <point x="495" y="792" type="line"/>
      <point x="478" y="822" type="line"/>
      <point x="366" y="757" type="line"/>
      <point x="250" y="819" type="line"/>
      <point x="232" y="789" type="line"/>
      <point x="355" y="705" type="line"/>
      <point x="371" y="705" type="line"/>
    </contour>
    <contour>
      <point x="695" y="599" type="line"/>
      <point x="695" y="650" type="line"/>
      <point x="457" y="650" type="line"/>
      <point x="457" y="599" type="line"/>
      <point x="556" y="599" type="line"/>
      <point x="556" y="118" type="line"/>
      <point x="552" y="118" type="line"/>
      <point x="171" y="650" type="line"/>
      <point x="41" y="650" type="line"/>
      <point x="41" y="599" type="line"/>
      <point x="128" y="599" type="line"/>
      <point x="128" y="51" type="line"/>
      <point x="51" y="51" type="line"/>
      <point x="51" y="0" type="line"/>
      <point x="290" y="0" type="line"/>
      <point x="290" y="51" type="line"/>
      <point x="183" y="51" type="line"/>
      <point x="183" y="538" type="line"/>
      <point x="187" y="538" type="line"/>
      <point x="572" y="0" type="line"/>
      <point x="611" y="0" type="line"/>
      <point x="611" y="599" type="line"/>
    </contour>
  </outline>
</glyph>
<glyph name="ncaron" format="1">
  <advance width="568"/>
  <unicode hex="0148"/>
  <outline>
    <contour>
      <point x="422" y="639" type="line"/>
      <point x="399" y="667" type="line"/>
      <point x="300" y="578" type="line"/>
      <point x="196" y="667" type="line"/>
      <point x="172" y="637" type="line"/>
      <point x="289" y="522" type="line"/>
      <point x="305" y="522" type="line"/>
    </contour>
    <contour>
      <point x="560" y="0" type="line"/>
      <point x="560" y="46" type="line"/>
      <point x="478" y="46" type="line"/>
      <point x="478" y="280" type="line" smooth="yes"/>
      <point x="478" y="401"/>
      <point x="414" y="453"/>
      <point x="326" y="453" type="curve" smooth="yes"/>
      <point x="254" y="453"/>
      <point x="198" y="418"/>
      <point x="168" y="362" type="curve"/>
      <point x="168" y="444" type="line"/>
      <point x="29" y="444" type="line"/>
      <point x="29" y="397" type="line"/>
      <point x="113" y="397" type="line"/>
      <point x="113" y="46" type="line"/>
      <point x="30" y="46" type="line"/>
      <point x="30" y="0" type="line"/>
      <point x="250" y="0" type="line"/>
      <point x="250" y="46" type="line"/>
      <point x="168" y="46" type="line"/>
      <point x="168" y="267" type="line"/>
      <point x="171" y="336"/>
      <point x="227" y="404"/>
      <point x="313" y="404" type="curve" smooth="yes"/>
      <point x="375" y="404"/>
      <point x="423" y="368"/>
      <point x="423" y="267" type="curve" smooth="yes"/>
      <point x="423" y="46" type="line"/>
      <point x="341" y="46" type="line"/>
      <point x="341" y="0" type="line"/>
    </contour>
  </outline>
</glyph>
<glyph name="eng" format="1">
  <advance width="550"/>
  <unicode hex="014B"/>
  <outline>
    <contour>
      <point x="30" y="46" type="line"/>
      <point x="113" y="46" type="line"/>
      <point x="113" y="397" type="line"/>
      <point x="29" y="397" type="line"/>
      <point x="29" y="444" type="line"/>
      <point x="168" y="444" type="line"/>
      <point x="168" y="362" type="line"/>
      <point x="198" y="418"/>
      <point x="254" y="453"/>
      <point x="326" y="453" type="curve" smooth="yes"/>
      <point x="414" y="453"/>
      <point x="478" y="401"/>
      <point x="478" y="280" type="curve" smooth="yes"/>
      <point x="478" y="-21" type="line" smooth="yes"/>
      <point x="478" y="-191"/>
      <point x="389" y="-231"/>
      <point x="295" y="-224" type="curve"/>
      <point x="294" y="-182" type="line"/>
      <point x="349" y="-182"/>
      <point x="423" y="-165"/>
      <point x="423" y="-21" type="curve" smooth="yes"/>
      <point x="423" y="267" type="line" smooth="yes"/>
      <point x="423" y="368"/>
      <point x="376" y="404"/>
      <point x="311" y="404" type="curve" smooth="yes"/>
      <point x="226" y="404"/>
      <point x="168" y="334"/>
      <point x="168" y="264" type="curve" smooth="yes"/>
      <point x="168" y="46" type="line"/>
      <point x="250" y="46" type="line"/>
      <point x="250" y="0" type="line"/>
      <point x="30" y="0" type="line"/>
    </contour>
  </outline>
</glyph>
<glyph name="Obreve" format="1">
  <advance width="733"/>
  <unicode hex="014E"/>
  <outline>
    <contour>
      <point x="490" y="812" type="curve"/>
      <point x="443" y="812" type="line"/>
      <point x="443" y="756"/>
      <point x="422" y="740"/>
      <point x="372" y="740" type="curve" smooth="yes"/>
      <point x="327" y="740"/>
      <point x="302" y="754"/>
      <point x="302" y="812" type="curve"/>
      <point x="255" y="812" type="line"/>
      <point x="255" y="733"/>
      <point x="293" y="700"/>
      <point x="373" y="700" type="curve" smooth="yes"/>
      <point x="452" y="700"/>
      <point x="490" y="732"/>
    </contour>
    <contour>
      <point x="690" y="325" type="curve" smooth="yes"/>
      <point x="690" y="510"/>
      <point x="558" y="660"/>
      <point x="366" y="660" type="curve" smooth="yes"/>
      <point x="177" y="660"/>
      <point x="43" y="511"/>
      <point x="43" y="325" type="curve" smooth="yes"/>
      <point x="43" y="141"/>
      <point x="173" y="-10"/>
      <point x="365" y="-10" type="curve" smooth="yes"/>
      <point x="557" y="-10"/>
      <point x="690" y="141"/>
    </contour>
    <contour>
      <point x="629" y="324" type="curve" smooth="yes"/>
      <point x="629" y="167"/>
      <point x="528" y="42"/>
      <point x="367" y="42" type="curve" smooth="yes"/>
      <point x="204" y="42"/>
      <point x="104" y="171"/>
      <point x="104" y="326" type="curve" smooth="yes"/>
      <point x="104" y="482"/>
      <point x="205" y="608"/>
      <point x="366" y="608" type="curve" smooth="yes"/>
      <point x="525" y="608"/>
      <point x="629" y="485"/>
    </contour>
  </outline>
</glyph>
<glyph name="obreve" format="1">
  <advance width="510"/>
  <unicode hex="014F"/>
  <outline>
    <contour>
      <point x="469" y="222" type="curve" smooth="yes"/>
      <point x="469" y="348"/>
      <point x="396" y="453"/>
      <point x="256" y="453" type="curve" smooth="yes"/>
      <point x="116" y="453"/>
      <point x="41" y="348"/>
      <point x="41" y="219" type="curve" smooth="yes"/>
      <point x="41" y="88"/>
      <point x="118" y="-10"/>
      <point x="252" y="-10" type="curve" smooth="yes"/>
      <point x="387" y="-10"/>
      <point x="469" y="89"/>
    </contour>
    <contour>
      <point x="410" y="223" type="curve" smooth="yes"/>
      <point x="410" y="119"/>
      <point x="356" y="39"/>
      <point x="254" y="39" type="curve" smooth="yes"/>
      <point x="152" y="39"/>
      <point x="99" y="120"/>
      <point x="99" y="222" type="curve" smooth="yes"/>
      <point x="99" y="325"/>
      <point x="153" y="404"/>
      <point x="254" y="404" type="curve" smooth="yes"/>
      <point x="355" y="404"/>
      <point x="410" y="327"/>
    </contour>
    <contour>
      <point x="377" y="655" type="curve"/>
      <point x="330" y="655" type="line"/>
      <point x="330" y="600"/>
      <point x="308" y="577"/>
      <point x="260" y="577" type="curve" smooth="yes"/>
      <point x="215" y="577"/>
      <point x="189" y="597"/>
      <point x="189" y="655" type="curve"/>
      <point x="142" y="655" type="line"/>
      <point x="142" y="577"/>
      <point x="180" y="537"/>
      <point x="259" y="537" type="curve" smooth="yes"/>
      <point x="338" y="537"/>
      <point x="377" y="576"/>
    </contour>
  </outline>
</glyph>
<glyph name="oe" format="1">
  <advance width="835"/>
  <unicode hex="0153"/>
  <outline>
    <contour>
      <point x="795" y="124" type="curve"/>
      <point x="749" y="135" type="line"/>
      <point x="733" y="73"/>
      <point x="689" y="39"/>
      <point x="619" y="39" type="curve" smooth="yes"/>
      <point x="527" y="39"/>
      <point x="473" y="98"/>
      <point x="468" y="201" type="curve" smooth="yes"/>
      <point x="468" y="203"/>
      <point x="469" y="206"/>
      <point x="469" y="208" type="curve"/>
      <point x="786" y="208" type="line"/>
      <point x="789" y="225"/>
      <point x="791" y="242"/>
      <point x="791" y="258" type="curve" smooth="yes"/>
      <point x="791" y="360"/>
      <point x="730" y="453"/>
      <point x="609" y="453" type="curve" smooth="yes"/>
      <point x="531" y="453"/>
      <point x="472" y="413"/>
      <point x="439" y="348" type="curve"/>
      <point x="406" y="411"/>
      <point x="344" y="453"/>
      <point x="256" y="453" type="curve" smooth="yes"/>
      <point x="116" y="453"/>
      <point x="41" y="348"/>
      <point x="41" y="219" type="curve" smooth="yes"/>
      <point x="41" y="88"/>
      <point x="118" y="-10"/>
      <point x="252" y="-10" type="curve" smooth="yes"/>
      <point x="337" y="-10"/>
      <point x="401" y="29"/>
      <point x="437" y="92" type="curve"/>
      <point x="470" y="26"/>
      <point x="533" y="-10"/>
      <point x="615" y="-10" type="curve" smooth="yes"/>
      <point x="719" y="-10"/>
      <point x="782" y="49"/>
    </contour>
    <contour>
      <point x="410" y="223" type="curve"/>
      <point x="410" y="215" type="line" smooth="yes"/>
      <point x="407" y="115"/>
      <point x="353" y="39"/>
      <point x="254" y="39" type="curve" smooth="yes"/>
      <point x="152" y="39"/>
      <point x="99" y="120"/>
      <point x="99" y="222" type="curve" smooth="yes"/>
      <point x="99" y="325"/>
      <point x="153" y="404"/>
      <point x="254" y="404" type="curve" smooth="yes"/>
      <point x="355" y="404"/>
      <point x="410" y="327"/>
    </contour>
    <contour>
      <point x="733" y="254" type="curve"/>
      <point x="469" y="254" type="line"/>
      <point x="478" y="334"/>
      <point x="517" y="404"/>
      <point x="606" y="404" type="curve" smooth="yes"/>
      <point x="700" y="404"/>
      <point x="740" y="325"/>
    </contour>
  </outline>
</glyph>
<glyph name="scedilla" format="1">
  <advance width="432"/>
  <unicode hex="015F"/>
  <outline>
    <contour>
      <point x="329" y="-126" type="curve" smooth="yes"/>
      <point x="329" y="-81"/>
      <point x="300" y="-48"/>
      <point x="240" y="-48" type="curve" smooth="yes"/>
      <point x="232" y="-48" type="line"/>
      <point x="232" y="-9" type="line"/>
      <point x="322" y="-1"/>
      <point x="389" y="50"/>
      <point x="389" y="126" type="curve" smooth="yes"/>
      <point x="389" y="304"/>
      <point x="110" y="206"/>
      <point x="110" y="332" type="curve" smooth="yes"/>
      <point x="110" y="382"/>
      <point x="153" y="404"/>
      <point x="215" y="404" type="curve" smooth="yes"/>
      <point x="255" y="404"/>
      <point x="284" y="394"/>
      <point x="312" y="379" type="curve"/>
      <point x="324" y="304" type="line"/>
      <point x="370" y="310" type="line"/>
      <point x="360" y="412" type="line"/>
      <point x="327" y="432"/>
      <point x="270" y="453"/>
      <point x="208" y="453" type="curve" smooth="yes"/>
      <point x="130" y="453"/>
      <point x="52" y="416"/>
      <point x="52" y="326" type="curve" smooth="yes"/>
      <point x="52" y="155"/>
      <point x="333" y="254"/>
      <point x="333" y="120" type="curve" smooth="yes"/>
      <point x="333" y="64"/>
      <point x="271" y="39"/>
      <point x="205" y="39" type="curve" smooth="yes"/>
      <point x="162" y="39"/>
      <point x="128" y="48"/>
      <point x="98" y="64" type="curve"/>
      <point x="102" y="124" type="line"/>
      <point x="57" y="128" type="line"/>
      <point x="45" y="34" type="line"/>
      <point x="74" y="13"/>
      <point x="132" y="-6"/>
      <point x="189" y="-9" type="curve"/>
      <point x="189" y="-79" type="line"/>
      <point x="217" y="-79" type="line" smooth="yes"/>
      <point x="249" y="-79"/>
      <point x="280" y="-84"/>
      <point x="280" y="-123" type="curve" smooth="yes"/>
      <point x="280" y="-157"/>
      <point x="256" y="-169"/>
      <point x="225" y="-169" type="curve" smooth="yes"/>
      <point x="195" y="-169"/>
      <point x="169" y="-159"/>
      <point x="152" y="-146" type="curve"/>
      <point x="136" y="-179" type="line"/>
      <point x="160" y="-200"/>
      <point x="192" y="-209"/>
      <point x="227" y="-209" type="curve" smooth="yes"/>
      <point x="283" y="-209"/>
      <point x="329" y="-184"/>
    </contour>
  </outline>
</glyph>
<glyph name="scaron" format="1">
  <advance width="432"/>
  <unicode hex="0161"/>
  <outline>
    <contour>
      <point x="341" y="639" type="line"/>
      <point x="318" y="667" type="line"/>
      <point x="219" y="578" type="line"/>
      <point x="115" y="667" type="line"/>
      <point x="91" y="637" type="line"/>
      <point x="208" y="522" type="line"/>
      <point x="224" y="522" type="line"/>
    </contour>
    <contour>
      <point x="389" y="126" type="curve" smooth="yes"/>
      <point x="389" y="304"/>
      <point x="110" y="206"/>
      <point x="110" y="332" type="curve" smooth="yes"/>
      <point x="110" y="382"/>
      <point x="153" y="404"/>
      <point x="215" y="404" type="curve" smooth="yes"/>
      <point x="255" y="404"/>
      <point x="284" y="394"/>
      <point x="312" y="379" type="curve"/>
      <point x="324" y="304" type="line"/>
      <point x="370" y="310" type="line"/>
      <point x="360" y="412" type="line"/>
      <point x="327" y="432"/>
      <point x="270" y="453"/>
      <point x="208" y="453" type="curve" smooth="yes"/>
      <point x="130" y="453"/>
      <point x="52" y="416"/>
      <point x="52" y="326" type="curve" smooth="yes"/>
      <point x="52" y="155"/>
      <point x="333" y="254"/>
      <point x="333" y="120" type="curve" smooth="yes"/>
      <point x="333" y="64"/>
      <point x="271" y="39"/>
      <point x="205" y="39" type="curve" smooth="yes"/>
      <point x="162" y="39"/>
      <point x="128" y="48"/>
      <point x="98" y="64" type="curve"/>
      <point x="102" y="124" type="line"/>
      <point x="57" y="128" type="line"/>
      <point x="45" y="34" type="line"/>
      <point x="77" y="11"/>
      <point x="145" y="-10"/>
      <point x="207" y="-10" type="curve" smooth="yes"/>
      <point x="309" y="-10"/>
      <point x="389" y="43"/>
    </contour>
  </outline>
</glyph>
<glyph name="Tcommaaccent" format="1">
  <advance width="613"/>
  <unicode hex="0162"/>
  <outline>
    <contour>
      <point x="335" y="-66" type="line"/>
      <point x="283" y="-66" type="line"/>
      <point x="273" y="-219" type="line"/>
      <point x="319" y="-219" type="line"/>
    </contour>
    <contour>
      <point x="591" y="458" type="line"/>
      <point x="571" y="650" type="line"/>
      <point x="40" y="650" type="line"/>
      <point x="21" y="458" type="line"/>
      <point x="72" y="454" type="line"/>
      <point x="92" y="599" type="line"/>
      <point x="277" y="599" type="line"/>
      <point x="277" y="51" type="line"/>
      <point x="162" y="51" type="line"/>
      <point x="162" y="0" type="line"/>
      <point x="451" y="0" type="line"/>
      <point x="451" y="51" type="line"/>
      <point x="334" y="51" type="line"/>
      <point x="334" y="599" type="line"/>
      <point x="519" y="599" type="line"/>
      <point x="539" y="454" type="line"/>
    </contour>
  </outline>
</glyph>
<glyph name="Tbar" format="1">
  <advance width="617"/>
  <unicode hex="0166"/>
  <outline>
    <contour>
      <point x="593" y="458" type="line"/>
      <point x="573" y="650" type="line"/>
      <point x="42" y="650" type="line"/>
      <point x="23" y="458" type="line"/>
      <point x="74" y="454" type="line"/>
      <point x="94" y="599" type="line"/>
      <point x="279" y="599" type="line"/>
      <point x="279" y="320" type="line"/>
      <point x="122" y="320" type="line"/>
      <point x="122" y="274" type="line"/>
      <point x="279" y="274" type="line"/>
      <point x="279" y="51" type="line"/>
      <point x="164" y="51" type="line"/>
      <point x="164" y="0" type="line"/>
      <point x="453" y="0" type="line"/>
      <point x="453" y="51" type="line"/>
      <point x="336" y="51" type="line"/>
      <point x="336" y="274" type="line"/>
      <point x="495" y="274" type="line"/>
      <point x="495" y="320" type="line"/>
      <point x="336" y="320" type="line"/>
      <point x="336" y="599" type="line"/>
      <point x="521" y="599" type="line"/>
      <point x="541" y="454" type="line"/>
    </contour>
  </outline>
</glyph>
<glyph name="tbar" format="1">
  <advance width="365"/>
  <unicode hex="0167"/>
  <outline>
    <contour>
      <point x="24" y="235" type="line"/>
      <point x="92" y="235" type="line"/>
      <point x="92" y="130" type="line" smooth="yes"/>
      <point x="92" y="44"/>
      <point x="136" y="-10"/>
      <point x="222" y="-10" type="curve" smooth="yes"/>
      <point x="299" y="-10"/>
      <point x="344" y="34"/>
      <point x="357" y="115" type="curve"/>
      <point x="314" y="129" type="line"/>
      <point x="300" y="55"/>
      <point x="267" y="39"/>
      <point x="228" y="39" type="curve" smooth="yes"/>
      <point x="168" y="39"/>
      <point x="147" y="78"/>
      <point x="147" y="136" type="curve" smooth="yes"/>
      <point x="147" y="235" type="line"/>
      <point x="315" y="235" type="line"/>
      <point x="315" y="278" type="line"/>
      <point x="147" y="278" type="line"/>
      <point x="147" y="397" type="line"/>
      <point x="324" y="397" type="line"/>
      <point x="324" y="444" type="line"/>
      <point x="147" y="444" type="line"/>
      <point x="147" y="588" type="line"/>
      <point x="92" y="588" type="line"/>
      <point x="92" y="444" type="line"/>
      <point x="19" y="444" type="line"/>
      <point x="19" y="397" type="line"/>
      <point x="92" y="397" type="line"/>
      <point x="92" y="278" type="line"/>
      <point x="24" y="278" type="line"/>
    </contour>
  </outline>
</glyph>
<glyph name="Utilde" format="1">
  <advance width="717"/>
  <unicode hex="0168"/>
  <outline>
    <contour>
      <point x="507" y="792" type="curve"/>
      <point x="476" y="800" type="line"/>
      <point x="464" y="762"/>
      <point x="447" y="757"/>
      <point x="429" y="757" type="curve" smooth="yes"/>
      <point x="378" y="757"/>
      <point x="353" y="793"/>
      <point x="309" y="793" type="curve" smooth="yes"/>
      <point x="262" y="793"/>
      <point x="235" y="752"/>
      <point x="228" y="719" type="curve"/>
      <point x="257" y="707" type="line"/>
      <point x="268" y="740"/>
      <point x="290" y="748"/>
      <point x="309" y="748" type="curve" smooth="yes"/>
      <point x="346" y="748"/>
      <point x="380" y="712"/>
      <point x="431" y="712" type="curve" smooth="yes"/>
      <point x="473" y="712"/>
      <point x="495" y="739"/>
    </contour>
    <contour>
      <point x="677" y="599" type="line"/>
      <point x="677" y="650" type="line"/>
      <point x="461" y="650" type="line"/>
      <point x="461" y="599" type="line"/>
      <point x="558" y="599" type="line"/>
      <point x="558" y="266" type="line" smooth="yes"/>
      <point x="558" y="116"/>
      <point x="486" y="42"/>
      <point x="360" y="42" type="curve" smooth="yes"/>
      <point x="230" y="42"/>
      <point x="165" y="119"/>
      <point x="165" y="257" type="curve" smooth="yes"/>
      <point x="165" y="599" type="line"/>
      <point x="259" y="599" type="line"/>
      <point x="259" y="650" type="line"/>
      <point x="38" y="650" type="line"/>
      <point x="38" y="599" type="line"/>
      <point x="108" y="599" type="line"/>
      <point x="108" y="255" type="line" smooth="yes"/>
      <point x="108" y="115"/>
      <point x="165" y="-10"/>
      <point x="357" y="-10" type="curve" smooth="yes"/>
      <point x="555" y="-10"/>
      <point x="613" y="128"/>
      <point x="613" y="266" type="curve" smooth="yes"/>
      <point x="613" y="599" type="line"/>
    </contour>
  </outline>
</glyph>
<glyph name="utilde" format="1">
  <advance width="556"/>
  <unicode hex="0169"/>
  <outline>
    <contour>
      <point x="539" y="0" type="line"/>
      <point x="539" y="46" type="line"/>
      <point x="456" y="46" type="line"/>
      <point x="456" y="444" type="line"/>
      <point x="303" y="444" type="line"/>
      <point x="303" y="397" type="line"/>
      <point x="401" y="397" type="line"/>
      <point x="401" y="181" type="line"/>
      <point x="398" y="117"/>
      <point x="340" y="39"/>
      <point x="260" y="39" type="curve" smooth="yes"/>
      <point x="193" y="39"/>
      <point x="145" y="75"/>
      <point x="145" y="176" type="curve" smooth="yes"/>
      <point x="145" y="444" type="line"/>
      <point x="8" y="444" type="line"/>
      <point x="8" y="397" type="line"/>
      <point x="90" y="397" type="line"/>
      <point x="90" y="163" type="line" smooth="yes"/>
      <point x="90" y="41"/>
      <point x="156" y="-10"/>
      <point x="244" y="-10" type="curve" smooth="yes"/>
      <point x="316" y="-10"/>
      <point x="373" y="30"/>
      <point x="401" y="88" type="curve"/>
      <point x="401" y="0" type="line"/>
    </contour>
    <contour>
      <point x="410" y="646" type="curve"/>
      <point x="379" y="654" type="line"/>
      <point x="368" y="616"/>
      <point x="350" y="611"/>
      <point x="332" y="611" type="curve" smooth="yes"/>
      <point x="281" y="611"/>
      <point x="256" y="648"/>
      <point x="212" y="648" type="curve" smooth="yes"/>
      <point x="165" y="648"/>
      <point x="138" y="603"/>
      <point x="131" y="569" type="curve"/>
      <point x="160" y="558" type="line"/>
      <point x="171" y="591"/>
      <point x="194" y="601"/>
      <point x="213" y="601" type="curve" smooth="yes"/>
      <point x="249" y="601"/>
      <point x="283" y="563"/>
      <point x="335" y="563" type="curve" smooth="yes"/>
      <point x="376" y="563"/>
      <point x="399" y="593"/>
    </contour>
  </outline>
</glyph>
<glyph name="Umacron" format="1">
  <advance width="717"/>
  <unicode hex="016A"/>
  <outline>
    <contour>
      <point x="498" y="736" type="line"/>
      <point x="498" y="782" type="line"/>
      <point x="227" y="782" type="line"/>
      <point x="227" y="736" type="line"/>
    </contour>
    <contour>
      <point x="677" y="599" type="line"/>
      <point x="677" y="650" type="line"/>
      <point x="461" y="650" type="line"/>
      <point x="461" y="599" type="line"/>
      <point x="558" y="599" type="line"/>
      <point x="558" y="266" type="line" smooth="yes"/>
      <point x="558" y="116"/>
      <point x="486" y="42"/>
      <point x="360" y="42" type="curve" smooth="yes"/>
      <point x="230" y="42"/>
      <point x="165" y="119"/>
      <point x="165" y="257" type="curve" smooth="yes"/>
      <point x="165" y="599" type="line"/>
      <point x="259" y="599" type="line"/>
      <point x="259" y="650" type="line"/>
      <point x="38" y="650" type="line"/>
      <point x="38" y="599" type="line"/>
      <point x="108" y="599" type="line"/>
      <point x="108" y="255" type="line" smooth="yes"/>
      <point x="108" y="115"/>
      <point x="165" y="-10"/>
      <point x="357" y="-10" type="curve" smooth="yes"/>
      <point x="555" y="-10"/>
      <point x="613" y="128"/>
      <point x="613" y="266" type="curve" smooth="yes"/>
      <point x="613" y="599" type="line"/>
    </contour>
  </outline>
</glyph>
<glyph name="umacron" format="1">
  <advance width="556"/>
  <unicode hex="016B"/>
  <outline>
    <contour>
      <point x="539" y="0" type="line"/>
      <point x="539" y="46" type="line"/>
      <point x="456" y="46" type="line"/>
      <point x="456" y="444" type="line"/>
      <point x="303" y="444" type="line"/>
      <point x="303" y="397" type="line"/>
      <point x="401" y="397" type="line"/>
      <point x="401" y="181" type="line"/>
      <point x="398" y="117"/>
      <point x="340" y="39"/>
      <point x="260" y="39" type="curve" smooth="yes"/>
      <point x="193" y="39"/>
      <point x="145" y="75"/>
      <point x="145" y="176" type="curve" smooth="yes"/>
      <point x="145" y="444" type="line"/>
      <point x="8" y="444" type="line"/>
      <point x="8" y="397" type="line"/>
      <point x="90" y="397" type="line"/>
      <point x="90" y="163" type="line" smooth="yes"/>
      <point x="90" y="41"/>
      <point x="156" y="-10"/>
      <point x="244" y="-10" type="curve" smooth="yes"/>
      <point x="316" y="-10"/>
      <point x="373" y="30"/>
      <point x="401" y="88" type="curve"/>
      <point x="401" y="0" type="line"/>
    </contour>
    <contour>
      <point x="386" y="572" type="line"/>
      <point x="386" y="618" type="line"/>
      <point x="148" y="618" type="line"/>
      <point x="148" y="572" type="line"/>
    </contour>
  </outline>
</glyph>
<glyph name="Ubreve" format="1">
  <advance width="717"/>
  <unicode hex="016C"/>
  <outline>
    <contour>
      <point x="478" y="812" type="curve"/>
      <point x="431" y="812" type="line"/>
      <point x="431" y="756"/>
      <point x="410" y="740"/>
      <point x="360" y="740" type="curve" smooth="yes"/>
      <point x="315" y="740"/>
      <point x="290" y="754"/>
      <point x="290" y="812" type="curve"/>
      <point x="243" y="812" type="line"/>
      <point x="243" y="733"/>
      <point x="281" y="700"/>
      <point x="361" y="700" type="curve" smooth="yes"/>
      <point x="440" y="700"/>
      <point x="478" y="732"/>
    </contour>
    <contour>
      <point x="677" y="599" type="line"/>
      <point x="677" y="650" type="line"/>
      <point x="461" y="650" type="line"/>
      <point x="461" y="599" type="line"/>
      <point x="558" y="599" type="line"/>
      <point x="558" y="266" type="line" smooth="yes"/>
      <point x="558" y="116"/>
      <point x="486" y="42"/>
      <point x="360" y="42" type="curve" smooth="yes"/>
      <point x="230" y="42"/>
      <point x="165" y="119"/>
      <point x="165" y="257" type="curve" smooth="yes"/>
      <point x="165" y="599" type="line"/>
      <point x="259" y="599" type="line"/>
      <point x="259" y="650" type="line"/>
      <point x="38" y="650" type="line"/>
      <point x="38" y="599" type="line"/>
      <point x="108" y="599" type="line"/>
      <point x="108" y="255" type="line" smooth="yes"/>
      <point x="108" y="115"/>
      <point x="165" y="-10"/>
      <point x="357" y="-10" type="curve" smooth="yes"/>
      <point x="555" y="-10"/>
      <point x="613" y="128"/>
      <point x="613" y="266" type="curve" smooth="yes"/>
      <point x="613" y="599" type="line"/>
    </contour>
  </outline>
</glyph>
<glyph name="ubreve" format="1">
  <advance width="556"/>
  <unicode hex="016D"/>
  <outline>
    <contour>
      <point x="539" y="0" type="line"/>
      <point x="539" y="46" type="line"/>
      <point x="456" y="46" type="line"/>
      <point x="456" y="444" type="line"/>
      <point x="303" y="444" type="line"/>
      <point x="303" y="397" type="line"/>
      <point x="401" y="397" type="line"/>
      <point x="401" y="181" type="line"/>
      <point x="398" y="117"/>
      <point x="340" y="39"/>
      <point x="260" y="39" type="curve" smooth="yes"/>
      <point x="193" y="39"/>
      <point x="145" y="75"/>
      <point x="145" y="176" type="curve" smooth="yes"/>
      <point x="145" y="444" type="line"/>
      <point x="8" y="444" type="line"/>
      <point x="8" y="397" type="line"/>
      <point x="90" y="397" type="line"/>
      <point x="90" y="163" type="line" smooth="yes"/>
      <point x="90" y="41"/>
      <point x="156" y="-10"/>
      <point x="244" y="-10" type="curve" smooth="yes"/>
      <point x="316" y="-10"/>
      <point x="373" y="30"/>
      <point x="401" y="88" type="curve"/>
      <point x="401" y="0" type="line"/>
    </contour>
    <contour>
      <point x="381" y="655" type="curve"/>
      <point x="334" y="655" type="line"/>
      <point x="334" y="600"/>
      <point x="312" y="577"/>
      <point x="264" y="577" type="curve" smooth="yes"/>
      <point x="219" y="577"/>
      <point x="193" y="597"/>
      <point x="193" y="655" type="curve"/>
      <point x="146" y="655" type="line"/>
      <point x="146" y="577"/>
      <point x="184" y="537"/>
      <point x="263" y="537" type="curve" smooth="yes"/>
      <point x="342" y="537"/>
      <point x="381" y="576"/>
    </contour>
  </outline>
</glyph>
<glyph name="Uring" format="1">
  <advance width="717"/>
  <unicode hex="016E"/>
  <outline>
    <contour>
      <point x="677" y="599" type="line"/>
      <point x="677" y="650" type="line"/>
      <point x="461" y="650" type="line"/>
      <point x="461" y="599" type="line"/>
      <point x="558" y="599" type="line"/>
      <point x="558" y="266" type="line" smooth="yes"/>
      <point x="558" y="116"/>
      <point x="486" y="42"/>
      <point x="360" y="42" type="curve" smooth="yes"/>
      <point x="230" y="42"/>
      <point x="165" y="119"/>
      <point x="165" y="257" type="curve" smooth="yes"/>
      <point x="165" y="599" type="line"/>
      <point x="259" y="599" type="line"/>
      <point x="259" y="650" type="line"/>
      <point x="38" y="650" type="line"/>
      <point x="38" y="599" type="line"/>
      <point x="108" y="599" type="line"/>
      <point x="108" y="255" type="line" smooth="yes"/>
      <point x="108" y="115"/>
      <point x="165" y="-10"/>
      <point x="357" y="-10" type="curve" smooth="yes"/>
      <point x="555" y="-10"/>
      <point x="613" y="128"/>
      <point x="613" y="266" type="curve" smooth="yes"/>
      <point x="613" y="599" type="line"/>
    </contour>
    <contour>
      <point x="461" y="784" type="curve" smooth="yes"/>
      <point x="461" y="836"/>
      <point x="430" y="874"/>
      <point x="364" y="874" type="curve" smooth="yes"/>
      <point x="303" y="874"/>
      <point x="266" y="837"/>
      <point x="266" y="783" type="curve" smooth="yes"/>
      <point x="266" y="725"/>
      <point x="299" y="690"/>
      <point x="363" y="690" type="curve" smooth="yes"/>
      <point x="427" y="690"/>
      <point x="461" y="729"/>
    </contour>
    <contour>
      <point x="420" y="784" type="curve" smooth="yes"/>
      <point x="420" y="751"/>
      <point x="402" y="725"/>
      <point x="363" y="725" type="curve" smooth="yes"/>
      <point x="325" y="725"/>
      <point x="307" y="748"/>
      <point x="307" y="783" type="curve" smooth="yes"/>
      <point x="307" y="815"/>
      <point x="326" y="840"/>
      <point x="363" y="840" type="curve" smooth="yes"/>
      <point x="404" y="840"/>
      <point x="420" y="814"/>
    </contour>
  </outline>
</glyph>
<glyph name="Zacute" format="1">
  <advance width="574"/>
  <unicode hex="0179"/>
  <outline>
    <contour>
      <point x="504" y="0" type="line"/>
      <point x="532" y="185" type="line"/>
      <point x="482" y="194" type="line"/>
      <point x="452" y="51" type="line"/>
      <point x="114" y="51" type="line"/>
      <point x="114" y="54" type="line"/>
      <point x="513" y="615" type="line"/>
      <point x="512" y="650" type="line"/>
      <point x="74" y="650" type="line"/>
      <point x="47" y="466" type="line"/>
      <point x="95" y="458" type="line"/>
      <point x="125" y="599" type="line"/>
      <point x="433" y="599" type="line"/>
      <point x="433" y="596" type="line"/>
      <point x="35" y="37" type="line"/>
      <point x="37" y="0" type="line"/>
    </contour>
    <contour>
      <point x="427" y="753" type="line"/>
      <point x="413" y="808" type="line"/>
      <point x="225" y="739" type="line"/>
      <point x="234" y="707" type="line"/>
    </contour>
  </outline>
</glyph>
<glyph name="zcaron" format="1">
  <advance width="461"/>
  <unicode hex="017E"/>
  <outline>
    <contour>
      <point x="361" y="639" type="line"/>
      <point x="338" y="667" type="line"/>
      <point x="239" y="578" type="line"/>
      <point x="135" y="667" type="line"/>
      <point x="111" y="637" type="line"/>
      <point x="228" y="522" type="line"/>
      <point x="244" y="522" type="line"/>
    </contour>
    <contour>
      <point x="409" y="0" type="line"/>
      <point x="431" y="133" type="line"/>
      <point x="387" y="141" type="line"/>
      <point x="363" y="46" type="line"/>
      <point x="112" y="46" type="line"/>
      <point x="402" y="408" type="line"/>
      <point x="401" y="444" type="line"/>
      <point x="53" y="444" type="line"/>
      <point x="42" y="309" type="line"/>
      <point x="88" y="303" type="line"/>
      <point x="99" y="397" type="line"/>
      <point x="330" y="397" type="line"/>
      <point x="39" y="36" type="line"/>
      <point x="40" y="0" type="line"/>
    </contour>
  </outline>
</glyph>
<glyph name="florin" format="1">
  <advance width="393"/>
  <unicode hex="0192"/>
  <outline>
    <contour>
      <point x="59" y="267" type="line"/>
      <point x="143" y="267" type="line"/>
      <point x="150" y="381" type="line" smooth="yes"/>
      <point x="156" y="478"/>
      <point x="209" y="529"/>
      <point x="306" y="529" type="curve" smooth="yes"/>
      <point x="322" y="529"/>
      <point x="351" y="528"/>
      <point x="372" y="525" type="curve"/>
      <point x="372" y="482" type="line"/>
      <point x="347" y="485"/>
      <point x="326" y="488"/>
      <point x="306" y="488" type="curve" smooth="yes"/>
      <point x="246" y="488"/>
      <point x="209" y="466"/>
      <point x="203" y="379" type="curve" smooth="yes"/>
      <point x="196" y="267" type="line"/>
      <point x="320" y="267" type="line"/>
      <point x="320" y="229" type="line"/>
      <point x="194" y="229" type="line"/>
      <point x="183" y="18" type="line" smooth="yes"/>
      <point x="180" y="-48"/>
      <point x="165" y="-112"/>
      <point x="66" y="-112" type="curve" smooth="yes"/>
      <point x="56" y="-112"/>
      <point x="45" y="-111"/>
      <point x="23" y="-108" type="curve"/>
      <point x="23" y="-67" type="line"/>
      <point x="38" y="-71"/>
      <point x="58" y="-71"/>
      <point x="69" y="-71" type="curve" smooth="yes"/>
      <point x="115" y="-71"/>
      <point x="126" y="-45"/>
      <point x="130" y="25" type="curve" smooth="yes"/>
      <point x="141" y="229" type="line"/>
      <point x="59" y="229" type="line"/>
    </contour>
  </outline>
</glyph>
<glyph name="uni01C4" format="1">
  <advance width="1280"/>
  <unicode hex="01C4"/>
  <outline>
    <contour>
      <point x="1128" y="792" type="line"/>
      <point x="1111" y="822" type="line"/>
      <point x="999" y="757" type="line"/>
      <point x="883" y="819" type="line"/>
      <point x="865" y="789" type="line"/>
      <point x="988" y="705" type="line"/>
      <point x="1004" y="705" type="line"/>
    </contour>
    <contour>
      <point x="1210" y="0" type="line"/>
      <point x="1238" y="185" type="line"/>
      <point x="1188" y="194" type="line"/>
      <point x="1158" y="51" type="line"/>
      <point x="820" y="51" type="line"/>
      <point x="820" y="54" type="line"/>
      <point x="1219" y="615" type="line"/>
      <point x="1218" y="650" type="line"/>
      <point x="780" y="650" type="line"/>
      <point x="753" y="466" type="line"/>
      <point x="801" y="458" type="line"/>
      <point x="831" y="599" type="line"/>
      <point x="1139" y="599" type="line"/>
      <point x="1139" y="596" type="line"/>
      <point x="741" y="37" type="line"/>
      <point x="743" y="0" type="line"/>
    </contour>
    <contour>
      <point x="663" y="325" type="curve" smooth="yes"/>
      <point x="663" y="512"/>
      <point x="541" y="650"/>
      <point x="332" y="650" type="curve" smooth="yes"/>
      <point x="43" y="650" type="line"/>
      <point x="43" y="600" type="line"/>
      <point x="128" y="600" type="line"/>
      <point x="128" y="50" type="line"/>
      <point x="43" y="50" type="line"/>
      <point x="43" y="0" type="line"/>
      <point x="334" y="0" type="line" smooth="yes"/>
      <point x="539" y="0"/>
      <point x="663" y="136"/>
    </contour>
    <contour>
      <point x="602" y="325" type="curve" smooth="yes"/>
      <point x="602" y="161"/>
      <point x="507" y="50"/>
      <point x="331" y="50" type="curve" smooth="yes"/>
      <point x="185" y="50" type="line"/>
      <point x="185" y="600" type="line"/>
      <point x="331" y="600" type="line" smooth="yes"/>
      <point x="507" y="600"/>
      <point x="602" y="486"/>
    </contour>
  </outline>
</glyph>
<glyph name="uni01C8" format="1">
  <advance width="770"/>
  <unicode hex="01C8"/>
  <outline>
    <contour>
      <point x="690" y="-21" type="curve" smooth="yes"/>
      <point x="690" y="444" type="line"/>
      <point x="528" y="444" type="line"/>
      <point x="528" y="397" type="line"/>
      <point x="635" y="397" type="line"/>
      <point x="635" y="-21" type="line" smooth="yes"/>
      <point x="635" y="-165"/>
      <point x="561" y="-179"/>
      <point x="506" y="-179" type="curve"/>
      <point x="508" y="-224" type="line"/>
      <point x="601" y="-231"/>
      <point x="690" y="-191"/>
    </contour>
    <contour>
      <point x="628" y="568" type="line"/>
      <point x="690" y="568" type="line"/>
      <point x="690" y="647" type="line"/>
      <point x="628" y="647" type="line"/>
    </contour>
    <contour>
      <point x="507" y="0" type="line"/>
      <point x="527" y="202" type="line"/>
      <point x="475" y="206" type="line"/>
      <point x="455" y="51" type="line"/>
      <point x="185" y="51" type="line"/>
      <point x="185" y="599" type="line"/>
      <point x="298" y="599" type="line"/>
      <point x="298" y="650" type="line"/>
      <point x="43" y="650" type="line"/>
      <point x="43" y="599" type="line"/>
      <point x="128" y="599" type="line"/>
      <point x="128" y="51" type="line"/>
      <point x="43" y="51" type="line"/>
      <point x="43" y="0" type="line"/>
    </contour>
  </outline>
</glyph>
<glyph name="uni01C9" format="1">
  <advance width="509"/>
  <unicode hex="01C9"/>
  <outline>
    <contour>
      <point x="429" y="-21" type="curve" smooth="yes"/>
      <point x="429" y="444" type="line"/>
      <point x="267" y="444" type="line"/>
      <point x="267" y="397" type="line"/>
      <point x="374" y="397" type="line"/>
      <point x="374" y="-21" type="line" smooth="yes"/>
      <point x="374" y="-165"/>
      <point x="300" y="-179"/>
      <point x="245" y="-179" type="curve"/>
      <point x="247" y="-224" type="line"/>
      <point x="340" y="-231"/>
      <point x="429" y="-191"/>
    </contour>
    <contour>
      <point x="367" y="568" type="line"/>
      <point x="429" y="568" type="line"/>
      <point x="429" y="647" type="line"/>
      <point x="367" y="647" type="line"/>
    </contour>
    <contour>
      <point x="240" y="0" type="line"/>
      <point x="240" y="46" type="line"/>
      <point x="158" y="46" type="line"/>
      <point x="158" y="688" type="line"/>
      <point x="20" y="688" type="line"/>
      <point x="20" y="642" type="line"/>
      <point x="103" y="642" type="line"/>
      <point x="103" y="46" type="line"/>
      <point x="21" y="46" type="line"/>
      <point x="21" y="0" type="line"/>
    </contour>
  </outline>
</glyph>
<glyph name="uni01CB" format="1">
  <advance width="965"/>
  <unicode hex="01CB"/>
  <outline>
    <contour>
      <point x="885" y="-21" type="curve" smooth="yes"/>
      <point x="885" y="444" type="line"/>
      <point x="723" y="444" type="line"/>
      <point x="723" y="397" type="line"/>
      <point x="830" y="397" type="line"/>
      <point x="830" y="-21" type="line" smooth="yes"/>
      <point x="830" y="-165"/>
      <point x="756" y="-179"/>
      <point x="701" y="-179" type="curve"/>
      <point x="703" y="-224" type="line"/>
      <point x="796" y="-231"/>
      <point x="885" y="-191"/>
    </contour>
    <contour>
      <point x="823" y="568" type="line"/>
      <point x="885" y="568" type="line"/>
      <point x="885" y="647" type="line"/>
      <point x="823" y="647" type="line"/>
    </contour>
    <contour>
      <point x="695" y="599" type="line"/>
      <point x="695" y="650" type="line"/>
      <point x="457" y="650" type="line"/>
      <point x="457" y="599" type="line"/>
      <point x="556" y="599" type="line"/>
      <point x="556" y="118" type="line"/>
      <point x="552" y="118" type="line"/>
      <point x="171" y="650" type="line"/>
      <point x="41" y="650" type="line"/>
      <point x="41" y="599" type="line"/>
      <point x="128" y="599" type="line"/>
      <point x="128" y="51" type="line"/>
      <point x="51" y="51" type="line"/>
      <point x="51" y="0" type="line"/>
      <point x="290" y="0" type="line"/>
      <point x="290" y="51" type="line"/>
      <point x="183" y="51" type="line"/>
      <point x="183" y="538" type="line"/>
      <point x="187" y="538" type="line"/>
      <point x="572" y="0" type="line"/>
      <point x="611" y="0" type="line"/>
      <point x="611" y="599" type="line"/>
    </contour>
  </outline>
</glyph>
<glyph name="uni01CC" format="1">
  <advance width="816"/>
  <unicode hex="01CC"/>
  <outline>
    <contour>
      <point x="736" y="-21" type="curve" smooth="yes"/>
      <point x="736" y="444" type="line"/>
      <point x="574" y="444" type="line"/>
      <point x="574" y="397" type="line"/>
      <point x="681" y="397" type="line"/>
      <point x="681" y="-21" type="line" smooth="yes"/>
      <point x="681" y="-165"/>
      <point x="607" y="-179"/>
      <point x="552" y="-179" type="curve"/>
      <point x="554" y="-224" type="line"/>
      <point x="647" y="-231"/>
      <point x="736" y="-191"/>
    </contour>
    <contour>
      <point x="674" y="568" type="line"/>
      <point x="736" y="568" type="line"/>
      <point x="736" y="647" type="line"/>
      <point x="674" y="647" type="line"/>
    </contour>
    <contour>
      <point x="560" y="0" type="line"/>
      <point x="560" y="46" type="line"/>
      <point x="478" y="46" type="line"/>
      <point x="478" y="280" type="line" smooth="yes"/>
      <point x="478" y="401"/>
      <point x="414" y="453"/>
      <point x="326" y="453" type="curve" smooth="yes"/>
      <point x="254" y="453"/>
      <point x="198" y="418"/>
      <point x="168" y="362" type="curve"/>
      <point x="168" y="444" type="line"/>
      <point x="29" y="444" type="line"/>
      <point x="29" y="397" type="line"/>
      <point x="113" y="397" type="line"/>
      <point x="113" y="46" type="line"/>
      <point x="30" y="46" type="line"/>
      <point x="30" y="0" type="line"/>
      <point x="250" y="0" type="line"/>
      <point x="250" y="46" type="line"/>
      <point x="168" y="46" type="line"/>
      <point x="168" y="267" type="line"/>
      <point x="171" y="336"/>
      <point x="227" y="404"/>
      <point x="313" y="404" type="curve" smooth="yes"/>
      <point x="375" y="404"/>
      <point x="423" y="368"/>
      <point x="423" y="267" type="curve" smooth="yes"/>
      <point x="423" y="46" type="line"/>
      <point x="341" y="46" type="line"/>
      <point x="341" y="0" type="line"/>
    </contour>
  </outline>
</glyph>
<glyph name="uni01D3" format="1">
  <advance width="717"/>
  <unicode hex="01D3"/>
  <outline>
    <contour>
      <point x="492" y="792" type="line"/>
      <point x="475" y="822" type="line"/>
      <point x="363" y="757" type="line"/>
      <point x="247" y="819" type="line"/>
      <point x="229" y="789" type="line"/>
      <point x="352" y="705" type="line"/>
      <point x="368" y="705" type="line"/>
    </contour>
    <contour>
      <point x="677" y="599" type="line"/>
      <point x="677" y="650" type="line"/>
      <point x="461" y="650" type="line"/>
      <point x="461" y="599" type="line"/>
      <point x="558" y="599" type="line"/>
      <point x="558" y="266" type="line" smooth="yes"/>
      <point x="558" y="116"/>
      <point x="486" y="42"/>
      <point x="360" y="42" type="curve" smooth="yes"/>
      <point x="230" y="42"/>
      <point x="165" y="119"/>
      <point x="165" y="257" type="curve" smooth="yes"/>
      <point x="165" y="599" type="line"/>
      <point x="259" y="599" type="line"/>
      <point x="259" y="650" type="line"/>
      <point x="38" y="650" type="line"/>
      <point x="38" y="599" type="line"/>
      <point x="108" y="599" type="line"/>
      <point x="108" y="255" type="line" smooth="yes"/>
      <point x="108" y="115"/>
      <point x="165" y="-10"/>
      <point x="357" y="-10" type="curve" smooth="yes"/>
      <point x="555" y="-10"/>
      <point x="613" y="128"/>
      <point x="613" y="266" type="curve" smooth="yes"/>
      <point x="613" y="599" type="line"/>
    </contour>
  </outline>
</glyph>
<glyph name="uni01F1" format="1">
  <advance width="1278"/>
  <unicode hex="01F1"/>
  <outline>
    <contour>
      <point x="1207" y="0" type="line"/>
      <point x="1235" y="185" type="line"/>
      <point x="1185" y="194" type="line"/>
      <point x="1155" y="51" type="line"/>
      <point x="817" y="51" type="line"/>
      <point x="817" y="54" type="line"/>
      <point x="1216" y="615" type="line"/>
      <point x="1215" y="650" type="line"/>
      <point x="777" y="650" type="line"/>
      <point x="750" y="466" type="line"/>
      <point x="798" y="458" type="line"/>
      <point x="828" y="599" type="line"/>
      <point x="1136" y="599" type="line"/>
      <point x="1136" y="596" type="line"/>
      <point x="738" y="37" type="line"/>
      <point x="740" y="0" type="line"/>
    </contour>
    <contour>
      <point x="663" y="325" type="curve" smooth="yes"/>
      <point x="663" y="512"/>
      <point x="541" y="650"/>
      <point x="332" y="650" type="curve" smooth="yes"/>
      <point x="43" y="650" type="line"/>
      <point x="43" y="600" type="line"/>
      <point x="128" y="600" type="line"/>
      <point x="128" y="50" type="line"/>
      <point x="43" y="50" type="line"/>
      <point x="43" y="0" type="line"/>
      <point x="334" y="0" type="line" smooth="yes"/>
      <point x="539" y="0"/>
      <point x="663" y="136"/>
    </contour>
    <contour>
      <point x="602" y="325" type="curve" smooth="yes"/>
      <point x="602" y="161"/>
      <point x="507" y="50"/>
      <point x="331" y="50" type="curve" smooth="yes"/>
      <point x="185" y="50" type="line"/>
      <point x="185" y="600" type="line"/>
      <point x="331" y="600" type="line" smooth="yes"/>
      <point x="507" y="600"/>
      <point x="602" y="486"/>
    </contour>
  </outline>
</glyph>
<glyph name="dotlessj" format="1">
  <advance width="248"/>
  <unicode hex="0237"/>
  <outline>
    <contour>
      <point x="6" y="444" type="line"/>
      <point x="168" y="444" type="line"/>
      <point x="168" y="-21" type="line" smooth="yes"/>
      <point x="168" y="-191"/>
      <point x="79" y="-231"/>
      <point x="-14" y="-224" type="curve"/>
      <point x="-16" y="-182" type="line"/>
      <point x="39" y="-182"/>
      <point x="113" y="-165"/>
      <point x="113" y="-21" type="curve" smooth="yes"/>
      <point x="113" y="397" type="line"/>
      <point x="6" y="397" type="line"/>
    </contour>
  </outline>
</glyph>
<glyph name="schwa" format="1">
  <advance width="467"/>
  <unicode hex="0259"/>
  <outline>
    <contour>
      <point x="39" y="318" type="curve"/>
      <point x="85" y="307" type="line"/>
      <point x="101" y="369"/>
      <point x="145" y="403"/>
      <point x="215" y="403" type="curve" smooth="yes"/>
      <point x="309" y="403"/>
      <point x="363" y="341"/>
      <point x="366" y="234" type="curve"/>
      <point x="48" y="234" type="line"/>
      <point x="45" y="217"/>
      <point x="43" y="200"/>
      <point x="43" y="184" type="curve" smooth="yes"/>
      <point x="43" y="82"/>
      <point x="104" y="-11"/>
      <point x="225" y="-11" type="curve" smooth="yes"/>
      <point x="347" y="-11"/>
      <point x="424" y="88"/>
      <point x="424" y="226" type="curve" smooth="yes"/>
      <point x="424" y="368"/>
      <point x="343" y="452"/>
      <point x="219" y="452" type="curve" smooth="yes"/>
      <point x="115" y="452"/>
      <point x="52" y="393"/>
    </contour>
    <contour>
      <point x="101" y="188" type="curve"/>
      <point x="365" y="188" type="line"/>
      <point x="356" y="108"/>
      <point x="317" y="38"/>
      <point x="228" y="38" type="curve" smooth="yes"/>
      <point x="134" y="38"/>
      <point x="94" y="117"/>
    </contour>
  </outline>
</glyph>
<glyph name="circumflex" format="1">
  <advance width="338"/>
  <unicode hex="02C6"/>
  <outline>
    <contour>
      <point x="311" y="552" type="line"/>
      <point x="194" y="667" type="line"/>
      <point x="179" y="667" type="line"/>
      <point x="61" y="549" type="line"/>
      <point x="84" y="522" type="line"/>
      <point x="182" y="611" type="line"/>
      <point x="287" y="522" type="line"/>
    </contour>
  </outline>
</glyph>
<glyph name="ogonek" format="1">
  <advance width="280"/>
  <unicode hex="02DB"/>
  <outline>
    <contour>
      <point x="224" y="-189" type="curve"/>
      <point x="215" y="-149" type="line"/>
      <point x="196" y="-161"/>
      <point x="178" y="-165"/>
      <point x="159" y="-165" type="curve" smooth="yes"/>
      <point x="122" y="-165"/>
      <point x="97" y="-149"/>
      <point x="97" y="-106" type="curve" smooth="yes"/>
      <point x="97" y="-66"/>
      <point x="118" y="-24"/>
      <point x="182" y="8" type="curve"/>
      <point x="143" y="12" type="line"/>
      <point x="91" y="-10"/>
      <point x="47" y="-58"/>
      <point x="47" y="-118" type="curve" smooth="yes"/>
      <point x="47" y="-174"/>
      <point x="86" y="-209"/>
      <point x="148" y="-209" type="curve" smooth="yes"/>
      <point x="177" y="-209"/>
      <point x="202" y="-201"/>
    </contour>
  </outline>
</glyph>
<glyph name="hungarumlaut" format="1">
  <advance width="430"/>
  <unicode hex="02DD"/>
  <outline>
    <contour>
      <point x="376" y="631" type="line"/>
      <point x="343" y="678" type="line"/>
      <point x="191" y="550" type="line"/>
      <point x="209" y="523" type="line"/>
    </contour>
    <contour>
      <point x="223" y="682" type="line"/>
      <point x="176" y="714" type="line"/>
      <point x="77" y="541" type="line"/>
      <point x="103" y="522" type="line"/>
    </contour>
  </outline>
</glyph>
<glyph name="uni0394" format="1">
  <advance width="496"/>
  <unicode hex="0394"/>
  <outline>
    <contour>
      <point x="1" y="0" type="line"/>
      <point x="492" y="0" type="line"/>
      <point x="252" y="661" type="line"/>
    </contour>
    <contour>
      <point x="67" y="46" type="line"/>
      <point x="252" y="536" type="line"/>
      <point x="427" y="46" type="line"/>
    </contour>
  </outline>
</glyph>
<glyph name="Sigma" format="1">
  <advance width="538"/>
  <unicode hex="03A3"/>
  <outline>
    <contour>
      <point x="33" y="0" type="line"/>
      <point x="505" y="0" type="line"/>
      <point x="505" y="49" type="line"/>
      <point x="95" y="49" type="line"/>
      <point x="300" y="319" type="line"/>
      <point x="300" y="336" type="line"/>
      <point x="95" y="600" type="line"/>
      <point x="505" y="600" type="line"/>
      <point x="505" y="650" type="line"/>
      <point x="33" y="650" type="line"/>
      <point x="33" y="600" type="line"/>
      <point x="243" y="326" type="line"/>
      <point x="33" y="49" type="line"/>
    </contour>
  </outline>
</glyph>
<glyph name="pi" format="1">
  <advance width="579"/>
  <unicode hex="03C0"/>
  <outline>
    <contour>
      <point x="31" y="46" type="line"/>
      <point x="113" y="46" type="line"/>
      <point x="113" y="397" type="line"/>
      <point x="30" y="397" type="line"/>
      <point x="30" y="444" type="line"/>
      <point x="550" y="444" type="line"/>
      <point x="550" y="397" type="line"/>
      <point x="466" y="397" type="line"/>
      <point x="466" y="46" type="line"/>
      <point x="548" y="46" type="line"/>
      <point x="548" y="0" type="line"/>
      <point x="328" y="0" type="line"/>
      <point x="328" y="46" type="line"/>
      <point x="411" y="46" type="line"/>
      <point x="411" y="397" type="line"/>
      <point x="168" y="397" type="line"/>
      <point x="168" y="46" type="line"/>
      <point x="250" y="46" type="line"/>
      <point x="250" y="0" type="line"/>
      <point x="31" y="0" type="line"/>
    </contour>
  </outline>
</glyph>
<glyph name="uni1E46" format="1">
  <advance width="732"/>
  <unicode hex="1E46"/>
  <outline>
    <contour>
      <point x="338" y="-168" type="line"/>
      <point x="400" y="-168" type="line"/>
      <point x="400" y="-89" type="line"/>
      <point x="338" y="-89" type="line"/>
    </contour>
    <contour>
      <point x="695" y="599" type="line"/>
      <point x="695" y="650" type="line"/>
      <point x="457" y="650" type="line"/>
      <point x="457" y="599" type="line"/>
      <point x="556" y="599" type="line"/>
      <point x="556" y="118" type="line"/>
      <point x="552" y="118" type="line"/>
      <point x="171" y="650" type="line"/>
      <point x="41" y="650" type="line"/>
      <point x="41" y="599" type="line"/>
      <point x="128" y="599" type="line"/>
      <point x="128" y="51" type="line"/>
      <point x="51" y="51" type="line"/>
      <point x="51" y="0" type="line"/>
      <point x="290" y="0" type="line"/>
      <point x="290" y="51" type="line"/>
      <point x="183" y="51" type="line"/>
      <point x="183" y="538" type="line"/>
      <point x="187" y="538" type="line"/>
      <point x="572" y="0" type="line"/>
      <point x="611" y="0" type="line"/>
      <point x="611" y="599" type="line"/>
    </contour>
  </outline>
</glyph>
<glyph name="uni1E47" format="1">
  <advance width="568"/>
  <unicode hex="1E47"/>
  <outline>
    <contour>
      <point x="262" y="-168" type="line"/>
      <point x="324" y="-168" type="line"/>
      <point x="324" y="-89" type="line"/>
      <point x="262" y="-89" type="line"/>
    </contour>
    <contour>
      <point x="560" y="0" type="line"/>
      <point x="560" y="46" type="line"/>
      <point x="478" y="46" type="line"/>
      <point x="478" y="280" type="line" smooth="yes"/>
      <point x="478" y="401"/>
      <point x="414" y="453"/>
      <point x="326" y="453" type="curve" smooth="yes"/>
      <point x="254" y="453"/>
      <point x="198" y="418"/>
      <point x="168" y="362" type="curve"/>
      <point x="168" y="444" type="line"/>
      <point x="29" y="444" type="line"/>
      <point x="29" y="397" type="line"/>
      <point x="113" y="397" type="line"/>
      <point x="113" y="46" type="line"/>
      <point x="30" y="46" type="line"/>
      <point x="30" y="0" type="line"/>
      <point x="250" y="0" type="line"/>
      <point x="250" y="46" type="line"/>
      <point x="168" y="46" type="line"/>
      <point x="168" y="267" type="line"/>
      <point x="171" y="336"/>
      <point x="227" y="404"/>
      <point x="313" y="404" type="curve" smooth="yes"/>
      <point x="375" y="404"/>
      <point x="423" y="368"/>
      <point x="423" y="267" type="curve" smooth="yes"/>
      <point x="423" y="46" type="line"/>
      <point x="341" y="46" type="line"/>
      <point x="341" y="0" type="line"/>
    </contour>
  </outline>
</glyph>
<glyph name="uni1E62" format="1">
  <advance width="526"/>
  <unicode hex="1E62"/>
  <outline>
    <contour>
      <point x="241" y="-168" type="line"/>
      <point x="303" y="-168" type="line"/>
      <point x="303" y="-89" type="line"/>
      <point x="241" y="-89" type="line"/>
    </contour>
    <contour>
      <point x="480" y="178" type="curve" smooth="yes"/>
      <point x="480" y="322"/>
      <point x="359" y="345"/>
      <point x="270" y="366" type="curve" smooth="yes"/>
      <point x="194" y="384"/>
      <point x="116" y="402"/>
      <point x="116" y="490" type="curve" smooth="yes"/>
      <point x="116" y="566"/>
      <point x="175" y="609"/>
      <point x="264" y="609" type="curve" smooth="yes"/>
      <point x="304" y="609"/>
      <point x="351" y="604"/>
      <point x="394" y="583" type="curve"/>
      <point x="405" y="480" type="line"/>
      <point x="452" y="485" type="line"/>
      <point x="446" y="611" type="line"/>
      <point x="405" y="640"/>
      <point x="324" y="660"/>
      <point x="255" y="660" type="curve" smooth="yes"/>
      <point x="144" y="660"/>
      <point x="56" y="601"/>
      <point x="56" y="485" type="curve" smooth="yes"/>
      <point x="56" y="360"/>
      <point x="158" y="335"/>
      <point x="249" y="315" type="curve" smooth="yes"/>
      <point x="332" y="296"/>
      <point x="419" y="279"/>
      <point x="419" y="173" type="curve" smooth="yes"/>
      <point x="419" y="79"/>
      <point x="343" y="41"/>
      <point x="252" y="41" type="curve" smooth="yes"/>
      <point x="198" y="41"/>
      <point x="151" y="49"/>
      <point x="108" y="71" type="curve"/>
      <point x="112" y="153" type="line"/>
      <point x="65" y="158" type="line"/>
      <point x="53" y="39" type="line"/>
      <point x="94" y="11"/>
      <point x="168" y="-10"/>
      <point x="254" y="-10" type="curve" smooth="yes"/>
      <point x="380" y="-10"/>
      <point x="480" y="55"/>
    </contour>
  </outline>
</glyph>
<glyph name="Wacute" format="1">
  <advance width="920"/>
  <unicode hex="1E82"/>
  <outline>
    <contour>
      <point x="601" y="753" type="line"/>
      <point x="587" y="808" type="line"/>
      <point x="399" y="739" type="line"/>
      <point x="408" y="707" type="line"/>
    </contour>
    <contour>
      <point x="916" y="599" type="line"/>
      <point x="916" y="650" type="line"/>
      <point x="702" y="650" type="line"/>
      <point x="702" y="599" type="line"/>
      <point x="803" y="599" type="line"/>
      <point x="666" y="89" type="line"/>
      <point x="662" y="89" type="line"/>
      <point x="501" y="599" type="line"/>
      <point x="571" y="599" type="line"/>
      <point x="571" y="650" type="line"/>
      <point x="356" y="650" type="line"/>
      <point x="356" y="599" type="line"/>
      <point x="425" y="599" type="line"/>
      <point x="266" y="91" type="line"/>
      <point x="262" y="91" type="line"/>
      <point x="115" y="599" type="line"/>
      <point x="215" y="599" type="line"/>
      <point x="215" y="650" type="line"/>
      <point x="-1" y="650" type="line"/>
      <point x="-1" y="599" type="line"/>
      <point x="54" y="599" type="line"/>
      <point x="238" y="0" type="line"/>
      <point x="288" y="0" type="line"/>
      <point x="459" y="547" type="line"/>
      <point x="463" y="547" type="line"/>
      <point x="638" y="0" type="line"/>
      <point x="688" y="0" type="line"/>
      <point x="860" y="599" type="line"/>
    </contour>
  </outline>
</glyph>
<glyph name="Wdieresis" format="1">
  <advance width="920"/>
  <unicode hex="1E84"/>
  <outline>
    <contour>
      <point x="347" y="722" type="line"/>
      <point x="415" y="722" type="line"/>
      <point x="415" y="793" type="line"/>
      <point x="347" y="793" type="line"/>
    </contour>
    <contour>
      <point x="515" y="722" type="line"/>
      <point x="583" y="722" type="line"/>
      <point x="583" y="793" type="line"/>
      <point x="515" y="793" type="line"/>
    </contour>
    <contour>
      <point x="916" y="599" type="line"/>
      <point x="916" y="650" type="line"/>
      <point x="702" y="650" type="line"/>
      <point x="702" y="599" type="line"/>
      <point x="803" y="599" type="line"/>
      <point x="666" y="89" type="line"/>
      <point x="662" y="89" type="line"/>
      <point x="501" y="599" type="line"/>
      <point x="571" y="599" type="line"/>
      <point x="571" y="650" type="line"/>
      <point x="356" y="650" type="line"/>
      <point x="356" y="599" type="line"/>
      <point x="425" y="599" type="line"/>
      <point x="266" y="91" type="line"/>
      <point x="262" y="91" type="line"/>
      <point x="115" y="599" type="line"/>
      <point x="215" y="599" type="line"/>
      <point x="215" y="650" type="line"/>
      <point x="-1" y="650" type="line"/>
      <point x="-1" y="599" type="line"/>
      <point x="54" y="599" type="line"/>
      <point x="238" y="0" type="line"/>
      <point x="288" y="0" type="line"/>
      <point x="459" y="547" type="line"/>
      <point x="463" y="547" type="line"/>
      <point x="638" y="0" type="line"/>
      <point x="688" y="0" type="line"/>
      <point x="860" y="599" type="line"/>
    </contour>
  </outline>
</glyph>
<glyph name="Ygrave" format="1">
  <advance width="604"/>
  <unicode hex="1EF2"/>
  <outline>
    <contour>
      <point x="603" y="599" type="line"/>
      <point x="603" y="650" type="line"/>
      <point x="383" y="650" type="line"/>
      <point x="383" y="599" type="line"/>
      <point x="480" y="599" type="line"/>
      <point x="308" y="301" type="line"/>
      <point x="303" y="301" type="line"/>
      <point x="124" y="599" type="line"/>
      <point x="222" y="599" type="line"/>
      <point x="222" y="650" type="line"/>
      <point x="-6" y="650" type="line"/>
      <point x="-6" y="599" type="line"/>
      <point x="60" y="599" type="line"/>
      <point x="275" y="247" type="line"/>
      <point x="275" y="51" type="line"/>
      <point x="160" y="51" type="line"/>
      <point x="160" y="0" type="line"/>
      <point x="448" y="0" type="line"/>
      <point x="448" y="51" type="line"/>
      <point x="331" y="51" type="line"/>
      <point x="331" y="247" type="line"/>
      <point x="537" y="599" type="line"/>
    </contour>
    <contour>
      <point x="362" y="739" type="line"/>
      <point x="175" y="808" type="line"/>
      <point x="161" y="753" type="line"/>
      <point x="354" y="707" type="line"/>
    </contour>
  </outline>
</glyph>
<glyph name="ygrave" format="1">
  <advance width="506"/>
  <unicode hex="1EF3"/>
  <outline>
    <contour>
      <point x="497" y="397" type="line"/>
      <point x="497" y="444" type="line"/>
      <point x="303" y="444" type="line"/>
      <point x="303" y="397" type="line"/>
      <point x="384" y="397" type="line"/>
      <point x="262" y="74" type="line"/>
      <point x="256" y="74" type="line"/>
      <point x="122" y="397" type="line"/>
      <point x="209" y="397" type="line"/>
      <point x="209" y="444" type="line"/>
      <point x="9" y="444" type="line"/>
      <point x="9" y="397" type="line"/>
      <point x="64" y="397" type="line"/>
      <point x="227" y="3" type="line"/>
      <point x="163" y="-167" type="line"/>
      <point x="77" y="-167" type="line"/>
      <point x="77" y="-213" type="line"/>
      <point x="297" y="-213" type="line"/>
      <point x="297" y="-167" type="line"/>
      <point x="216" y="-167" type="line"/>
      <point x="281" y="0" type="line"/>
      <point x="441" y="397" type="line"/>
    </contour>
    <contour>
      <point x="305" y="550" type="line"/>
      <point x="153" y="678" type="line"/>
      <point x="120" y="631" type="line"/>
      <point x="287" y="523" type="line"/>
    </contour>
  </outline>
</glyph>
<glyph name="quoteleft" format="1">
  <advance width="196"/>
  <unicode hex="2018"/>
  <outline>
    <contour>
      <point x="155" y="661" type="line"/>
      <point x="101" y="661" type="line"/>
      <point x="50" y="449" type="line"/>
      <point x="104" y="449" type="line"/>
    </contour>
  </outline>
</glyph>
<glyph name="quotedblleft" format="1">
  <advance width="356"/>
  <unicode hex="201C"/>
  <outline>
    <contour>
      <point x="155" y="668" type="line"/>
      <point x="101" y="668" type="line"/>
      <point x="50" y="456" type="line"/>
      <point x="104" y="456" type="line"/>
    </contour>
    <contour>
      <point x="316" y="668" type="line"/>
      <point x="262" y="668" type="line"/>
      <point x="211" y="456" type="line"/>
      <point x="265" y="456" type="line"/>
    </contour>
  </outline>
</glyph>
<glyph name="quotedblright" format="1">
  <advance width="355"/>
  <unicode hex="201D"/>
  <outline>
    <contour>
      <point x="47" y="458" type="line"/>
      <point x="101" y="458" type="line"/>
      <point x="152" y="670" type="line"/>
      <point x="98" y="670" type="line"/>
    </contour>
    <contour>
      <point x="208" y="458" type="line"/>
      <point x="262" y="458" type="line"/>
      <point x="313" y="670" type="line"/>
      <point x="259" y="670" type="line"/>
    </contour>
  </outline>
</glyph>
